<svg width="386" height="114" viewBox="0 0 386 114" fill="none" xmlns="http://www.w3.org/2000/svg">
<path d="M2.53895 113.778C3.94117 113.778 5.07789 112.717 5.07789 111.408C5.07789 110.098 3.94117 109.037 2.53895 109.037C1.13673 109.037 0 110.098 0 111.408C0 112.717 1.13673 113.778 2.53895 113.778Z" fill="#F7F1E1"/>
<path d="M2.53895 86.5186C3.94117 86.5186 5.07789 85.4574 5.07789 84.1483C5.07789 82.8391 3.94117 81.7779 2.53895 81.7779C1.13673 81.7779 0 82.8391 0 84.1483C0 85.4574 1.13673 86.5186 2.53895 86.5186Z" fill="#F7F1E1"/>
<path d="M2.53895 59.2595C3.94117 59.2595 5.07789 58.1982 5.07789 56.8891C5.07789 55.58 3.94117 54.5187 2.53895 54.5187C1.13673 54.5187 0 55.58 0 56.8891C0 58.1982 1.13673 59.2595 2.53895 59.2595Z" fill="#F7F1E1"/>
<path d="M2.53895 32.0001C3.94117 32.0001 5.07789 30.9389 5.07789 29.6298C5.07789 28.3206 3.94117 27.2594 2.53895 27.2594C1.13673 27.2594 0 28.3206 0 29.6298C0 30.9389 1.13673 32.0001 2.53895 32.0001Z" fill="#F7F1E1"/>
<path d="M2.53895 4.74092C3.94117 4.74092 5.07789 3.67967 5.07789 2.37055C5.07789 1.06143 3.94117 0.000183105 2.53895 0.000183105C1.13673 0.000183105 0 1.06143 0 2.37055C0 3.67967 1.13673 4.74092 2.53895 4.74092Z" fill="#F7F1E1"/>
<path d="M34.2758 113.778C35.678 113.778 36.8147 112.717 36.8147 111.408C36.8147 110.098 35.678 109.037 34.2758 109.037C32.8735 109.037 31.7368 110.098 31.7368 111.408C31.7368 112.717 32.8735 113.778 34.2758 113.778Z" fill="#F7F1E1"/>
<path d="M34.2758 86.5186C35.678 86.5186 36.8147 85.4574 36.8147 84.1483C36.8147 82.8391 35.678 81.7779 34.2758 81.7779C32.8735 81.7779 31.7368 82.8391 31.7368 84.1483C31.7368 85.4574 32.8735 86.5186 34.2758 86.5186Z" fill="#F7F1E1"/>
<path d="M34.2758 59.2595C35.678 59.2595 36.8147 58.1982 36.8147 56.8891C36.8147 55.58 35.678 54.5187 34.2758 54.5187C32.8735 54.5187 31.7368 55.58 31.7368 56.8891C31.7368 58.1982 32.8735 59.2595 34.2758 59.2595Z" fill="#F7F1E1"/>
<path d="M34.2758 32.0001C35.678 32.0001 36.8147 30.9389 36.8147 29.6298C36.8147 28.3206 35.678 27.2594 34.2758 27.2594C32.8735 27.2594 31.7368 28.3206 31.7368 29.6298C31.7368 30.9389 32.8735 32.0001 34.2758 32.0001Z" fill="#F7F1E1"/>
<path d="M34.2758 4.74074C35.678 4.74074 36.8147 3.67949 36.8147 2.37037C36.8147 1.06125 35.678 0 34.2758 0C32.8735 0 31.7368 1.06125 31.7368 2.37037C31.7368 3.67949 32.8735 4.74074 34.2758 4.74074Z" fill="#F7F1E1"/>
<path d="M66.0126 113.778C67.4149 113.778 68.5516 112.717 68.5516 111.408C68.5516 110.098 67.4149 109.037 66.0126 109.037C64.6104 109.037 63.4737 110.098 63.4737 111.408C63.4737 112.717 64.6104 113.778 66.0126 113.778Z" fill="#F7F1E1"/>
<path d="M66.0126 86.5186C67.4149 86.5186 68.5516 85.4574 68.5516 84.1483C68.5516 82.8391 67.4149 81.7779 66.0126 81.7779C64.6104 81.7779 63.4737 82.8391 63.4737 84.1483C63.4737 85.4574 64.6104 86.5186 66.0126 86.5186Z" fill="#F7F1E1"/>
<path d="M66.0126 59.2595C67.4149 59.2595 68.5516 58.1982 68.5516 56.8891C68.5516 55.58 67.4149 54.5187 66.0126 54.5187C64.6104 54.5187 63.4737 55.58 63.4737 56.8891C63.4737 58.1982 64.6104 59.2595 66.0126 59.2595Z" fill="#F7F1E1"/>
<path d="M66.0126 32.0001C67.4149 32.0001 68.5516 30.9389 68.5516 29.6298C68.5516 28.3206 67.4149 27.2594 66.0126 27.2594C64.6104 27.2594 63.4737 28.3206 63.4737 29.6298C63.4737 30.9389 64.6104 32.0001 66.0126 32.0001Z" fill="#F7F1E1"/>
<path d="M66.0126 4.74074C67.4149 4.74074 68.5516 3.67949 68.5516 2.37037C68.5516 1.06125 67.4149 0 66.0126 0C64.6104 0 63.4737 1.06125 63.4737 2.37037C63.4737 3.67949 64.6104 4.74074 66.0126 4.74074Z" fill="#F7F1E1"/>
<path d="M97.7495 113.778C99.1517 113.778 100.288 112.717 100.288 111.408C100.288 110.098 99.1517 109.037 97.7495 109.037C96.3473 109.037 95.2106 110.098 95.2106 111.408C95.2106 112.717 96.3473 113.778 97.7495 113.778Z" fill="#F7F1E1"/>
<path d="M97.7495 86.5186C99.1517 86.5186 100.288 85.4574 100.288 84.1483C100.288 82.8391 99.1517 81.7779 97.7495 81.7779C96.3473 81.7779 95.2106 82.8391 95.2106 84.1483C95.2106 85.4574 96.3473 86.5186 97.7495 86.5186Z" fill="#F7F1E1"/>
<path d="M97.7495 59.2595C99.1517 59.2595 100.288 58.1982 100.288 56.8891C100.288 55.58 99.1517 54.5187 97.7495 54.5187C96.3473 54.5187 95.2106 55.58 95.2106 56.8891C95.2106 58.1982 96.3473 59.2595 97.7495 59.2595Z" fill="#F7F1E1"/>
<path d="M97.7495 32.0001C99.1517 32.0001 100.288 30.9389 100.288 29.6298C100.288 28.3206 99.1517 27.2594 97.7495 27.2594C96.3473 27.2594 95.2106 28.3206 95.2106 29.6298C95.2106 30.9389 96.3473 32.0001 97.7495 32.0001Z" fill="#F7F1E1"/>
<path d="M97.7495 4.74074C99.1517 4.74074 100.288 3.67949 100.288 2.37037C100.288 1.06125 99.1517 0 97.7495 0C96.3473 0 95.2106 1.06125 95.2106 2.37037C95.2106 3.67949 96.3473 4.74074 97.7495 4.74074Z" fill="#F7F1E1"/>
<path d="M129.486 113.778C130.889 113.778 132.025 112.717 132.025 111.408C132.025 110.098 130.889 109.037 129.486 109.037C128.084 109.037 126.947 110.098 126.947 111.408C126.947 112.717 128.084 113.778 129.486 113.778Z" fill="#F7F1E1"/>
<path d="M129.486 86.5186C130.889 86.5186 132.025 85.4574 132.025 84.1483C132.025 82.8391 130.889 81.7779 129.486 81.7779C128.084 81.7779 126.947 82.8391 126.947 84.1483C126.947 85.4574 128.084 86.5186 129.486 86.5186Z" fill="#F7F1E1"/>
<path d="M129.486 59.2595C130.889 59.2595 132.025 58.1982 132.025 56.8891C132.025 55.58 130.889 54.5187 129.486 54.5187C128.084 54.5187 126.947 55.58 126.947 56.8891C126.947 58.1982 128.084 59.2595 129.486 59.2595Z" fill="#F7F1E1"/>
<path d="M129.486 32.0001C130.889 32.0001 132.025 30.9389 132.025 29.6298C132.025 28.3206 130.889 27.2594 129.486 27.2594C128.084 27.2594 126.947 28.3206 126.947 29.6298C126.947 30.9389 128.084 32.0001 129.486 32.0001Z" fill="#F7F1E1"/>
<path d="M129.486 4.74074C130.889 4.74074 132.025 3.67949 132.025 2.37037C132.025 1.06125 130.889 0 129.486 0C128.084 0 126.947 1.06125 126.947 2.37037C126.947 3.67949 128.084 4.74074 129.486 4.74074Z" fill="#F7F1E1"/>
<path d="M161.223 113.778C162.625 113.778 163.762 112.717 163.762 111.408C163.762 110.098 162.625 109.037 161.223 109.037C159.821 109.037 158.684 110.098 158.684 111.408C158.684 112.717 159.821 113.778 161.223 113.778Z" fill="#F7F1E1"/>
<path d="M161.223 86.5186C162.625 86.5186 163.762 85.4574 163.762 84.1483C163.762 82.8391 162.625 81.7779 161.223 81.7779C159.821 81.7779 158.684 82.8391 158.684 84.1483C158.684 85.4574 159.821 86.5186 161.223 86.5186Z" fill="#F7F1E1"/>
<path d="M161.223 59.2595C162.625 59.2595 163.762 58.1982 163.762 56.8891C163.762 55.58 162.625 54.5187 161.223 54.5187C159.821 54.5187 158.684 55.58 158.684 56.8891C158.684 58.1982 159.821 59.2595 161.223 59.2595Z" fill="#F7F1E1"/>
<path d="M161.223 32.0001C162.625 32.0001 163.762 30.9389 163.762 29.6298C163.762 28.3206 162.625 27.2594 161.223 27.2594C159.821 27.2594 158.684 28.3206 158.684 29.6298C158.684 30.9389 159.821 32.0001 161.223 32.0001Z" fill="#F7F1E1"/>
<path d="M161.223 4.74074C162.625 4.74074 163.762 3.67949 163.762 2.37037C163.762 1.06125 162.625 0 161.223 0C159.821 0 158.684 1.06125 158.684 2.37037C158.684 3.67949 159.821 4.74074 161.223 4.74074Z" fill="#F7F1E1"/>
<path d="M192.96 113.778C194.362 113.778 195.499 112.717 195.499 111.408C195.499 110.098 194.362 109.037 192.96 109.037C191.558 109.037 190.421 110.098 190.421 111.408C190.421 112.717 191.558 113.778 192.96 113.778Z" fill="#F7F1E1"/>
<path d="M192.96 86.5186C194.362 86.5186 195.499 85.4574 195.499 84.1483C195.499 82.8391 194.362 81.7779 192.96 81.7779C191.558 81.7779 190.421 82.8391 190.421 84.1483C190.421 85.4574 191.558 86.5186 192.96 86.5186Z" fill="#F7F1E1"/>
<path d="M192.96 59.2595C194.362 59.2595 195.499 58.1982 195.499 56.8891C195.499 55.58 194.362 54.5187 192.96 54.5187C191.558 54.5187 190.421 55.58 190.421 56.8891C190.421 58.1982 191.558 59.2595 192.96 59.2595Z" fill="#F7F1E1"/>
<path d="M192.96 32.0001C194.362 32.0001 195.499 30.9389 195.499 29.6298C195.499 28.3206 194.362 27.2594 192.96 27.2594C191.558 27.2594 190.421 28.3206 190.421 29.6298C190.421 30.9389 191.558 32.0001 192.96 32.0001Z" fill="#F7F1E1"/>
<path d="M192.96 4.74074C194.362 4.74074 195.499 3.67949 195.499 2.37037C195.499 1.06125 194.362 0 192.96 0C191.558 0 190.421 1.06125 190.421 2.37037C190.421 3.67949 191.558 4.74074 192.96 4.74074Z" fill="#F7F1E1"/>
<path d="M224.697 113.778C226.099 113.778 227.236 112.717 227.236 111.408C227.236 110.098 226.099 109.037 224.697 109.037C223.295 109.037 222.158 110.098 222.158 111.408C222.158 112.717 223.295 113.778 224.697 113.778Z" fill="#F7F1E1"/>
<path d="M224.697 86.5186C226.099 86.5186 227.236 85.4574 227.236 84.1483C227.236 82.8391 226.099 81.7779 224.697 81.7779C223.295 81.7779 222.158 82.8391 222.158 84.1483C222.158 85.4574 223.295 86.5186 224.697 86.5186Z" fill="#F7F1E1"/>
<path d="M224.697 59.2595C226.099 59.2595 227.236 58.1982 227.236 56.8891C227.236 55.58 226.099 54.5187 224.697 54.5187C223.295 54.5187 222.158 55.58 222.158 56.8891C222.158 58.1982 223.295 59.2595 224.697 59.2595Z" fill="#F7F1E1"/>
<path d="M224.697 32.0001C226.099 32.0001 227.236 30.9389 227.236 29.6298C227.236 28.3206 226.099 27.2594 224.697 27.2594C223.295 27.2594 222.158 28.3206 222.158 29.6298C222.158 30.9389 223.295 32.0001 224.697 32.0001Z" fill="#F7F1E1"/>
<path d="M224.697 4.74074C226.099 4.74074 227.236 3.67949 227.236 2.37037C227.236 1.06125 226.099 0 224.697 0C223.295 0 222.158 1.06125 222.158 2.37037C222.158 3.67949 223.295 4.74074 224.697 4.74074Z" fill="#F7F1E1"/>
<path d="M256.434 113.778C257.836 113.778 258.973 112.717 258.973 111.408C258.973 110.098 257.836 109.037 256.434 109.037C255.032 109.037 253.895 110.098 253.895 111.408C253.895 112.717 255.032 113.778 256.434 113.778Z" fill="#F7F1E1"/>
<path d="M256.434 86.5186C257.836 86.5186 258.973 85.4574 258.973 84.1483C258.973 82.8391 257.836 81.7779 256.434 81.7779C255.032 81.7779 253.895 82.8391 253.895 84.1483C253.895 85.4574 255.032 86.5186 256.434 86.5186Z" fill="#F7F1E1"/>
<path d="M256.434 59.2595C257.836 59.2595 258.973 58.1982 258.973 56.8891C258.973 55.58 257.836 54.5187 256.434 54.5187C255.032 54.5187 253.895 55.58 253.895 56.8891C253.895 58.1982 255.032 59.2595 256.434 59.2595Z" fill="#F7F1E1"/>
<path d="M256.434 32.0001C257.836 32.0001 258.973 30.9389 258.973 29.6298C258.973 28.3206 257.836 27.2594 256.434 27.2594C255.032 27.2594 253.895 28.3206 253.895 29.6298C253.895 30.9389 255.032 32.0001 256.434 32.0001Z" fill="#F7F1E1"/>
<path d="M256.434 4.74074C257.836 4.74074 258.973 3.67949 258.973 2.37037C258.973 1.06125 257.836 0 256.434 0C255.032 0 253.895 1.06125 253.895 2.37037C253.895 3.67949 255.032 4.74074 256.434 4.74074Z" fill="#F7F1E1"/>
<path d="M288.171 113.778C289.573 113.778 290.709 112.717 290.709 111.408C290.709 110.098 289.573 109.037 288.171 109.037C286.768 109.037 285.632 110.098 285.632 111.408C285.632 112.717 286.768 113.778 288.171 113.778Z" fill="#F7F1E1"/>
<path d="M288.171 86.5186C289.573 86.5186 290.709 85.4574 290.709 84.1483C290.709 82.8391 289.573 81.7779 288.171 81.7779C286.768 81.7779 285.632 82.8391 285.632 84.1483C285.632 85.4574 286.768 86.5186 288.171 86.5186Z" fill="#F7F1E1"/>
<path d="M288.171 59.2595C289.573 59.2595 290.709 58.1982 290.709 56.8891C290.709 55.58 289.573 54.5187 288.171 54.5187C286.768 54.5187 285.632 55.58 285.632 56.8891C285.632 58.1982 286.768 59.2595 288.171 59.2595Z" fill="#F7F1E1"/>
<path d="M288.171 32.0001C289.573 32.0001 290.709 30.9389 290.709 29.6298C290.709 28.3206 289.573 27.2594 288.171 27.2594C286.768 27.2594 285.632 28.3206 285.632 29.6298C285.632 30.9389 286.768 32.0001 288.171 32.0001Z" fill="#F7F1E1"/>
<path d="M288.171 4.74074C289.573 4.74074 290.709 3.67949 290.709 2.37037C290.709 1.06125 289.573 0 288.171 0C286.768 0 285.632 1.06125 285.632 2.37037C285.632 3.67949 286.768 4.74074 288.171 4.74074Z" fill="#F7F1E1"/>
<path d="M319.907 113.778C321.31 113.778 322.446 112.717 322.446 111.408C322.446 110.098 321.31 109.037 319.907 109.037C318.505 109.037 317.368 110.098 317.368 111.408C317.368 112.717 318.505 113.778 319.907 113.778Z" fill="#F7F1E1"/>
<path d="M319.907 86.5186C321.31 86.5186 322.446 85.4574 322.446 84.1483C322.446 82.8391 321.31 81.7779 319.907 81.7779C318.505 81.7779 317.368 82.8391 317.368 84.1483C317.368 85.4574 318.505 86.5186 319.907 86.5186Z" fill="#F7F1E1"/>
<path d="M319.907 59.2595C321.31 59.2595 322.446 58.1982 322.446 56.8891C322.446 55.58 321.31 54.5187 319.907 54.5187C318.505 54.5187 317.368 55.58 317.368 56.8891C317.368 58.1982 318.505 59.2595 319.907 59.2595Z" fill="#F7F1E1"/>
<path d="M319.907 32.0001C321.31 32.0001 322.446 30.9389 322.446 29.6298C322.446 28.3206 321.31 27.2594 319.907 27.2594C318.505 27.2594 317.368 28.3206 317.368 29.6298C317.368 30.9389 318.505 32.0001 319.907 32.0001Z" fill="#F7F1E1"/>
<path d="M319.907 4.74074C321.31 4.74074 322.446 3.67949 322.446 2.37037C322.446 1.06125 321.31 0 319.907 0C318.505 0 317.368 1.06125 317.368 2.37037C317.368 3.67949 318.505 4.74074 319.907 4.74074Z" fill="#F7F1E1"/>
<path d="M351.644 113.778C353.047 113.778 354.183 112.717 354.183 111.408C354.183 110.098 353.047 109.037 351.644 109.037C350.242 109.037 349.105 110.098 349.105 111.408C349.105 112.717 350.242 113.778 351.644 113.778Z" fill="#F7F1E1"/>
<path d="M351.644 86.5186C353.047 86.5186 354.183 85.4574 354.183 84.1483C354.183 82.8391 353.047 81.7779 351.644 81.7779C350.242 81.7779 349.105 82.8391 349.105 84.1483C349.105 85.4574 350.242 86.5186 351.644 86.5186Z" fill="#F7F1E1"/>
<path d="M351.644 59.2595C353.047 59.2595 354.183 58.1982 354.183 56.8891C354.183 55.58 353.047 54.5187 351.644 54.5187C350.242 54.5187 349.105 55.58 349.105 56.8891C349.105 58.1982 350.242 59.2595 351.644 59.2595Z" fill="#F7F1E1"/>
<path d="M351.644 32.0001C353.047 32.0001 354.183 30.9389 354.183 29.6298C354.183 28.3206 353.047 27.2594 351.644 27.2594C350.242 27.2594 349.105 28.3206 349.105 29.6298C349.105 30.9389 350.242 32.0001 351.644 32.0001Z" fill="#F7F1E1"/>
<path d="M351.644 4.74074C353.047 4.74074 354.183 3.67949 354.183 2.37037C354.183 1.06125 353.047 0 351.644 0C350.242 0 349.105 1.06125 349.105 2.37037C349.105 3.67949 350.242 4.74074 351.644 4.74074Z" fill="#F7F1E1"/>
<path d="M383.381 113.778C384.783 113.778 385.92 112.717 385.92 111.408C385.92 110.098 384.783 109.037 383.381 109.037C381.979 109.037 380.842 110.098 380.842 111.408C380.842 112.717 381.979 113.778 383.381 113.778Z" fill="#F7F1E1"/>
<path d="M383.381 86.5186C384.783 86.5186 385.92 85.4574 385.92 84.1483C385.92 82.8391 384.783 81.7779 383.381 81.7779C381.979 81.7779 380.842 82.8391 380.842 84.1483C380.842 85.4574 381.979 86.5186 383.381 86.5186Z" fill="#F7F1E1"/>
<path d="M383.381 59.2595C384.783 59.2595 385.92 58.1982 385.92 56.8891C385.92 55.58 384.783 54.5187 383.381 54.5187C381.979 54.5187 380.842 55.58 380.842 56.8891C380.842 58.1982 381.979 59.2595 383.381 59.2595Z" fill="#F7F1E1"/>
<path d="M383.381 32.0001C384.783 32.0001 385.92 30.9389 385.92 29.6298C385.92 28.3206 384.783 27.2594 383.381 27.2594C381.979 27.2594 380.842 28.3206 380.842 29.6298C380.842 30.9389 381.979 32.0001 383.381 32.0001Z" fill="#F7F1E1"/>
<path d="M383.381 4.74074C384.783 4.74074 385.92 3.67949 385.92 2.37037C385.92 1.06125 384.783 0 383.381 0C381.979 0 380.842 1.06125 380.842 2.37037C380.842 3.67949 381.979 4.74074 383.381 4.74074Z" fill="#F7F1E1"/>
</svg>
