<svg width="1440" height="939" viewBox="0 0 1440 939" fill="none" xmlns="http://www.w3.org/2000/svg">
<g filter="url(#filter0_f_7_2116)">
<mask id="mask0_7_2116" style="mask-type:luminance" maskUnits="userSpaceOnUse" x="-53" y="0" width="1532" height="939">
<path d="M1479 0H-53V939H1479V0Z" fill="white"/>
</mask>
<g mask="url(#mask0_7_2116)">
<path d="M-86.4486 -29.5785C-36.2756 -20.0711 15.3017 -21.4796 66.3683 -18.5453C121.52 -15.3761 182.545 -4.81239 227.356 26.9962C280.082 64.4389 284.295 128.173 253.783 180.053C226.079 227.238 177.183 257.403 137.989 295.198C111.307 320.903 86.029 355.294 80.667 391.328C72.3687 446.142 133.01 486.871 176.162 436.87C195.822 414.099 202.078 384.051 219.696 359.989C238.591 334.167 264.89 312.922 295.402 299.306C326.936 285.221 362.427 279.822 397.28 282.522C430.474 285.221 457.667 302.593 490.732 306.818C515.5 309.987 542.82 305.644 561.077 289.916C595.547 260.455 591.206 203.176 586.738 164.09C580.865 114.088 563.119 65.1431 534.777 22.0665C506.308 -21.3623 462.39 -51.8798 430.729 -92.8436C409.281 -120.779 395.238 -156.461 405.834 -189.326L-86.4486 -29.5785Z" fill="#123622" fill-opacity="0.67"/>
</g>
</g>
<g filter="url(#filter1_f_7_2116)">
<mask id="mask1_7_2116" style="mask-type:luminance" maskUnits="userSpaceOnUse" x="-53" y="0" width="1532" height="939">
<path d="M1479 0H-53V939H1479V0Z" fill="white"/>
</mask>
<g mask="url(#mask1_7_2116)">
<path d="M327.319 485.111C356.044 498.961 395.876 503.069 421.92 512.811C546.012 559.409 442.347 725.612 506.435 806.953C541.671 851.79 608.696 863.176 668.827 864.115C728.958 865.054 792.153 859.537 846.539 883.13C905.904 908.835 944.843 969.87 940.247 1030.08L939.864 1029.61C999.356 997.687 1052.85 966.935 1104.3 924.798C1155.75 882.777 1198.9 829.606 1215.88 768.219C1232.86 706.832 1220.6 636.759 1174 590.044C1131.62 547.554 1066.76 528.187 1005.1 529.948C933.48 531.943 865.179 564.926 792.919 548.141C741.597 536.286 698.191 506.473 669.338 465.744C625.165 403.3 544.608 371.609 465.837 366.914C427.793 364.684 385.28 363.98 348.512 374.896C327.191 381.351 307.02 393.793 297.062 412.338C282.125 440.626 298.849 471.378 327.319 485.111Z" fill="#123622" fill-opacity="0.67"/>
</g>
</g>
<mask id="mask2_7_2116" style="mask-type:luminance" maskUnits="userSpaceOnUse" x="-53" y="0" width="1532" height="939">
<path d="M1479 0H-53V939H1479V0Z" fill="white"/>
</mask>
<g mask="url(#mask2_7_2116)">
<path d="M-238.372 -29.3437C-189.731 -75.5895 -101.386 -78.0544 -49.2977 -34.6256C5.08834 10.7985 14.1527 89.205 64.8363 138.15C113.477 185.1 190.333 194.96 259.911 189.795C329.489 184.631 398.046 167.142 467.752 170.311C537.458 173.48 612.526 203.998 638.698 264.563C661.295 317.03 642.017 375.717 630.783 431.118C619.676 486.519 621.974 554.01 671.381 586.758C729.469 625.374 803.005 592.157 866.328 588.87C973.823 583.471 1081.7 629.13 1141.07 712.701C1201.71 797.915 1206.3 914.938 1152.56 1003.56" stroke="#428C65" stroke-width="2" stroke-miterlimit="10"/>
<path d="M-224.201 -37.9121C-174.794 -82.1625 -87.47 -83.6884 -35.382 -40.7291C7.131 -5.75139 23.0893 48.7106 51.559 94.3695C59.7297 107.398 68.794 119.722 79.7733 130.638C127.648 177.94 201.44 190.03 267.699 187.683C313.02 186.039 357.576 178.997 402.132 176.297C422.814 175.006 443.368 174.771 464.178 176.649C490.605 178.997 518.181 185.57 543.842 196.251C582.142 212.214 615.59 236.98 632.187 271.958C636.528 280.996 639.464 290.151 641.507 299.541C650.826 342.735 638.443 389.685 630.527 434.992C629.251 442.152 628.229 449.546 627.336 457.058C622.101 507.177 627.974 561.17 668.444 590.396C675.466 595.443 682.615 599.317 690.148 602.251C718.617 613.636 750.151 611.876 782.195 607.65C807.856 604.247 833.9 599.082 858.54 598.026C864.54 597.791 870.541 597.674 876.541 597.674C909.096 597.791 941.523 602.134 972.419 610.702C1037.27 628.895 1095.23 666.338 1133.53 719.274C1145.28 735.472 1154.98 752.961 1162.51 771.154C1194.43 847.682 1189.07 937.709 1145.53 1008.96" stroke="#428C65" stroke-width="2" stroke-miterlimit="10"/>
<path d="M-209.902 -46.4805C-159.857 -88.6181 -73.5543 -89.3224 -21.3386 -46.8326C21.302 -12.3244 38.2817 41.316 66.879 86.8575C75.0497 99.7687 83.9863 112.093 94.838 123.126C141.819 170.898 212.802 185.1 275.742 185.57C318.765 185.805 360.768 180.992 402.515 180.053C421.92 179.584 441.198 180.171 460.858 182.753C485.753 186.039 511.925 193.551 537.075 204.702C574.482 221.487 608.441 245.431 626.059 279.118C630.655 287.803 633.974 296.724 636.272 305.762C647.252 347.547 637.294 393.558 630.527 438.748C629.506 445.908 628.485 453.302 627.846 460.814C623.378 510.933 627.719 564.339 666.019 594.152C672.53 599.317 679.424 603.308 686.573 606.477C713.638 618.684 744.023 618.214 775.301 615.28C800.452 612.815 826.496 608.237 851.135 607.298C857.136 607.064 863.136 606.946 869.136 606.946C901.564 607.064 933.863 610.937 964.759 619.271C1029.49 636.642 1087.7 673.615 1126.26 726.082C1138.13 742.162 1147.83 759.416 1155.49 777.609C1187.79 853.786 1182.56 943.695 1138.77 1014.59" stroke="#428C65" stroke-width="2" stroke-miterlimit="10"/>
<path d="M-195.604 -55.0489C-144.792 -95.0738 -59.6387 -94.839 -7.29534 -52.9361C35.473 -18.78 53.6017 33.9214 82.0713 79.2281C90.242 92.1394 99.1786 104.464 109.775 115.497C155.863 163.621 223.909 180.053 283.529 183.34C324.255 185.453 363.704 182.87 402.642 183.809C420.771 184.161 438.772 185.57 457.156 188.974C480.519 193.317 505.414 201.65 529.926 213.27C566.566 230.759 600.781 253.882 619.42 286.395C624.272 294.729 627.846 303.297 630.527 311.983C643.166 352.36 635.506 397.432 630.017 442.504C629.123 449.664 628.357 456.941 627.846 464.453C624.272 514.455 627.08 567.273 662.955 597.791C669.083 603.073 675.594 607.181 682.232 610.585C707.766 623.496 737.001 624.552 767.769 622.674C792.409 621.266 818.453 617.158 842.965 616.336C848.965 616.101 854.965 616.101 860.838 616.101C893.265 616.219 925.437 619.74 956.205 627.604C1020.93 644.154 1079.4 680.658 1118.09 732.537C1129.96 748.5 1139.92 765.637 1147.58 783.713C1180.13 859.42 1175.03 949.329 1131.24 1019.99" stroke="#428C65" stroke-width="2" stroke-miterlimit="10"/>
<path d="M-181.305 -63.6172C-129.855 -101.529 -45.723 -100.473 6.87568 -59.0396C49.7717 -25.2356 68.9217 26.5268 97.519 71.7161C105.69 84.6274 114.499 96.8344 124.967 107.985C170.289 156.461 235.271 175.124 291.572 181.227C330.128 185.218 367.023 184.983 403.025 187.565C419.877 188.739 436.474 190.852 453.837 195.077C475.795 200.359 499.286 209.632 523.287 221.721C559.162 239.915 593.759 262.333 613.292 293.555C618.399 301.654 622.229 309.87 625.293 318.204C639.592 357.172 634.357 401.423 630.017 446.26C629.251 453.302 628.74 460.58 628.357 468.092C625.676 518.093 626.825 570.208 660.529 601.43C666.274 606.711 672.402 611.172 678.658 614.693C702.787 628.308 730.873 630.773 760.875 630.186C784.876 629.717 811.048 626.196 835.56 625.609C841.56 625.491 847.561 625.374 853.433 625.374C885.733 625.609 917.777 628.543 948.673 636.055C1013.4 651.783 1072 687.7 1110.94 739.228C1122.94 755.073 1132.9 772.093 1140.68 790.051C1173.62 865.406 1168.51 955.08 1124.6 1025.51" stroke="#428C65" stroke-width="2" stroke-miterlimit="10"/>
<path d="M-167.006 -72.1856C-114.791 -108.102 -31.8073 -105.99 20.919 -65.1431C63.9427 -31.8086 84.2417 19.1321 112.839 64.0868C121.01 76.8806 129.819 89.0876 140.032 100.356C184.46 149.301 246.634 170.194 299.615 178.997C335.873 184.983 370.215 186.861 403.536 191.321C419.111 193.317 434.431 196.251 450.517 201.298C470.944 207.636 493.03 217.731 516.521 230.29C551.502 249.187 586.482 270.902 607.164 300.832C612.526 308.579 616.739 316.443 620.186 324.425C636.145 361.985 633.336 405.296 630.144 450.016C629.634 457.058 629.251 464.336 628.868 471.73C627.08 521.615 626.697 573.142 658.103 604.951C663.465 610.35 669.083 614.928 675.083 618.684C697.808 633.003 724.618 636.877 754.109 637.464C777.599 637.933 803.771 634.999 828.283 634.529C834.283 634.412 840.156 634.412 846.156 634.412C878.328 634.647 910.373 637.229 941.14 644.271C1005.74 659.178 1064.59 694.625 1103.92 745.683C1116.04 761.412 1126 778.314 1133.92 796.155C1167.24 871.157 1162.13 960.714 1118.09 1030.79" stroke="#428C65" stroke-width="2" stroke-miterlimit="10"/>
<path d="M-152.835 -80.754C-99.9813 -114.558 -18.0193 -111.624 34.8347 -71.2466C78.1137 -38.2642 99.434 11.7375 128.031 56.5748C136.202 69.3686 144.883 81.5756 154.969 92.8436C198.503 142.141 257.741 165.264 307.403 176.767C341.362 184.748 373.024 188.856 403.664 194.96C417.962 197.894 432.006 201.533 446.815 207.284C465.71 214.679 486.519 225.595 509.372 238.741C543.586 258.46 578.822 279.353 600.526 307.992C606.143 315.387 610.611 323.016 614.441 330.645C632.059 366.797 631.676 409.287 629.761 453.654C629.506 460.697 629.123 467.857 628.995 475.251C627.974 525.018 626.059 575.959 655.167 608.472C660.146 613.989 665.38 618.684 670.998 622.674C692.318 637.816 717.979 643.098 746.704 644.858C769.684 646.267 795.728 643.919 820.24 643.685C826.24 643.567 832.113 643.567 837.986 643.685C870.03 643.919 901.947 646.032 932.714 652.722C997.314 666.807 1056.42 701.785 1095.87 752.374C1108 767.985 1118.21 784.769 1126.13 802.493C1159.71 877.026 1154.73 966.583 1110.55 1036.3" stroke="#428C65" stroke-width="2" stroke-miterlimit="10"/>
<path d="M-138.537 -89.4398C-84.9166 -121.131 -3.97597 -117.258 48.878 -77.4675C92.2847 -44.9546 114.626 4.2255 143.351 48.828C151.522 61.5045 160.203 73.8289 170.034 85.0969C212.802 134.864 268.975 160.1 315.446 174.419C347.107 184.279 376.215 190.617 404.047 198.599C417.069 202.355 429.835 206.815 443.496 213.388C460.858 221.721 480.264 233.576 502.605 247.192C536.054 267.615 571.673 287.804 594.27 315.152C600.143 322.194 604.994 329.472 609.079 336.866C628.485 371.609 630.4 413.16 629.634 457.41C629.506 464.336 629.378 471.613 629.378 478.89C629.251 528.657 625.804 578.776 652.614 612.111C657.21 617.745 662.061 622.557 667.295 626.782C687.084 642.628 711.596 649.318 739.81 652.253C762.279 654.6 788.323 652.84 812.835 652.722C818.836 652.722 824.708 652.722 830.581 652.722C862.625 652.957 894.414 654.718 925.054 661.056C989.654 674.319 1048.89 708.828 1088.6 758.947C1100.85 774.323 1111.06 791.107 1119.24 808.714C1153.19 882.895 1148.22 972.334 1103.92 1041.7" stroke="#1E3A2B" stroke-width="2" stroke-miterlimit="10"/>
<path d="M-124.238 -98.0081C-69.9797 -127.704 9.93969 -122.892 63.049 -83.571C106.583 -51.4103 130.074 -3.16912 158.799 41.1986C166.97 53.8751 175.523 66.1995 185.098 77.5849C226.973 127.704 280.21 155.17 323.361 172.306C352.725 184.044 379.152 192.612 404.43 202.354C416.047 206.815 427.665 212.214 440.049 219.491C455.879 228.881 474.008 241.558 495.839 255.643C528.522 276.77 564.396 296.254 588.142 322.312C594.27 329.119 599.377 335.927 603.845 342.97C624.91 376.422 629.251 416.916 629.634 461.049C629.761 467.974 629.761 475.134 629.761 482.411C630.4 532.061 625.548 581.593 649.933 615.632C654.018 621.383 658.614 626.43 663.465 630.773C681.849 647.323 705.212 655.422 732.661 659.647C754.619 662.934 780.663 661.76 805.175 661.76C811.176 661.76 817.048 661.76 822.793 661.878C854.71 662.112 886.371 663.403 917.139 669.39C981.611 681.949 1041.1 715.87 1081.19 765.402C1093.57 780.661 1103.92 797.328 1112.09 814.817C1146.43 888.646 1141.45 977.851 1097.15 1046.99" stroke="#326349" stroke-width="2" stroke-miterlimit="10"/>
<path d="M-109.939 -106.577C-54.915 -134.16 23.8554 -128.408 77.0924 -89.6745C120.754 -57.9832 145.394 -10.5637 174.119 33.6866C182.29 46.3631 190.843 58.5701 200.163 70.0729C241.144 120.544 291.445 150.24 331.404 170.194C358.597 183.809 382.216 194.608 404.813 206.11C415.154 211.392 425.495 217.496 436.602 225.712C450.9 236.158 467.625 249.657 488.945 264.211C520.734 286.043 557.119 304.823 581.759 329.472C588.142 335.927 593.632 342.5 598.355 349.191C621.208 381.234 627.719 420.907 629.378 464.805C629.634 471.73 629.761 478.773 630.017 486.167C631.549 535.817 625.038 584.645 647.252 619.388C650.954 625.257 655.039 630.421 659.635 634.999C676.615 652.253 698.829 661.76 725.511 667.277C746.959 671.62 773.003 670.915 797.515 671.15C803.388 671.15 809.388 671.268 815.133 671.268C846.922 671.62 878.584 672.441 909.224 677.958C973.695 689.695 1033.44 723.03 1073.66 772.21C1086.04 787.351 1096.51 803.901 1104.81 821.273C1139.53 894.632 1134.56 983.837 1090.13 1052.62" stroke="#0C311D" stroke-width="2" stroke-miterlimit="10"/>
<path d="M-95.7683 -115.145C-40.1057 -140.615 37.6433 -134.042 91.008 -95.778C134.798 -64.4389 160.459 -17.9584 189.311 26.0573C197.61 38.6164 205.908 50.9408 215.1 62.4435C255.315 113.384 302.552 145.193 339.192 167.964C364.087 183.457 385.024 196.368 404.94 209.867C413.877 215.97 423.069 222.895 433.027 231.816C445.794 243.201 461.241 257.638 481.923 272.662C512.946 295.316 549.587 313.157 575.248 336.632C581.886 342.735 587.759 348.956 592.866 355.294C617.505 385.929 626.314 424.663 629.251 468.444C629.634 475.251 630.017 482.411 630.4 489.689C632.698 539.221 624.782 587.344 644.571 622.792C647.89 628.778 651.592 634.06 655.805 638.872C671.253 656.83 692.318 667.864 718.49 674.437C739.427 679.719 765.471 679.601 789.855 679.953C795.728 680.071 801.601 680.071 807.346 680.188C839.007 680.54 870.541 680.892 901.181 686.057C965.652 696.973 1025.53 729.838 1066 778.548C1078.51 793.572 1089.11 809.887 1097.4 827.259C1132.39 900.266 1127.53 989.354 1082.98 1057.78" stroke="#34644A" stroke-width="2" stroke-miterlimit="10"/>
<path d="M-81.4697 -123.713C-25.041 -147.188 51.559 -139.559 105.051 -101.881C148.969 -71.0119 175.779 -25.353 204.631 18.5452C212.93 31.1044 221.228 43.3114 230.165 54.9315C269.486 106.224 313.914 140.146 347.107 165.851C369.704 183.34 388.088 198.246 405.323 213.623C412.983 220.43 420.771 228.294 429.58 238.037C440.942 250.478 454.986 265.737 475.029 281.231C505.286 304.588 542.31 321.725 568.992 343.909C575.886 349.66 582.014 355.646 587.504 361.632C613.931 390.859 625.038 428.771 629.123 472.317C629.761 479.125 630.272 486.167 630.655 493.445C633.847 542.977 624.399 590.396 641.89 626.548C644.826 632.534 648.145 638.051 651.975 643.098C666.019 661.76 685.935 674.202 711.34 682.066C731.767 688.287 757.683 688.757 782.195 689.343C788.068 689.461 793.941 689.578 799.686 689.578C831.347 689.93 862.753 689.93 893.393 694.625C957.737 704.72 1017.87 737.115 1058.59 785.356C1071.23 800.263 1081.83 816.461 1090.26 833.715C1125.62 906.37 1120.77 995.223 1076.08 1063.42" stroke="#0C311D" stroke-width="2" stroke-miterlimit="10"/>
<path d="M-67.171 -132.282C-10.104 -153.644 65.4747 -145.193 119.222 -107.985C163.395 -77.4675 191.226 -32.7477 220.079 10.9158C228.377 23.3576 236.548 35.682 245.357 47.3021C283.785 98.9471 325.276 135.099 355.278 163.621C375.577 182.988 391.28 200.007 405.834 217.378C412.217 224.89 418.728 233.694 426.388 244.14C436.219 257.638 448.858 273.718 468.518 289.681C498.009 313.743 535.416 330.176 562.992 351.069C570.269 356.585 576.652 362.102 582.397 367.853C610.611 395.671 624.016 432.644 629.251 476.073C630.017 482.881 630.655 489.806 631.293 497.083C635.379 546.498 624.399 593.213 639.464 630.186C642.017 636.29 644.954 641.924 648.401 647.206C661.04 666.455 679.679 680.423 704.574 689.461C724.49 696.621 750.406 697.677 774.918 698.381C780.791 698.499 786.664 698.616 792.409 698.733C823.942 699.085 855.221 698.616 885.861 703.076C950.205 712.349 1010.59 744.275 1051.57 792.046C1064.21 806.836 1074.93 822.916 1083.49 840.053C1119.24 912.238 1114.38 1001.09 1069.7 1068.93" stroke="#1E3A2B" stroke-width="2" stroke-miterlimit="10"/>
<path d="M-52.8723 -140.85C4.96066 -160.1 79.518 -150.709 133.266 -114.088C177.566 -83.9231 206.419 -40.1423 235.399 3.2865C243.697 15.7282 251.868 27.9352 260.422 39.6727C298.083 91.7873 336.511 130.051 363.193 161.391C381.322 182.636 394.216 201.65 406.089 221.017C411.196 229.351 416.43 238.976 422.814 250.244C431.112 264.798 442.474 281.7 461.497 298.133C490.094 322.899 527.883 338.627 556.481 358.229C564.013 363.393 570.652 368.675 576.78 373.957C606.781 400.249 622.357 436.4 628.868 479.594C629.889 486.285 630.655 493.327 631.421 500.487C636.4 549.785 623.889 595.913 636.655 633.59C638.826 639.811 641.251 645.563 644.315 651.079C655.55 671.033 673.04 686.526 697.169 696.738C716.447 704.837 742.491 706.48 766.875 707.419C772.748 707.654 778.621 707.771 784.238 707.771C815.644 708.123 846.922 707.302 877.435 711.293C941.779 719.744 1002.29 751.2 1043.53 798.502C1056.3 813.174 1067.15 829.137 1075.7 846.274C1111.83 918.107 1107.11 1006.84 1062.17 1074.33" stroke="#0C311D" stroke-width="2" stroke-miterlimit="10"/>
<path d="M-38.7013 -149.418C19.77 -166.555 93.306 -156.343 147.181 -120.192C191.609 -90.4961 221.611 -47.5369 250.591 -4.22551C258.89 8.21624 266.933 20.4232 275.359 32.1607C312.127 84.6274 347.618 125.122 371.109 159.278C386.939 182.401 397.408 203.411 406.472 224.891C410.302 233.811 414.26 244.492 419.367 256.464C426.133 272.075 436.091 289.916 454.603 306.701C482.434 332.289 520.606 347.078 550.097 365.506C557.885 370.318 564.907 375.248 571.29 380.295C603.079 405.179 620.952 440.508 628.612 483.468C629.761 490.158 630.783 497.083 631.676 504.243C637.421 553.54 623.506 598.847 633.847 637.229C635.506 643.567 637.677 649.436 640.358 655.187C650.188 675.845 666.529 692.747 690.02 704.133C708.787 713.288 734.831 715.401 759.215 716.457C765.088 716.692 770.961 716.809 776.578 716.927C807.856 717.396 839.007 715.987 869.647 719.626C933.863 727.255 994.633 758.125 1036.12 804.958C1049.02 819.395 1059.87 835.358 1068.55 852.377C1104.94 923.859 1100.34 1012.48 1055.27 1079.62" stroke="#0C311D" stroke-width="2" stroke-miterlimit="10"/>
<path d="M-24.4026 -157.987C34.8347 -173.128 107.222 -161.86 161.225 -126.296C205.78 -96.9518 236.931 -54.9315 265.911 -11.8549C274.21 0.469502 282.253 12.7939 290.296 24.6488C326.17 77.4675 358.853 120.075 378.896 157.165C392.429 182.166 400.344 205.172 406.6 228.647C409.153 238.389 411.707 249.891 415.792 262.685C421.026 279.235 429.708 298.015 447.709 315.269C474.774 341.561 513.202 355.646 543.842 372.783C551.885 377.243 559.289 381.821 566.056 386.516C599.632 409.991 619.676 444.382 628.74 487.224C630.144 493.914 631.293 500.839 632.187 507.882C638.826 557.062 623.378 601.782 631.421 640.867C632.698 647.323 634.485 653.427 636.783 659.295C645.209 680.658 660.274 698.968 683.126 711.645C701.382 721.739 727.299 724.439 751.811 725.612C757.683 725.847 763.428 726.082 769.046 726.082C800.196 726.551 831.219 724.791 861.859 727.96C926.076 734.768 987.1 765.168 1028.72 811.531C1041.61 825.851 1052.72 841.696 1061.4 858.598C1098.17 929.61 1093.57 1018.11 1048.38 1085.01" stroke="#0C311D" stroke-width="2" stroke-miterlimit="10"/>
<path d="M-10.104 -166.555C49.7716 -179.584 121.137 -167.494 175.396 -132.399C220.079 -103.525 252.251 -62.3261 281.231 -19.3669C289.53 -7.04251 297.445 5.16449 305.36 17.1367C340.469 70.425 370.087 115.145 386.939 155.052C398.302 181.931 403.791 206.932 406.983 232.52C408.26 242.966 409.536 255.408 412.345 268.906C416.047 286.512 423.324 306.114 440.815 323.955C467.114 350.951 505.925 364.332 537.458 380.178C545.757 384.403 553.417 388.629 560.566 392.971C595.93 414.921 618.271 448.49 628.485 491.214C630.017 497.787 631.293 504.712 632.442 511.872C639.975 561.052 622.995 604.951 628.74 644.858C629.634 651.314 631.038 657.652 632.953 663.756C639.975 685.822 653.89 705.541 676.104 719.391C693.85 730.425 719.766 733.711 744.151 735.12C750.023 735.472 755.768 735.589 761.386 735.706C792.536 736.176 823.432 733.946 853.944 736.763C918.16 742.749 979.313 772.68 1021.31 818.573C1034.34 832.776 1045.44 848.504 1054.25 865.288C1091.4 935.948 1086.81 1024.33 1041.49 1090.88" stroke="#0C311D" stroke-width="2" stroke-miterlimit="10"/>
<path d="M4.19467 -175.124C64.8363 -186.039 135.053 -173.011 189.439 -138.503C234.378 -109.98 267.571 -69.7208 296.551 -26.9963C304.85 -14.7893 312.765 -2.46488 320.425 9.50737C354.64 63.1477 381.322 110.098 394.855 152.822C403.919 181.579 406.983 208.693 407.238 236.159C407.366 247.309 407.238 260.69 408.898 275.01C411.068 293.672 417.069 314.096 433.921 332.406C459.326 360.107 498.648 372.783 531.075 387.338C539.629 391.211 547.672 395.084 555.076 399.192C592.355 419.733 616.867 452.481 628.229 494.97C630.017 501.543 631.421 508.351 632.698 515.511C641.251 564.574 622.612 607.885 625.931 648.497C626.442 655.07 627.463 661.526 628.995 667.864C634.613 690.635 647.252 711.879 668.827 726.903C686.062 738.876 711.979 742.749 736.363 744.275C742.236 744.627 747.981 744.862 753.598 744.862C784.621 745.331 815.389 742.749 846.029 745.214C910.117 750.378 971.525 779.839 1013.78 825.264C1026.93 839.349 1038.17 854.959 1046.98 871.627C1084.51 941.817 1079.91 1030.2 1034.59 1096.4" stroke="#0C311D" stroke-width="2" stroke-miterlimit="10"/>
<path d="M18.4933 -183.692C79.7733 -192.612 149.096 -178.645 203.482 -144.606C248.549 -116.553 282.891 -77.1154 311.871 -34.5083C320.17 -22.3013 327.957 -10.0943 335.49 1.99535C368.811 56.1052 392.684 105.051 402.77 150.709C409.536 181.344 410.302 210.571 407.621 240.032C406.6 251.887 404.94 266.206 405.451 281.23C406.089 300.949 410.813 322.194 427.027 340.974C451.666 369.496 491.243 381.234 524.819 394.615C533.628 398.136 542.054 401.657 549.714 405.413C588.78 424.428 615.463 456.354 628.102 498.726C630.017 505.299 631.676 512.107 632.953 519.15C642.273 568.095 622.229 610.702 623.25 652.018C623.378 658.708 624.016 665.281 625.165 671.737C629.378 695.212 640.868 717.865 661.806 734.063C678.53 746.974 704.446 751.435 728.831 753.195C734.703 753.547 740.448 753.782 745.938 753.9C776.833 754.486 807.601 751.317 838.113 753.43C902.202 757.773 963.865 786.765 1006.25 831.719C1019.4 845.687 1030.76 861.063 1039.7 877.73C1077.49 947.568 1073.02 1035.83 1027.57 1101.68" stroke="#0C311D" stroke-width="2" stroke-miterlimit="10"/>
<path d="M32.6643 -192.378C94.7103 -199.185 162.884 -184.396 217.398 -150.827C262.592 -123.126 297.956 -84.6274 327.064 -42.255C335.49 -30.048 343.15 -17.841 350.427 -5.75136C382.982 48.7106 403.791 99.8861 410.685 148.362C415.281 180.875 413.494 212.214 407.877 243.553C405.579 256.23 402.642 271.371 401.876 287.217C400.855 307.992 404.302 330.058 420.133 349.308C444.006 378.534 483.966 389.568 518.436 401.657C527.5 404.826 536.182 408.113 544.225 411.517C585.078 429.006 613.931 460.227 627.846 502.248C630.017 508.703 631.804 515.511 633.208 522.554C643.422 571.499 621.974 613.402 620.442 655.422C620.186 662.23 620.442 668.92 621.208 675.611C624.144 699.672 634.357 723.852 654.529 741.341C670.742 755.308 696.659 760.355 720.915 762.116C726.788 762.585 732.533 762.82 738.023 762.938C768.79 763.524 799.43 760.003 829.943 761.646C894.031 765.168 955.822 793.572 998.59 838.058C1011.87 851.908 1023.23 867.167 1032.42 883.716C1070.59 953.202 1066.13 1041.23 1020.55 1106.85" stroke="#1E3A2B" stroke-width="2" stroke-miterlimit="10"/>
<path d="M46.963 -200.946C109.647 -205.641 176.8 -189.913 231.569 -156.93C276.891 -129.699 313.403 -92.022 342.511 -49.8844C350.937 -37.7947 358.47 -25.5877 365.619 -13.3807C397.28 41.4334 415.409 94.839 418.728 146.132C421.154 180.523 416.941 214.092 408.26 247.192C404.813 260.573 400.472 276.653 398.557 293.203C396.004 314.917 398.174 337.923 413.366 357.642C436.474 387.572 476.817 397.784 512.18 408.7C521.628 411.517 530.564 414.451 538.863 417.503C581.503 433.466 612.654 463.866 627.846 505.769C630.144 512.225 632.059 518.915 633.719 525.957C644.826 574.785 621.846 615.984 618.016 658.826C617.378 665.751 617.122 672.559 617.633 679.484C619.165 704.25 628.102 729.955 647.762 748.5C663.465 763.407 689.254 769.041 713.638 771.036C719.383 771.506 725.128 771.741 730.618 771.858C761.386 772.445 791.898 768.454 822.41 769.745C886.371 772.562 948.417 800.38 991.441 844.396C1004.85 858.129 1016.34 873.27 1025.53 889.703C1064.08 958.719 1059.62 1046.75 1013.91 1112.01" stroke="#0C311D" stroke-width="2" stroke-miterlimit="10"/>
<path d="M61.2616 -209.514C124.712 -212.097 190.716 -195.429 245.612 -163.034C291.062 -136.155 328.723 -99.4166 357.831 -57.3964C366.257 -45.3068 373.79 -33.0998 380.684 -20.8928C411.451 34.3909 426.644 89.9092 426.771 144.019C426.899 180.288 420.26 215.97 408.77 251.065C404.047 265.267 398.302 282.169 395.238 299.541C391.152 322.312 391.918 346.139 406.6 366.327C428.814 396.962 469.54 406.47 506.052 416.094C515.755 418.677 525.075 421.141 533.756 423.958C578.312 438.396 611.633 468.091 627.974 509.76C630.527 516.215 632.57 522.906 634.23 529.831C646.23 578.659 621.846 619.153 615.463 662.699C614.441 669.742 613.803 676.667 613.931 683.827C614.058 709.297 621.846 736.411 640.741 756.247C655.805 772.093 681.722 778.314 706.106 780.426C711.851 780.896 717.596 781.248 723.086 781.365C753.726 781.952 784.11 777.609 814.623 778.431C878.584 780.426 940.885 807.775 984.036 851.321C997.441 864.819 1009.06 879.96 1018.38 896.275C1057.19 964.94 1052.85 1052.85 1007.14 1117.88" stroke="#1E3A2B" stroke-width="2" stroke-miterlimit="10"/>
<path d="M75.5603 -218.083C139.777 -218.67 204.631 -201.063 259.656 -169.137C305.233 -142.611 343.916 -106.811 373.151 -65.0257C381.577 -53.0535 388.982 -40.8465 395.748 -28.4048C425.75 27.231 437.878 84.9795 434.687 141.906C432.516 180.053 423.452 217.965 409.026 254.821C403.153 269.845 396.004 287.451 391.663 305.644C386.046 329.472 385.535 354.12 399.578 374.778C421.026 406.235 462.135 414.921 499.541 423.254C509.499 425.484 519.074 427.597 528.139 430.179C574.482 443.091 609.973 471.965 627.591 513.516C630.272 519.854 632.57 526.544 634.357 533.469C647.124 582.18 621.463 622.087 612.654 666.338C611.25 673.38 610.228 680.658 609.973 687.935C608.824 714.109 615.207 742.632 633.591 763.759C648.145 780.544 674.062 787.351 698.318 789.582C704.063 790.168 709.808 790.403 715.298 790.521C745.81 791.107 776.195 786.295 806.58 786.882C870.541 788.056 932.97 814.935 976.376 858.011C989.909 871.392 1001.65 886.416 1010.97 902.614C1050.17 970.926 1045.83 1058.72 999.995 1123.4" stroke="#1E3A2B" stroke-width="2" stroke-miterlimit="10"/>
<path d="M89.7313 -226.651C208.461 -223.834 323.872 -164.325 388.344 -72.6551C460.348 29.8133 458.305 149.184 409.153 258.46C392.812 294.963 368.683 346.021 392.557 383.229C418.728 423.958 478.093 425.837 522.521 436.283C577.929 449.429 619.803 484.759 634.485 536.991C650.316 593.448 611.122 637.112 605.888 691.808C603.334 718.687 608.569 748.618 626.187 770.919C643.549 792.868 679.041 798.854 707.255 799.559C737.64 800.263 767.897 794.981 798.409 795.098C882.158 795.568 963.993 840.874 1003.44 908.717C1043.02 976.56 1038.68 1064.24 992.718 1128.68" stroke="#1E3A2B" stroke-width="2" stroke-miterlimit="10"/>
<path d="M78.4967 -221.839C139.138 -220.9 199.014 -206.111 252.251 -179.701C304.339 -153.879 350.171 -116.906 382.982 -71.364C408.004 -36.7384 424.346 0.234766 432.516 38.3816C440.304 74.4158 440.815 111.154 435.197 147.423C430.984 174.654 423.197 201.533 412.728 228.06C408.387 239.093 403.536 250.009 398.302 260.925C391.791 274.305 384.258 289.682 378.641 305.645C368.938 332.876 364.215 362.571 379.279 386.399C395.621 412.104 425.75 422.667 456.645 429.24C474.902 433.114 493.413 435.579 510.138 439.1C525.202 442.386 539.373 447.081 552.268 453.302C581.376 467.387 604.483 488.867 618.271 517.389C620.952 522.788 623.25 528.54 625.165 534.408C635.634 566.452 627.846 595.091 618.399 624.318C611.633 645.093 604.1 665.986 602.058 688.874C601.93 689.696 601.93 690.517 601.802 691.339C599.887 717.748 604.994 746.857 622.229 768.572C633.974 783.361 653.763 791.108 674.062 794.746C684.53 796.624 695.254 797.328 705.085 797.328C716.192 797.446 727.299 796.624 738.406 795.568C758.194 793.69 777.727 790.99 797.388 790.403C820.623 789.699 843.731 792.281 865.945 797.681C906.926 807.657 945.226 827.729 974.844 856.251C987.739 868.575 998.846 882.543 1007.91 897.567C1011.36 903.435 1014.55 909.422 1017.36 915.525C1048.12 981.607 1040.46 1062.13 996.803 1121.75" stroke="#0C311D" stroke-width="2" stroke-miterlimit="10"/>
<path d="M67.1343 -217.144C128.542 -216.674 189.184 -202.941 243.442 -177.471C296.424 -152.47 343.788 -115.966 377.492 -70.425C403.153 -35.7994 420.005 1.4085 427.92 40.377C435.453 76.8806 435.197 114.089 428.303 150.357C423.069 177.588 414.26 204.233 402.77 230.407C398.046 241.323 392.812 252.122 387.195 262.92C380.173 276.301 372.258 291.56 366.257 307.523C356.044 334.636 350.554 364.919 365.747 389.098C381.96 415.038 412.6 425.837 443.496 432.175C461.88 435.931 480.519 438.161 497.371 441.33C512.563 444.264 526.734 448.607 539.884 454.241C569.375 467.153 592.993 487.341 607.93 514.689C610.867 519.854 613.42 525.371 615.59 531.122C627.336 562.226 621.335 590.748 612.909 620.092C606.909 640.985 599.887 662.112 597.972 685.001C597.845 685.822 597.845 686.644 597.845 687.465C596.057 713.992 600.909 743.453 618.271 765.285C630.272 780.426 650.443 788.408 671.253 791.812C681.977 793.572 692.829 794.277 702.914 794.159C714.277 794.042 725.639 793.103 736.874 791.812C756.917 789.582 776.706 786.295 796.622 785.004C820.112 783.478 843.348 785.004 865.817 789.464C907.309 797.681 947.013 815.874 978.036 844.161C991.441 856.368 1003.06 870.453 1012.51 885.712C1016.08 891.581 1019.4 897.684 1022.34 903.905C1054.38 971.043 1046.34 1053.79 1001.02 1114.12" stroke="#326349" stroke-width="2" stroke-miterlimit="10"/>
<path d="M55.772 -212.331C117.818 -212.331 179.353 -199.655 234.633 -175.006C288.636 -150.944 337.277 -114.793 372.002 -69.2513C398.302 -34.743 415.537 2.93436 423.324 42.7245C430.601 79.6976 429.452 117.375 421.409 153.644C415.281 180.875 405.323 207.167 392.812 233.107C387.578 243.905 382.088 254.704 376.088 265.385C368.555 278.766 360.257 293.907 353.874 309.987C343.15 336.984 337.022 367.971 352.086 392.385C368.3 418.442 399.323 429.593 430.346 435.696C448.858 439.335 467.625 441.33 484.604 444.147C499.924 446.729 514.223 450.603 527.373 455.885C557.247 467.739 581.503 486.402 597.589 512.694C600.653 517.741 603.462 523.023 605.888 528.657C618.91 558.822 614.697 587.227 607.292 616.688C602.058 637.698 595.547 659.061 593.887 682.066C593.887 682.888 593.759 683.709 593.759 684.531C592.227 711.175 596.568 740.871 614.186 762.938C626.57 778.431 647.124 786.53 668.317 789.934C679.296 791.694 690.275 792.164 700.616 791.929C712.234 791.694 723.724 790.521 735.086 788.877C755.385 786.178 775.429 782.304 795.473 780.309C819.091 777.962 842.582 778.548 865.434 781.952C907.564 788.291 948.545 804.723 980.972 832.776C994.888 844.865 1007.02 859.068 1016.85 874.561C1020.68 880.547 1024 886.768 1027.06 892.989C1060.38 961.301 1051.95 1046.16 1004.97 1107.08" stroke="#326349" stroke-width="2" stroke-miterlimit="10"/>
<path d="M44.4097 -207.519C107.222 -207.871 169.395 -196.368 225.824 -172.659C280.721 -149.418 330.894 -113.736 366.64 -68.1949C393.578 -33.6866 411.324 4.34287 418.728 44.8372C425.75 82.2799 423.835 120.427 414.515 156.578C407.494 183.809 396.259 209.749 382.982 235.454C377.364 246.135 371.364 256.816 365.108 267.498C357.193 280.878 348.256 295.902 341.618 311.983C330.383 338.862 323.489 370.435 338.681 395.202C354.767 421.376 386.301 432.879 417.324 438.748C435.963 442.269 454.73 444.03 471.965 446.495C487.285 448.725 501.712 452.246 515.117 456.941C545.246 467.622 570.141 484.993 587.376 510.112C590.695 514.924 593.759 520.089 596.44 525.488C610.611 554.597 608.186 583.002 601.93 612.58C597.462 633.708 591.334 655.305 589.929 678.427C589.929 679.249 589.802 680.071 589.802 680.892C588.397 707.771 592.483 737.702 610.101 759.768C622.74 775.614 643.677 783.948 665.253 787.234C676.36 788.995 687.722 789.347 698.191 788.877C709.936 788.408 721.681 786.999 733.171 785.239C753.726 782.07 774.025 777.609 794.196 775.027C818.07 771.858 841.688 771.388 864.923 773.853C907.692 778.431 949.949 792.985 983.653 820.686C998.207 832.658 1010.72 846.978 1020.93 862.706C1024.89 868.81 1028.46 875.031 1031.53 881.486C1066 950.972 1057.32 1037.83 1008.68 1099.57" stroke="#326349" stroke-width="2" stroke-miterlimit="10"/>
<path d="M33.0473 -202.824C96.4977 -203.646 159.565 -193.199 217.015 -170.311C272.805 -147.892 324.51 -112.68 361.151 -67.1385C388.727 -32.6302 406.983 5.63402 414.132 46.95C420.899 84.8621 418.218 123.479 407.621 159.63C399.578 186.861 387.322 212.566 373.024 237.919C367.023 248.483 360.64 259.047 353.874 269.61C345.448 282.991 336.128 297.898 329.106 313.978C317.489 340.74 309.701 372.9 324.893 398.019C340.852 424.311 372.896 436.048 403.919 441.917C422.558 445.321 441.581 446.847 458.943 448.959C474.391 450.837 488.945 454.007 502.478 458.232C532.99 467.857 558.523 483.702 576.78 507.764C580.354 512.342 583.674 517.272 586.482 522.554C601.93 550.724 601.164 579.011 596.057 608.707C592.355 629.952 586.738 651.783 585.461 675.024C585.461 675.845 585.333 676.667 585.333 677.489C584.184 704.485 587.887 734.65 605.632 756.951C618.527 773.032 639.847 781.718 661.933 784.887C673.296 786.53 684.786 786.882 695.51 786.295C707.51 785.708 719.383 784.065 731.129 781.952C752.066 778.314 772.493 773.384 792.919 769.98C817.048 766.107 840.794 764.581 864.413 766.107C907.819 768.806 951.481 781.718 986.462 809.066C1001.53 820.921 1014.55 835.358 1025.15 851.204C1029.23 857.307 1032.93 863.763 1036.25 870.218C1072 940.761 1062.93 1029.85 1012.63 1092.17" stroke="#326349" stroke-width="2" stroke-miterlimit="10"/>
<path d="M21.685 -198.012C85.9013 -199.303 149.607 -189.913 208.206 -167.964C265.018 -146.484 317.999 -111.741 355.661 -65.9647C383.875 -31.4565 402.515 7.15988 409.536 49.1801C415.92 87.5618 412.473 126.648 400.727 162.799C391.791 190.03 378.386 215.383 363.066 240.501C356.682 250.948 349.916 261.394 342.767 271.958C333.83 285.221 324.127 300.245 316.723 316.326C304.594 342.852 296.168 375.717 311.361 401.07C327.191 427.48 359.746 439.569 390.897 445.203C409.664 448.49 428.814 449.781 446.304 451.659C461.752 453.302 476.434 455.885 490.222 459.641C520.989 468.092 547.289 482.646 566.694 505.534C570.396 509.994 573.971 514.689 577.163 519.854C593.759 547.085 594.908 575.255 590.823 605.068C587.887 626.43 582.78 648.497 581.631 671.855C581.631 672.676 581.503 673.498 581.503 674.319C580.482 701.433 583.801 731.951 601.675 754.252C614.952 770.684 636.655 779.487 659.125 782.657C670.742 784.3 682.36 784.417 693.339 783.713C705.595 782.891 717.596 781.131 729.469 778.783C750.662 774.675 771.344 769.158 791.898 765.168C816.155 760.473 840.284 758.008 864.03 758.477C907.947 759.299 953.013 770.45 989.271 797.563C1004.97 809.301 1018.38 823.855 1029.36 839.936C1033.57 846.156 1037.4 852.612 1040.85 859.302C1077.87 931.019 1068.42 1022.22 1016.46 1085.25" stroke="#428C65" stroke-width="2" stroke-miterlimit="10"/>
<path d="M10.4503 -193.317C75.305 -195.077 139.904 -186.744 199.397 -165.616C257.102 -144.958 311.616 -110.685 350.171 -64.9084C379.024 -30.4002 398.046 8.56833 404.94 51.4102C411.068 90.2613 406.855 129.817 393.961 165.968C384.131 193.199 369.577 218.317 353.235 243.084C346.341 253.413 339.192 263.859 331.787 274.188C322.34 287.451 312.254 302.358 304.594 318.438C291.955 344.848 282.763 378.3 297.956 404.005C313.786 430.531 346.724 442.973 377.875 448.372C396.77 451.659 415.92 452.598 433.665 454.124C449.241 455.415 464.05 457.645 477.838 460.932C508.989 468.326 535.799 481.355 556.353 503.187C560.311 507.412 564.141 511.99 567.46 516.919C585.333 543.094 588.27 571.264 585.206 601.195C583.035 622.674 578.439 644.976 577.418 668.451C577.418 669.272 577.29 670.094 577.29 670.915C576.397 698.146 579.461 729.016 597.462 751.435C610.994 768.219 633.081 777.257 656.061 780.309C667.806 781.835 679.807 781.952 690.914 781.131C703.297 780.192 715.553 778.079 727.682 775.497C749.13 770.919 770.067 764.815 790.877 760.12C815.389 754.604 839.645 751.083 863.774 750.613C908.33 749.674 954.673 758.947 992.335 785.826C1008.55 797.446 1022.46 812.118 1033.83 828.433C1038.17 834.771 1042.12 841.344 1045.7 848.034C1084 920.924 1074.17 1014.12 1020.55 1077.97" stroke="#428C65" stroke-width="2" stroke-miterlimit="10"/>
<path d="M-0.912003 -188.504C64.7087 -190.734 130.074 -183.574 190.588 -163.269C249.315 -143.432 305.233 -109.628 344.682 -63.852C374.3 -29.4611 393.706 9.97687 400.217 53.523C406.089 92.8436 401.11 132.868 386.939 169.02C376.088 196.251 360.512 221.017 343.15 245.548C335.873 255.76 328.34 266.089 320.553 276.418C310.595 289.681 300.126 304.471 292.083 320.668C278.933 346.96 269.103 380.999 284.168 407.056C299.871 433.701 333.192 446.494 364.598 451.659C383.62 454.828 402.898 455.532 420.771 456.706C436.346 457.645 451.283 459.406 465.327 462.223C496.733 468.444 524.309 480.064 545.884 500.839C550.097 504.83 554.183 509.173 557.757 513.985C576.78 539.221 581.503 567.391 579.588 597.439C578.184 619.036 574.099 641.454 573.205 665.047C573.205 665.868 573.205 666.69 573.077 667.629C572.439 694.977 574.992 726.082 593.249 748.735C607.037 765.872 629.634 775.027 652.869 778.079C664.87 779.605 676.998 779.605 688.36 778.548C700.999 777.375 713.511 775.144 725.639 772.327C747.47 767.28 768.535 760.707 789.472 755.308C814.24 748.97 838.624 744.51 863.136 742.984C908.33 740.167 955.95 747.679 995.016 774.323C1011.74 785.826 1026.17 800.615 1037.91 817.165C1042.38 823.503 1046.47 830.193 1050.17 837.001C1089.74 910.947 1079.53 1006.37 1024.25 1070.81" stroke="#428C65" stroke-width="2" stroke-miterlimit="10"/>
<path d="M-12.2743 -183.692C53.9847 -186.392 120.116 -180.288 181.779 -160.804C241.399 -141.906 298.722 -108.454 339.192 -62.6782C369.449 -28.2874 389.365 11.5027 395.621 55.7531C401.238 95.5433 395.365 136.038 380.045 172.072C368.3 199.303 351.576 223.834 333.319 248.013C325.659 258.108 317.744 268.319 309.573 278.531C299.105 291.794 288.253 306.466 279.827 322.664C266.294 348.839 255.57 383.582 270.763 409.874C286.338 436.752 320.17 449.781 351.576 454.828C370.726 457.88 390.131 458.467 408.004 459.171C423.707 459.875 438.772 461.166 452.943 463.397C484.732 468.444 512.946 478.773 535.671 498.492C540.012 502.365 544.352 506.473 548.182 511.051C568.354 535.347 574.992 563.4 574.099 593.565C573.46 615.28 569.758 637.933 569.12 661.643C569.12 662.465 569.12 663.286 569.12 664.225C568.609 691.691 570.907 723.147 589.163 745.801C603.207 763.172 626.187 772.68 649.933 775.614C662.189 777.14 674.445 776.905 686.19 775.731C699.084 774.44 711.723 771.975 724.107 768.924C746.193 763.407 767.514 756.247 788.579 750.144C813.474 742.984 838.113 737.467 863.008 735.002C908.841 730.425 957.865 736.059 998.08 762.351C1015.44 773.736 1030.25 788.643 1042.38 805.427C1046.98 811.883 1051.19 818.691 1055.02 825.616C1095.87 900.736 1085.15 998.274 1028.34 1063.42" stroke="#428C65" stroke-width="2" stroke-miterlimit="10"/>
<path d="M-23.6366 -178.997C43.3884 -182.166 110.286 -177.119 172.97 -158.574C233.612 -140.498 292.338 -107.516 333.702 -61.6219C364.598 -27.231 385.024 12.7939 391.025 57.8659C396.387 98.1255 389.748 139.089 373.151 175.124C360.512 202.355 342.511 226.534 323.361 250.478C315.318 260.455 307.02 270.549 298.466 280.761C287.487 294.024 276.125 308.579 267.443 324.777C253.4 350.834 242.038 386.164 257.102 412.808C272.55 439.804 306.892 453.068 338.298 457.997C357.576 460.932 376.981 461.284 395.11 461.636C410.941 461.988 426.005 462.927 440.432 464.688C472.476 468.678 501.456 477.482 525.202 496.144C529.798 499.783 534.394 503.656 538.48 508.234C559.8 531.474 568.354 559.527 568.481 589.809C568.609 611.641 565.417 634.529 564.907 658.356C564.907 659.178 564.907 660.117 564.907 660.939C564.524 688.522 566.439 720.213 584.95 743.101C599.377 760.825 622.612 770.567 646.869 773.384C659.38 774.792 671.891 774.558 683.764 773.267C696.786 771.741 709.681 769.041 722.192 765.755C744.534 759.768 765.982 752.022 787.43 745.331C812.58 737.35 837.347 730.894 862.498 727.49C908.968 721.035 959.269 724.908 1000.89 750.965C1018.76 762.233 1034.21 777.257 1046.59 794.277C1051.32 800.85 1055.66 807.657 1059.62 814.7C1101.75 890.994 1090.64 990.528 1032.17 1056.38" stroke="#428C65" stroke-width="2" stroke-miterlimit="10"/>
<path d="M-34.999 -174.185C32.6643 -177.823 100.328 -173.832 164.161 -156.109C225.696 -138.855 285.955 -106.459 328.34 -60.4481C359.874 -26.0573 380.684 14.3198 386.556 60.096C391.663 100.825 384.258 142.258 366.385 178.293C352.725 205.524 333.702 229.468 313.531 253.061C304.977 262.92 296.296 272.897 287.487 283.109C275.997 296.255 264.252 310.926 255.187 327.124C240.633 353.064 228.505 388.981 243.697 415.977C259.145 443.091 293.87 456.706 325.404 461.401C344.809 464.218 364.342 464.101 382.599 464.335C398.429 464.57 413.749 464.805 428.176 466.096C460.603 469.03 490.222 476.308 514.989 493.914C519.84 497.318 524.564 501.074 529.032 505.417C551.502 527.718 561.843 555.653 563.119 586.053C564.013 608.002 561.332 631.125 560.949 655.07C560.949 655.891 560.949 656.831 560.949 657.652C560.821 685.353 562.353 717.396 580.865 740.284C595.547 758.36 619.293 768.219 643.932 770.919C656.571 772.328 669.338 771.975 681.466 770.45C694.744 768.806 707.766 765.872 720.532 762.351C743.129 756.012 764.833 747.679 786.408 740.167C811.814 731.364 836.837 723.969 862.242 719.509C909.224 711.293 960.929 713.405 1003.95 739.11C1022.46 750.261 1038.29 765.402 1051.06 782.657C1055.91 789.347 1060.38 796.272 1064.47 803.315C1107.87 880.665 1096.38 982.429 1036.12 1048.98" stroke="#428C65" stroke-width="2" stroke-miterlimit="10"/>
<path d="M-46.3613 -169.49C22.068 -173.48 90.4973 -170.663 155.352 -153.879C217.781 -137.446 279.572 -105.52 322.851 -59.5091C355.023 -25.1183 376.343 15.6109 381.833 62.2087C386.684 103.407 378.513 145.31 359.363 181.344C344.809 208.575 324.638 232.168 303.445 255.525C294.509 265.267 285.444 275.244 276.252 285.221C264.252 298.367 252.123 312.922 242.676 329.119C227.611 354.942 214.717 391.446 229.909 418.677C245.229 445.908 280.465 459.875 311.999 464.335C331.532 467.035 351.065 466.918 369.577 466.683C385.535 466.448 400.855 466.448 415.537 467.27C448.219 469.03 478.604 475.017 504.52 491.449C509.627 494.618 514.606 498.257 519.202 502.365C542.82 523.727 555.076 551.545 557.374 582.063C559.034 604.129 556.864 627.487 556.608 651.549C556.608 652.37 556.608 653.309 556.608 654.131C556.608 682.066 557.885 714.227 576.524 737.35C591.461 755.778 615.59 765.872 640.613 768.454C653.507 769.863 666.402 769.393 678.785 767.75C692.318 765.989 705.468 762.82 718.362 758.947C741.342 752.139 763.173 743.218 784.876 735.12C810.41 725.495 835.688 717.044 861.476 711.645C909.096 701.55 962.078 701.902 1006.38 727.373C1025.4 738.406 1041.74 753.665 1054.89 771.036C1060 777.727 1064.59 784.769 1068.68 792.046C1113.36 870.57 1101.49 974.447 1039.57 1041.7" stroke="#4FB07D" stroke-width="2" stroke-miterlimit="10"/>
<path d="M-57.596 -164.677C11.4717 -169.137 80.7947 -167.377 146.671 -151.414C210.121 -135.92 273.188 -104.346 317.489 -58.3354C350.299 -24.0619 372.13 17.1367 377.364 64.4388C381.96 106.107 372.896 148.479 352.597 184.513C337.149 211.744 315.829 235.102 293.743 258.108C284.423 267.732 274.848 277.592 265.401 287.569C252.889 300.715 240.378 315.152 230.548 331.467C215.1 357.172 201.44 394.263 216.632 421.846C231.824 449.194 267.571 463.514 299.105 467.857C318.765 470.439 338.426 470.087 357.065 469.5C373.024 468.913 388.599 468.561 403.408 468.796C436.474 469.5 467.497 473.96 494.435 489.336C499.669 492.388 504.903 495.792 509.882 499.783C534.65 520.206 548.821 547.906 552.268 578.541C554.821 600.725 552.906 624.318 553.034 648.497C553.034 649.318 553.034 650.257 553.034 651.079C553.161 679.132 554.055 711.645 572.95 734.767C588.142 753.547 612.782 763.759 638.187 766.341C651.337 767.632 664.487 767.046 676.998 765.285C690.658 763.29 704.191 759.886 717.213 755.895C740.448 748.618 762.535 739.11 784.493 730.307C810.282 719.861 835.688 710.471 861.732 704.015C909.99 692.043 964.376 690.634 1009.95 715.87C1029.61 726.669 1046.34 742.162 1059.87 759.768C1065.1 766.576 1069.83 773.736 1074.04 781.013C1120 860.711 1107.75 966.7 1044.17 1034.54" stroke="#428C65" stroke-width="2" stroke-miterlimit="10"/>
<path d="M-68.9583 -159.865C0.875353 -164.795 70.8367 -164.09 137.862 -149.066C202.206 -134.394 266.805 -103.29 311.999 -57.279C345.448 -23.0055 367.789 18.4279 372.768 66.5516C377.109 108.689 367.279 151.531 345.831 187.448C329.362 214.679 307.02 237.684 283.912 260.455C274.21 269.963 264.252 279.705 254.421 289.564C241.399 302.71 228.505 317.03 218.292 333.345C202.333 358.815 187.907 396.61 203.099 424.545C218.164 452.011 254.421 466.566 286.083 470.791C305.871 473.373 325.659 472.787 344.426 471.73C360.512 470.909 376.088 469.97 391.025 469.852C424.473 469.383 456.007 472.434 484.094 486.754C489.583 489.571 495.073 492.74 500.18 496.614C526.096 516.098 542.054 543.681 546.65 574.433C549.97 596.852 548.565 620.562 548.821 644.741C548.821 645.68 548.821 646.501 548.821 647.44C549.204 675.61 549.714 708.358 568.609 731.716C584.184 750.731 609.079 761.294 634.996 763.759C648.273 765.05 661.678 764.346 674.445 762.351C688.36 760.238 702.021 756.599 715.17 752.256C738.661 744.51 761.003 734.533 783.089 725.025C809.133 713.875 834.666 703.428 861.093 695.916C909.99 682.184 965.652 678.897 1012.51 703.898C1032.68 714.579 1049.91 730.19 1063.83 748.031C1069.19 754.956 1074.04 762.116 1078.38 769.511C1125.62 850.265 1112.98 958.367 1047.74 1027.03" stroke="#428C65" stroke-width="2" stroke-miterlimit="10"/>
<path d="M-80.3207 -155.17C-9.721 -160.569 61.0063 -160.921 129.053 -146.719C194.418 -132.869 260.422 -102.234 306.509 -56.1053C340.596 -21.8318 363.449 19.9538 368.172 68.7817C372.385 111.389 361.661 154.7 338.937 190.617C321.574 217.965 298.083 240.501 273.954 263.037C263.741 272.427 253.528 282.052 243.314 291.912C229.782 304.94 216.504 319.26 206.036 335.575C189.694 360.928 174.502 399.427 189.694 427.597C204.759 455.298 241.399 470.087 273.061 474.078C292.977 476.543 312.765 475.721 331.787 474.312C348.001 473.139 363.704 471.848 378.769 471.143C412.473 469.617 444.772 471.261 474.008 484.407C479.753 486.989 485.498 490.041 490.86 493.679C517.925 512.224 535.799 539.69 541.416 570.56C545.501 593.096 544.608 616.923 544.991 641.337C544.991 642.276 544.991 643.098 544.991 644.037C545.501 672.324 545.629 705.424 564.779 728.899C580.61 748.266 606.015 758.947 632.315 761.412C645.847 762.703 659.38 761.881 672.402 759.768C686.573 757.538 700.361 753.665 713.766 749.087C737.64 740.871 760.109 730.307 782.323 720.096C808.495 708.123 834.283 696.621 861.093 688.287C910.628 672.676 967.567 667.629 1015.83 692.278C1036.51 702.841 1054.25 718.57 1068.55 736.645C1074.04 743.571 1079.02 750.965 1083.49 758.477C1132 840.405 1118.98 950.62 1052.08 1019.87" stroke="#428C65" stroke-width="2" stroke-miterlimit="10"/>
<path d="M-91.683 -150.357C-20.445 -156.226 51.0483 -157.752 120.116 -144.371C186.375 -131.46 253.783 -101.295 300.892 -55.0489C335.617 -20.7754 358.98 21.3622 363.321 71.0118C367.279 114.088 355.661 157.869 331.787 193.786C313.531 221.134 288.764 243.436 263.741 265.62C253.145 275.01 242.421 284.4 231.952 294.259C217.909 307.288 204.248 321.608 193.397 337.923C176.545 363.158 160.586 402.244 175.779 430.766C190.716 458.584 227.867 473.725 259.656 477.481C279.572 479.829 299.615 478.773 318.765 477.012C334.979 475.486 350.81 473.843 366.13 472.669C400.217 470.087 433.155 470.204 463.412 482.294C469.412 484.641 475.285 487.576 480.902 490.98C509.116 508.586 528.905 535.934 535.543 566.921C540.395 589.575 540.012 613.636 540.522 638.168C540.522 639.107 540.522 639.928 540.65 640.867C541.288 669.272 541.161 702.724 560.311 726.199C576.397 745.918 602.185 756.834 628.868 759.181C642.656 760.355 656.316 759.534 669.593 757.186C683.892 754.721 697.935 750.613 711.468 745.801C735.597 737.115 758.322 725.964 780.791 715.166C807.218 702.372 833.134 689.93 860.327 680.54C910.373 663.169 968.844 656.361 1018.38 680.658C1039.7 691.104 1057.83 706.95 1072.51 725.26C1078.13 732.303 1083.23 739.697 1087.83 747.327C1137.62 830.311 1124.21 942.756 1055.66 1012.71" stroke="#428C65" stroke-width="2" stroke-miterlimit="10"/>
<path d="M-103.045 -145.662C-31.0413 -152.001 41.218 -154.583 111.307 -142.024C178.46 -129.934 247.4 -100.238 295.402 -53.9925C330.766 -19.8364 354.64 22.6534 358.725 73.1246C362.427 116.788 350.044 160.921 324.893 196.838C305.616 224.186 279.827 246.135 253.783 268.085C242.804 277.357 231.697 286.63 220.845 296.372C206.291 309.401 192.248 323.603 181.013 339.918C163.65 365.036 147.054 404.709 162.246 433.466C177.055 461.401 214.717 476.895 246.506 480.533C266.55 482.763 286.721 481.472 305.999 479.36C322.34 477.599 338.298 475.486 353.746 473.725C388.088 469.969 421.792 468.678 453.071 479.712C459.199 481.942 465.454 484.524 471.327 487.928C500.69 504.595 522.394 531.826 530.054 562.93C535.671 585.701 535.799 609.998 536.437 634.647C536.437 635.586 536.437 636.407 536.565 637.346C537.458 665.868 536.82 699.555 556.225 723.265C572.694 743.336 598.738 754.487 625.931 756.717C639.847 757.89 653.89 756.834 667.295 754.369C681.849 751.787 696.02 747.444 709.681 742.397C734.065 733.242 757.045 721.622 779.642 710.001C806.324 696.386 832.496 682.888 859.817 672.559C910.5 653.309 970.248 644.741 1021.06 668.803C1042.89 679.132 1061.53 695.095 1076.59 713.64C1082.34 720.8 1087.57 728.312 1092.3 736.059C1143.36 820.216 1129.45 934.657 1059.36 1005.43" stroke="#428C65" stroke-width="2" stroke-miterlimit="10"/>
<path d="M-114.408 -140.85C-41.7653 -147.658 31.3877 -151.296 102.498 -139.676C170.672 -128.408 241.016 -99.1819 290.04 -52.9361C326.17 -18.78 350.299 24.0619 354.257 75.2374C357.704 119.37 344.554 163.973 318.127 199.89C297.956 227.238 271.018 248.952 244.08 270.549C232.718 279.705 221.228 288.86 209.993 298.602C194.929 311.631 180.502 325.716 168.885 342.148C151.139 367.149 133.649 407.409 148.841 436.518C163.523 464.57 201.567 480.416 233.484 483.82C253.655 485.933 273.827 484.524 293.36 482.059C309.701 479.946 325.787 477.364 341.362 475.134C376.088 470.322 410.43 467.505 442.73 477.481C449.113 479.477 455.496 481.942 461.624 485.111C492.137 500.839 515.627 528.07 524.436 559.292C530.82 582.18 531.33 606.711 532.224 631.478C532.224 632.417 532.352 633.238 532.352 634.177C533.373 662.817 532.479 696.855 552.012 720.565C568.737 740.871 595.291 752.256 622.867 754.486C637.038 755.66 651.209 754.486 664.87 751.904C679.679 749.087 694.105 744.627 707.893 739.228C732.661 729.603 755.768 717.396 778.621 705.072C805.431 690.635 831.858 676.197 859.561 664.812C910.883 643.685 971.908 633.356 1024.12 657.183C1046.59 667.394 1065.62 683.475 1081.06 702.255C1086.94 709.414 1092.3 717.044 1097.15 724.908C1149.49 810.24 1135.19 926.793 1063.45 998.157" stroke="#0C311D" stroke-width="2" stroke-miterlimit="10"/>
<path d="M-125.77 -136.038C-52.3617 -143.315 21.4297 -148.01 93.689 -137.211C162.757 -126.765 234.633 -98.0081 284.551 -51.7624C321.319 -17.6063 345.958 25.5877 349.661 77.4675C352.852 122.07 338.809 167.142 311.233 202.941C290.168 230.29 262.081 251.652 234.122 273.014C222.249 282.052 210.376 291.207 198.886 300.715C183.311 313.626 168.502 327.711 156.501 344.143C138.245 369.027 119.988 409.873 135.181 439.335C149.862 467.505 188.29 483.585 220.334 486.871C240.633 488.867 260.932 487.224 280.593 484.407C297.062 482.059 313.276 479.007 328.979 476.308C363.959 470.322 399.068 466.096 432.516 475.017C439.155 476.777 445.794 479.125 452.177 482.059C483.838 496.848 509.372 523.962 519.074 555.301C526.351 578.307 527.245 603.073 528.266 627.956C528.266 628.895 528.394 629.834 528.394 630.656C529.543 659.53 528.394 693.686 547.927 717.631C564.907 738.289 591.844 749.909 619.931 752.022C634.357 753.078 648.656 751.904 662.699 749.087C677.636 746.153 692.318 741.458 706.234 735.824C731.256 725.73 754.619 712.936 777.599 700.024C804.665 684.766 831.219 669.39 859.306 656.948C911.266 634.06 973.568 621.853 1027.06 645.445C1050.04 655.539 1069.57 671.737 1085.4 690.752C1091.4 698.029 1096.89 705.776 1101.87 713.64C1155.49 800.028 1140.81 918.811 1067.4 990.88" stroke="#0C311D" stroke-width="2" stroke-miterlimit="10"/>
<path d="M-137.005 -131.343C-62.958 -139.089 11.727 -144.841 85.0077 -134.981C155.097 -125.474 228.25 -97.1865 279.189 -50.706C316.595 -16.5499 341.745 26.9962 345.192 79.5802C348.129 124.652 333.319 170.194 304.594 205.993C282.636 233.341 253.4 254.469 224.42 275.479C212.164 284.4 199.908 293.437 188.035 302.945C171.949 315.856 156.756 329.941 144.373 346.256C125.733 371.022 106.711 412.456 121.903 442.269C136.457 470.556 175.396 486.989 207.44 490.041C227.867 492.036 248.166 490.041 268.082 486.871C284.678 484.172 300.892 480.768 316.85 477.481C352.214 470.439 387.961 464.688 422.431 472.552C429.325 474.078 436.091 476.308 442.73 479.125C475.54 492.975 502.861 519.971 513.712 551.428C521.755 574.551 523.16 599.551 524.309 624.435C524.309 625.374 524.436 626.313 524.436 627.135C525.841 656.126 524.181 690.634 543.969 714.696C561.204 735.706 588.653 747.444 616.995 749.439C631.676 750.496 646.23 749.205 660.401 746.27C675.594 743.101 690.403 738.171 704.574 732.303C729.852 721.856 753.47 708.475 776.578 694.743C803.899 678.662 830.581 662.23 859.051 648.849C911.522 624.083 975.355 610.115 1030.12 633.355C1053.61 643.332 1073.66 659.647 1089.87 678.78C1096.13 686.174 1101.74 693.921 1106.72 702.02C1161.62 789.582 1146.56 910.478 1071.49 983.133" stroke="#0C311D" stroke-width="2" stroke-miterlimit="10"/>
<path d="M-148.367 -126.53C-73.5543 -134.629 1.769 -141.554 76.1987 -132.516C147.181 -123.831 221.866 -96.0128 273.699 -49.5323C311.744 -15.3761 337.405 28.4047 340.469 81.9277C343.15 127.469 327.574 173.48 297.573 209.28C274.593 236.628 244.336 257.403 214.334 278.179C201.695 286.982 188.928 295.902 176.8 305.292C160.203 318.086 144.628 332.171 131.861 348.604C112.839 373.37 92.923 415.39 108.115 445.438C122.542 473.843 161.991 490.627 194.035 493.562C214.589 495.44 235.016 493.327 255.06 489.689C271.656 486.754 288.125 482.763 304.211 479.125C339.83 470.909 376.343 463.749 411.834 470.556C418.856 471.848 426.005 473.843 432.899 476.542C466.859 489.571 496.094 516.333 507.967 547.906C516.776 571.147 518.691 596.382 519.968 621.383C519.968 622.322 520.096 623.261 520.096 624.2C521.628 653.309 519.713 688.052 539.629 712.231C557.247 733.594 584.95 745.566 613.803 747.444C628.612 748.383 643.422 746.974 657.848 743.923C673.296 740.636 688.233 735.472 702.531 729.368C728.065 718.452 751.811 704.485 775.301 690.165C802.75 673.263 829.687 655.891 858.412 641.572C911.522 615.045 976.632 599.317 1032.81 622.205C1056.93 632.064 1077.36 648.497 1093.96 667.864C1100.34 675.258 1106.09 683.24 1111.19 691.339C1167.37 780.074 1151.92 902.966 1075.19 976.443" stroke="#0C311D" stroke-width="2" stroke-miterlimit="10"/>
<path d="M-159.729 -121.835C-84.2783 -130.404 -8.06133 -138.385 67.3897 -130.286C139.394 -122.422 215.483 -95.0738 268.209 -48.5933C306.892 -14.5545 332.936 29.6959 335.873 83.9231C338.298 129.934 321.829 176.415 290.679 212.214C266.805 239.562 235.271 260.103 204.376 280.526C191.354 289.212 178.204 298.015 165.693 307.405C148.586 320.199 132.627 334.167 119.605 350.599C100.072 375.131 79.518 417.855 94.7103 448.255C109.009 476.895 148.969 493.914 181.141 496.614C201.823 498.374 222.377 496.027 242.548 492.036C259.273 488.749 275.742 484.407 291.955 480.181C327.957 470.908 365.108 462.223 401.749 467.974C409.026 469.148 416.303 470.908 423.452 473.373C458.56 485.58 489.711 512.107 502.605 543.798C512.18 567.156 514.478 592.509 516.138 617.745C516.138 618.684 516.266 619.623 516.266 620.562C518.053 649.788 515.627 684.883 535.671 709.18C553.544 730.894 581.631 742.984 610.994 744.862C626.059 745.801 640.996 744.275 655.678 740.988C671.253 737.584 686.445 732.185 700.999 725.73C726.916 714.344 750.789 699.79 774.408 684.766C802.111 667.042 829.304 648.732 858.285 633.355C912.032 604.951 978.419 587.462 1035.87 610.115C1060.51 619.857 1081.45 636.407 1098.43 656.009C1104.94 663.521 1110.81 671.502 1116.04 679.719C1173.49 769.51 1157.66 894.632 1079.28 968.813" stroke="#0C311D" stroke-width="2" stroke-miterlimit="10"/>
<path d="M-171.092 -117.023C-94.8747 -126.061 -17.8917 -135.099 58.5807 -127.821C184.843 -115.732 325.021 -43.7809 331.277 86.1532C333.447 132.634 316.212 179.584 283.785 215.266C259.017 242.614 226.335 262.803 194.546 282.991C162.629 303.18 130.585 324.307 107.222 352.712C87.178 377.126 65.8577 420.437 81.05 451.072C95.3486 479.829 135.691 497.201 167.863 499.665C205.78 502.717 243.059 491.801 279.444 481.355C315.829 470.908 353.491 460.814 391.28 465.509C435.708 471.026 480.136 501.543 496.988 539.925C507.712 564.222 510.393 590.866 512.053 617.158C513.968 646.501 511.287 681.949 531.458 706.245C549.587 728.195 578.184 740.636 607.93 742.397C639.464 744.275 670.742 735.237 699.084 722.443C756.024 696.621 803.388 655.774 857.774 625.609C912.16 595.443 979.823 576.077 1038.68 598.495C1073.53 611.759 1101.23 638.52 1120.64 668.685C1179.37 759.651 1163.15 886.886 1083.11 961.653" stroke="#0C311D" stroke-width="2" stroke-miterlimit="10"/>
</g>
<defs>
<filter id="filter0_f_7_2116" x="-83" y="-30" width="702.731" height="519.511" filterUnits="userSpaceOnUse" color-interpolation-filters="sRGB">
<feFlood flood-opacity="0" result="BackgroundImageFix"/>
<feBlend mode="normal" in="SourceGraphic" in2="BackgroundImageFix" result="shape"/>
<feGaussianBlur stdDeviation="15" result="effect1_foregroundBlur_7_2116"/>
</filter>
<filter id="filter1_f_7_2116" x="261.481" y="335.565" width="991.674" height="633.435" filterUnits="userSpaceOnUse" color-interpolation-filters="sRGB">
<feFlood flood-opacity="0" result="BackgroundImageFix"/>
<feBlend mode="normal" in="SourceGraphic" in2="BackgroundImageFix" result="shape"/>
<feGaussianBlur stdDeviation="15" result="effect1_foregroundBlur_7_2116"/>
</filter>
</defs>
</svg>
