<svg width="1426" height="783" viewBox="0 0 1426 783" fill="none" xmlns="http://www.w3.org/2000/svg">
<mask id="mask0_7_2696" style="mask-type:luminance" maskUnits="userSpaceOnUse" x="0" y="0" width="1437" height="800">
<path d="M1436.5 0.5V799.5H0.5V0.5H1436.5Z" fill="white" stroke="white"/>
</mask>
<g mask="url(#mask0_7_2696)">
<path d="M-910.339 959.6C-893.934 883.1 -801.247 837.5 -711.794 828.6C-622.341 819.6 -531.211 837.1 -440.8 837.1C-198.546 837 29.8178 697.8 109.092 501.9C134.479 439.1 145.616 372.2 170.404 309.2C195.193 246.2 237.225 184.9 305.482 154.9C403.677 111.8 526.661 145 625.694 193.2C724.727 241.4 817.533 305.2 927.344 327.3C1071.64 356.3 1221.45 306.4 1331.86 225.9C1442.15 145.4 1520.11 37.2001 1596.27 -69.2" stroke="#04002C" stroke-miterlimit="10"/>
<path d="M-915.728 952.2C-897.766 876.1 -805.319 830.6 -715.746 821.4C-677.067 817.4 -637.908 818.4 -598.75 821.1C-547.377 824.6 -495.885 830.8 -444.752 831.7C-340.449 833.6 -238.782 811.3 -149.448 768C-80.4721 734.6 -19.0403 690.5 29.9375 637.6C65.0242 600 92.9259 557.6 112.445 511.6C121.187 491 128.372 469.9 134.958 448.6C148.37 405.3 159.387 361.3 176.751 319.4C196.51 271.9 226.327 225.9 270.635 194.6C284.406 184.8 299.375 176.4 315.781 169.8C384.637 142.2 464.271 151.7 540.432 175.2C573.363 185.4 605.696 198.1 635.753 211.8C669.403 227.1 702.334 243.6 735.145 259.3C799.571 290.3 863.158 318.8 932.014 329.2C976.801 335.9 1020.99 334.2 1064.7 326C1153.55 309.4 1240.85 265.1 1313.66 208.6C1333.66 193.1 1352.7 176.8 1371.14 159.8C1453.05 84.2999 1521.54 -3.00005 1589.08 -85.3" stroke="#04002C" stroke-miterlimit="10"/>
<path d="M-921.117 944.7C-901.478 869 -809.39 823.5 -719.698 814C-680.899 809.9 -641.74 810.9 -602.462 813.7C-551.09 817.4 -499.597 824.2 -448.584 826.1C-344.521 830 -242.973 811.3 -152.801 769.8C-83.1065 737.8 -20.7168 695.8 30.1769 644.9C66.5809 608.5 95.5605 566.8 115.918 521.1C125.019 500.7 132.443 479.6 139.389 458.3C153.4 415.1 165.015 371 183.098 329.5C203.695 282.3 234.59 237.4 280.335 207.6C294.465 198.4 309.554 190.5 326.079 184.5C395.295 159.4 473.851 171.2 549.892 194.8C582.943 205 615.515 217.3 645.932 230.1C679.941 244.4 713.231 259.4 745.923 273.2C810.109 300.6 872.02 324.7 936.924 330.7C978.956 334.6 1019.07 330.1 1059.43 319.7C1141.22 298.4 1224.2 250.1 1295.81 191C1315.45 174.8 1334.49 157.8 1353.06 140.4C1435.8 62.6 1509.45 -23.9 1582.14 -101.8" stroke="#04002C" stroke-miterlimit="10"/>
<path d="M-926.506 937.2C-905.19 861.9 -813.462 816.4 -723.649 806.7C-684.85 802.5 -645.452 803.4 -606.174 806.4C-554.682 810.4 -503.429 817.8 -452.415 820.6C-348.472 826.5 -247.284 811.4 -156.154 771.7C-85.741 741.1 -22.2735 701.2 30.4165 652.3C68.2575 617.1 98.195 576.1 119.391 530.6C128.851 510.3 136.635 489.4 143.939 468C158.549 424.9 170.764 380.7 189.564 339.5C211 292.6 242.853 248.8 290.154 220.5C304.644 211.9 319.852 204.5 336.378 199.2C405.833 176.6 483.431 190.8 559.352 214.4C592.523 224.7 625.215 236.5 655.991 248.4C690.359 261.7 723.889 275.2 756.58 287.2C820.527 310.8 880.881 330.7 941.714 332.3C981.112 333.3 1017.16 326.2 1053.92 313.5C1128.64 287.7 1207.32 235.1 1277.61 173.5C1296.89 156.5 1315.81 139 1334.49 121.1C1417.96 40.9999 1496.76 -44.7001 1574.83 -118.1" stroke="#04002C" stroke-miterlimit="10"/>
<path d="M-931.895 929.7C-908.903 854.9 -817.533 809.3 -727.481 799.4C-688.563 795.1 -649.165 795.9 -609.767 799.2C-558.275 803.4 -507.022 811.4 -456.128 815.2C-352.424 823 -251.355 811.6 -159.507 773.8C-88.2558 744.6 -23.7105 706.9 30.5362 659.9C69.934 625.9 100.71 585.6 122.624 540.4C132.443 520.3 140.586 499.4 148.131 478C163.339 434.9 176.152 390.8 195.791 349.8C218.065 303.3 250.876 260.4 299.734 233.8C314.583 225.7 329.911 219 346.557 214.2C416.371 194.1 492.771 210.7 568.813 234.3C601.983 244.7 635.034 256 666.049 267.1C700.777 279.5 734.666 291.4 767.119 301.6C830.826 321.6 889.623 337 946.264 334.3C983.028 332.5 1015 322.6 1048.29 307.6C1116.07 277.2 1190.2 220.5 1259.41 156.4C1278.45 138.7 1297.25 120.5 1316.05 102.1C1400.24 19.7999 1484.18 -65.3001 1567.53 -134.1" stroke="#04002C" stroke-miterlimit="10"/>
<path d="M-937.283 922.2C-912.615 847.8 -821.605 802.2 -731.433 792.1C-692.514 787.7 -652.997 788.5 -613.479 791.9C-561.987 796.3 -510.734 804.9 -459.96 809.7C-356.496 819.5 -255.666 811.6 -162.86 775.7C-90.8903 747.9 -25.2673 712.4 30.7757 667.4C71.6104 634.6 103.344 594.9 126.097 550C136.275 530 144.778 509.2 152.561 487.9C168.368 444.9 181.78 400.7 202.138 360.1C225.25 313.9 259.019 272.1 309.434 247C324.523 239.5 340.09 233.3 356.735 229.1C426.789 211.6 502.231 230.4 578.153 254.2C611.443 264.6 644.734 275.5 676.109 285.7C711.195 297.1 745.324 307.5 777.776 315.8C841.244 332.1 898.724 343.2 951.055 336.1C985.303 331.5 1012.97 318.8 1042.9 301.6C1103.74 266.5 1173.43 205.8 1241.45 139.1C1260.13 120.7 1278.93 101.9 1297.85 83.0001C1382.75 -1.59994 1471.97 -85.8999 1560.58 -150.2" stroke="#04002C" stroke-miterlimit="10"/>
<path d="M-942.792 914.8C-916.447 840.8 -825.796 795.3 -735.504 784.9C-696.466 780.4 -656.829 781.1 -617.311 784.7C-565.699 789.4 -514.686 798.6 -463.912 804.3C-360.567 816 -259.977 811.8 -166.333 777.7C-93.6445 751.4 -26.824 718 30.8955 674.9C73.287 643.3 105.859 604.3 129.45 559.7C139.868 539.8 148.73 519.1 156.992 497.8C173.398 454.9 187.529 410.6 208.485 370.3C232.435 324.5 267.162 283.6 319.134 260.1C334.582 253.1 350.269 247.5 367.034 243.9C437.327 228.9 511.692 250.1 587.613 273.9C621.023 284.4 654.554 294.8 686.168 304.1C721.614 314.5 755.982 323.4 788.434 329.9C851.662 342.6 907.944 349.1 955.844 337.8C987.698 330.3 1011.05 314.9 1037.39 295.4C1091.16 255.7 1156.55 190.8 1223.37 121.6C1241.69 102.4 1260.49 82.9999 1279.53 63.6999C1365.27 -23.2001 1459.51 -106.7 1553.4 -166.6" stroke="#04002C" stroke-miterlimit="10"/>
<path d="M-948.18 907.3C-920.159 833.8 -829.867 788.2 -739.456 777.5C-700.418 772.9 -660.661 773.6 -621.024 777.4C-569.411 782.3 -518.398 792.1 -467.744 798.8C-364.639 812.5 -264.168 811.9 -169.686 779.6C-96.2789 754.7 -28.2609 723.5 31.1351 682.3C74.9636 651.9 108.494 613.6 132.923 569.3C143.7 549.6 152.921 528.9 161.423 507.6C178.428 464.7 193.157 420.4 214.832 380.4C239.62 334.9 275.305 295 328.834 273.2C344.521 266.8 360.448 261.7 377.213 258.7C447.865 246.2 521.152 269.8 596.954 293.6C630.364 304.1 664.253 314.1 696.107 322.5C731.792 331.9 766.64 339.3 798.972 343.9C861.961 352.9 917.046 354.8 960.395 339.4C989.973 328.9 1008.77 310.9 1031.77 289.2C1078.59 244.8 1139.54 175.9 1205.16 104.1C1223.25 84.2001 1241.81 64.2001 1261.09 44.4001C1347.55 -44.7999 1447.06 -127.6 1546.21 -182.9" stroke="#04002C" stroke-miterlimit="10"/>
<path d="M-953.569 899.8C-923.871 826.7 -833.939 781.1 -743.288 770.2C-704.13 765.5 -664.253 766.1 -624.616 770.1C-573.004 775.3 -521.99 785.7 -471.576 793.3C-368.71 809 -268.479 812 -173.039 781.6C-98.9135 758.1 -29.8178 729.1 31.3745 689.8C76.7597 660.6 111.128 623 136.395 578.9C147.532 559.3 157.112 538.7 165.973 517.4C183.577 474.6 198.905 430.2 221.298 390.5C246.924 345.3 283.448 306.4 338.653 286.2C354.699 280.3 370.746 275.8 387.631 273.5C458.523 263.5 530.732 289.4 606.534 313.3C640.064 323.9 674.193 333.4 706.405 341C742.45 349.5 777.537 355.3 809.869 358.1C872.618 363.5 926.745 360.6 965.424 341.2C992.727 327.6 1007.1 307.1 1026.5 283.2C1066.25 234.1 1122.9 161.2 1187.2 86.8C1204.92 66.2 1223.49 45.5 1242.89 25.3C1330.06 -66.2 1434.72 -148.2 1539.15 -199" stroke="#04002C" stroke-miterlimit="10"/>
<path d="M-958.958 892.3C-927.584 819.6 -838.011 774 -747.24 762.9C-708.082 758.1 -668.085 758.6 -628.328 762.8C-576.716 768.2 -525.822 779.2 -475.408 787.9C-372.662 805.5 -272.671 812.2 -176.392 783.6C-101.548 761.5 -31.2548 734.7 31.614 697.4C78.556 669.5 113.763 632.5 139.868 588.7C151.364 569.3 161.184 548.7 170.404 527.4C188.726 484.7 204.533 440.2 227.645 400.9C254.11 356.1 291.591 318.1 348.353 299.6C364.639 294.3 380.925 290.4 397.809 288.6C468.941 281.1 540.192 309.4 615.874 333.3C649.524 343.9 683.772 353 716.344 359.7C752.748 367.2 788.075 371.5 820.288 372.4C882.797 374.1 935.727 366.2 969.975 343.1C994.883 326.3 1004.82 303.4 1020.87 277.2C1053.68 223.4 1105.77 146.4 1169 69.4999C1186.48 48.1999 1204.92 26.9 1224.44 6.09996C1312.34 -87.7 1422.27 -168.9 1531.96 -215.3" stroke="#04002C" stroke-miterlimit="10"/>
<path d="M-964.347 884.8C-931.415 812.5 -842.082 767 -751.192 755.6C-711.914 750.7 -671.917 751.2 -632.16 755.5C-580.428 761.2 -529.654 772.7 -479.359 782.4C-376.853 802 -277.101 812.2 -179.864 785.5C-104.182 764.8 -32.6917 740.3 31.7338 704.8C80.2326 678.1 116.277 641.8 143.221 598.2C155.076 578.9 165.255 558.4 174.715 537.1C193.636 494.4 210.041 449.9 233.872 410.9C261.175 366.4 299.495 329.3 357.933 312.5C374.578 307.7 390.984 304.4 407.988 303.2C479.479 298.3 549.533 328.8 625.215 352.9C658.865 363.6 693.472 372.2 726.284 378C763.047 384.5 798.613 387.4 830.825 386.4C892.976 384.5 944.827 371.3 974.525 344.7C997.158 324.5 1002.67 299.4 1015.12 271C1040.87 212.5 1088.65 131.5 1150.68 51.9999C1167.8 29.8999 1186.12 8.0999 1205.88 -13.2001C1294.62 -109.3 1409.58 -189.7 1524.66 -231.6" stroke="#04002C" stroke-miterlimit="10"/>
<path d="M-969.735 877.4C-935.128 805.6 -846.153 760 -755.143 748.4C-715.865 743.4 -675.629 743.8 -635.872 748.4C-584.14 754.3 -533.366 766.5 -483.191 777.1C-380.805 798.7 -281.293 812.5 -183.217 787.6C-106.817 768.4 -34.1287 746 31.9733 712.4C81.909 687 118.912 651.3 146.694 608C158.908 588.9 169.446 568.4 179.266 547.1C198.785 504.5 215.789 460 240.458 421.2C268.599 377.1 307.757 340.9 367.992 325.7C384.876 321.4 401.522 318.7 418.646 318.1C490.376 315.7 559.472 348.6 635.034 372.7C668.804 383.5 703.651 391.6 736.822 396.6C773.944 402.1 809.869 403.5 841.962 400.7C903.873 395.2 954.288 376.7 979.795 346.7C999.793 323.1 1001.11 295.8 1010.21 265.1C1028.89 201.9 1072.36 116.9 1133.19 34.9C1149.96 12.1 1168.28 -10.4 1188.04 -32.1C1277.49 -130.4 1397.6 -210.2 1517.95 -247.5" stroke="#04002C" stroke-miterlimit="10"/>
<path d="M-975.124 869.9C-938.84 798.5 -850.225 752.9 -758.976 741C-719.578 735.9 -679.342 736.2 -639.465 741C-587.733 747.1 -537.079 759.9 -486.904 771.5C-384.757 795 -285.364 812.5 -186.571 789.5C-109.452 771.7 -35.5657 751.6 32.093 719.8C83.5855 695.6 121.427 660.6 150.047 617.6C162.621 598.6 173.518 578.2 183.577 556.9C203.695 514.4 221.298 469.8 246.685 431.4C275.545 387.6 315.661 352.3 377.572 338.9C394.816 335.2 411.581 333 428.705 333C500.675 333.1 568.693 368.4 644.255 392.5C678.144 403.3 713.231 411 746.641 415.1C784.123 419.7 820.287 419.5 852.38 414.8C914.052 405.7 962.91 381.8 984.345 348.4C1001.71 321.3 998.835 291.9 1004.46 259C1016.08 191.1 1055.24 102 1114.87 17.5001C1131.4 -5.99994 1149.6 -29.0999 1169.48 -51.2999C1259.65 -151.9 1385.03 -230.9 1510.65 -263.7" stroke="#04002C" stroke-miterlimit="10"/>
<path d="M-980.633 862.4C-942.672 791.4 -854.536 745.8 -763.047 733.7C-723.649 728.5 -683.174 728.8 -643.297 733.7C-591.445 740.1 -540.911 753.4 -490.855 766C-388.948 791.5 -289.795 812.6 -190.043 791.4C-112.206 775 -37.1224 757.1 32.2128 727.3C85.2621 704.4 123.941 670 153.4 627.2C166.333 608.3 177.47 588 188.008 566.7C208.724 524.2 226.926 479.6 253.032 441.5C282.73 398.1 323.684 363.6 387.272 351.9C404.755 348.7 421.76 347.2 439.004 347.8C511.333 350.4 578.273 388 653.835 412.2C687.724 423.1 723.17 430.3 756.82 433.5C794.661 437.1 831.065 435.5 863.158 428.9C924.47 416.2 971.652 387 989.255 350.1C1003.74 319.6 996.919 288 999.194 252.8C1003.74 180.2 1038.47 87.0999 1096.91 -9.15527e-05C1113.08 -24.3001 1131.28 -48.0001 1151.28 -70.6001C1242.29 -173.5 1372.69 -251.7 1503.58 -280.1" stroke="#04002C" stroke-miterlimit="10"/>
<path d="M-986.021 854.9C-946.384 784.4 -858.607 738.7 -766.999 726.4C-727.481 721.1 -687.006 721.3 -647.009 726.5C-595.157 733.1 -544.743 747.1 -494.807 760.6C-393.019 788.1 -294.106 812.8 -193.516 793.4C-114.96 778.4 -38.5595 762.8 32.3325 734.8C86.9385 713.2 126.456 679.4 156.753 636.9C170.045 618.2 181.541 597.9 192.319 576.7C213.634 534.3 232.435 489.6 259.259 451.8C289.795 408.7 331.588 375.1 396.852 365.1C414.694 362.4 431.819 361.5 449.063 362.7C521.631 367.8 587.493 407.8 663.056 432C697.065 442.9 732.63 449.7 766.759 452C804.84 454.6 841.603 451.5 873.576 443C934.649 426.8 979.914 392.2 993.685 351.8C1005.3 317.9 994.644 284.1 993.326 246.7C990.812 169.5 1021.23 72.3001 1078.47 -17.3999C1094.4 -42.3999 1112.36 -66.6999 1132.6 -89.8999C1224.32 -195.1 1360 -272.6 1496.16 -296.4" stroke="#04002C" stroke-miterlimit="10"/>
<path d="M-991.41 847.4C-950.097 777.3 -862.679 731.7 -770.951 719.1C-731.433 713.7 -690.718 713.9 -650.722 719.2C-598.87 726.1 -548.455 740.6 -498.639 755.1C-397.091 784.5 -298.417 812.8 -196.869 795.4C-117.595 781.9 -39.9966 768.5 32.5719 742.3C88.8544 722 129.21 688.8 160.225 646.5C173.877 627.9 185.732 607.8 196.749 586.5C218.663 544.2 238.183 499.4 265.605 462C296.98 419.2 339.731 386.4 406.551 378.3C424.633 376.1 442.117 375.8 459.361 377.6C532.289 385.2 597.073 427.6 672.516 451.9C706.645 462.9 742.45 469.2 776.818 470.7C815.258 472.3 852.381 467.8 884.234 457.4C945.067 437.6 988.297 397.8 998.475 353.8C1007.1 316.5 992.608 280.5 987.937 240.9C978.238 159 1004.46 57.6999 1060.51 -34.5001C1076.07 -60.2001 1094.04 -85.2 1114.39 -108.8C1206.84 -216.3 1347.67 -293 1489.09 -312.3" stroke="#04002C" stroke-miterlimit="10"/>
<path d="M-996.799 840C-953.809 770.3 -866.751 724.7 -774.783 711.9C-735.145 706.4 -694.43 706.5 -654.314 712C-602.343 719.1 -552.048 734.3 -502.351 749.7C-401.043 781.1 -302.489 813 -200.102 797.4C-119.99 785.3 -41.3137 774.2 32.9313 749.8C90.7705 730.8 131.964 698.1 163.818 656.2C177.829 637.8 190.043 617.7 201.419 596.4C223.932 554.1 244.05 509.3 272.192 472.2C304.404 429.8 347.993 397.7 416.49 391.4C434.812 389.7 452.535 390 469.779 392.4C542.946 402.6 606.653 447.2 682.096 471.6C716.344 482.6 752.389 488.5 786.997 489.1C825.796 489.8 863.158 483.7 895.012 471.4C955.605 448 996.799 403.1 1003.39 355.4C1008.89 314.9 990.572 276.5 982.549 234.6C965.544 148 987.698 42.7 1042.54 -52.1C1057.75 -78.5 1075.71 -104.1 1096.19 -128.2C1189.24 -238 1335.21 -314 1482.03 -328.8" stroke="#04002C" stroke-miterlimit="10"/>
<path d="M-1002.19 832.5C-957.521 763.2 -870.822 717.6 -778.734 704.5C-739.097 698.9 -698.262 698.9 -658.026 704.6C-606.055 712 -555.879 727.7 -506.183 744.1C-404.994 777.5 -306.8 813 -203.455 799.2C-122.624 788.5 -42.631 779.8 33.1707 757.1C92.5667 739.4 134.599 707.3 167.291 665.7C181.541 647.4 194.115 627.4 205.85 606.1C229.082 563.9 249.679 519.1 278.538 482.2C311.589 440.1 356.017 408.9 426.19 404.3C444.871 403.1 462.714 404.1 480.078 407C553.485 419.7 616.234 466.7 691.556 491.1C725.805 502.2 762.209 507.6 797.056 507.3C836.214 507 873.816 499.5 905.669 485.3C966.023 458.3 1005.18 408.3 1008.06 356.9C1010.45 313.1 988.417 272.4 977.04 228.3C953.09 137.1 970.694 27.7 1024.46 -69.7C1039.43 -96.9 1057.15 -123.1 1077.87 -147.6C1171.63 -259.5 1322.76 -334.7 1474.84 -345" stroke="#04002C" stroke-miterlimit="10"/>
<path d="M-1007.58 825C-961.233 756.2 -874.893 710.5 -782.686 697.2C-742.929 691.5 -701.974 691.5 -661.738 697.4C-609.767 705 -559.592 721.3 -510.015 738.7C-409.066 774 -310.991 813.2 -206.808 801.2C-125.258 791.9 -44.068 785.5 33.4103 764.7C94.363 748.3 137.234 716.8 170.764 675.4C185.373 657.3 198.306 637.3 210.401 616C234.231 573.9 255.427 529 285.125 492.5C319.014 450.8 364.279 420.2 436.129 417.6C455.05 416.9 473.132 418.5 490.496 422.1C564.262 437.3 625.814 486.7 701.136 511.1C735.505 522.3 772.148 527.2 807.354 526C846.872 524.7 884.833 515.8 916.567 499.7C976.681 469.2 1013.8 414.1 1013.09 358.9C1012.49 311.9 986.74 268.8 971.771 222.4C940.756 126.5 954.048 13.0001 1006.5 -86.7999C1021.11 -114.7 1038.83 -141.5 1059.67 -166.6C1154.39 -280.9 1310.66 -355.4 1468.02 -361.2" stroke="#04002C" stroke-miterlimit="10"/>
<path d="M-1012.97 817.5C-965.065 749.1 -878.965 703.5 -786.638 689.9C-746.881 684.1 -705.807 684 -665.451 690.1C-613.479 697.9 -563.304 714.9 -513.847 733.2C-413.138 770.5 -315.182 813.3 -210.281 803.2C-128.013 795.3 -45.6247 791.2 33.53 772.2C96.0395 757.1 139.748 726.2 173.997 685.1C188.965 667.1 202.258 647.2 214.592 625.9C239.021 583.8 260.815 538.9 291.232 502.7C325.959 461.3 372.183 431.5 445.59 430.7C464.869 430.5 483.071 432.7 500.555 436.9C574.56 454.6 635.154 506.3 710.357 530.8C744.845 542 781.728 546.5 817.174 544.5C857.051 542.2 895.371 531.9 926.865 513.8C986.86 479.8 1021.83 419.7 1017.52 360.6C1013.8 310.5 984.345 264.9 966.023 216.3C927.943 115.7 936.924 -1.80001 988.177 -104.2C1002.43 -132.8 1020.15 -160.2 1040.99 -185.8C1136.43 -302.4 1297.97 -376.1 1460.59 -377.5" stroke="#04002C" stroke-miterlimit="10"/>
<path d="M-1018.47 810.1C-968.897 742.1 -883.156 696.5 -790.59 682.7C-750.713 676.8 -709.519 676.6 -669.163 682.9C-617.072 691 -567.136 708.5 -517.799 727.8C-417.209 767.1 -319.613 813.4 -213.754 805.2C-130.767 798.8 -47.0618 797.1 33.53 779.7C97.5962 766.1 142.143 735.6 177.23 694.7C192.558 676.8 206.09 657 218.783 635.7C243.811 593.7 266.204 548.7 297.339 512.8C332.905 471.7 379.967 442.7 455.05 443.7C474.569 444 493.011 446.8 510.494 451.6C584.739 471.8 644.255 525.9 719.458 550.5C753.946 561.8 791.068 565.8 826.874 562.9C867.11 559.7 905.669 547.8 937.163 527.9C996.919 490.3 1029.85 425.3 1021.83 362.3C1015 309 981.83 261.1 960.036 210.2C914.89 105 919.56 -16.6001 969.616 -121.6C983.626 -150.9 1001.11 -179 1022.19 -205C1118.35 -323.9 1285.04 -396.8 1452.93 -393.7" stroke="#04002C" stroke-miterlimit="10"/>
<path d="M-1023.86 802.6C-950.456 705.9 -807.354 654.1 -672.875 675.6C-514.566 700.9 -376.135 816.6 -217.107 807.1C-133.402 802.1 -48.4988 802.7 33.7694 787.1C128.013 769.3 180.583 715.5 223.334 645.5C278.299 555.6 321.169 451.4 464.869 456.8C568.812 460.7 636.232 539.8 729.038 570.2C802.564 594.3 888.545 583.2 948.061 542C1007.58 500.8 1038.59 430.9 1026.86 364C1017.04 307.6 980.154 257.2 954.887 204C888.066 63.4 907.226 -103.1 1004.22 -224.3C1101.22 -345.5 1272.94 -417.7 1446.22 -410" stroke="#04002C" stroke-miterlimit="10"/>
<path d="M-1015.36 816.4C-940.876 727.3 -798.613 679.1 -665.091 698.8C-598.271 708.6 -534.923 733.5 -472.414 757.6C-408.347 782.4 -345.239 806.5 -279.377 813.5C-258.181 815.8 -236.626 816.3 -214.831 814.4C-132.803 807.3 -50.0555 805.6 31.8535 789.5C124.66 771.3 178.308 719.7 222.495 653.6C232.674 638.4 242.494 622.9 252.553 607.6C282.011 562.6 313.386 520 363.082 496.3C390.864 483.1 424.274 475.6 465.828 476.8C568.453 479.7 635.513 552 725.445 578C737.42 581.4 749.635 583.9 761.969 585.5C823.401 593.3 888.425 578.5 935.846 543.7C992.847 501.9 1022.31 432.7 1011.65 366.5C1002.67 310.4 968.059 259.7 944.828 206.5C904.711 114.7 900.161 12.4 929.02 -80.6C944.588 -130.3 969.616 -177.2 1003.86 -218.6C1066.25 -294.2 1158.1 -350.1 1261.21 -379.6C1320.48 -396.6 1383.47 -404.6 1446.58 -402.3" stroke="#04002C" stroke-miterlimit="10"/>
<path d="M-1006.86 830.3C-931.296 748.7 -789.871 704.2 -657.308 722.2C-590.727 731.2 -527.618 753.8 -465.708 775.2C-402.24 797.2 -340.449 818.1 -275.664 822.9C-254.828 824.5 -233.752 824.3 -212.436 821.9C-132.204 812.8 -51.3726 808.8 30.0574 792C121.546 773.4 176.033 723.8 221.777 661.7C232.315 647.4 242.614 632.9 252.912 618.6C283.329 576.6 315.062 537.2 364.759 515.4C392.66 503.2 425.831 496.1 466.666 496.9C567.974 498.8 634.795 564.4 721.853 586C733.469 588.8 745.204 590.8 757.179 591.9C816.336 597.2 878.486 580.9 923.752 545.7C978.118 503.3 1006.26 434.8 996.44 369.2C988.177 313.4 956.084 262.5 934.888 209.2C898.245 117.4 896.209 15.4999 926.626 -76.4001C943.151 -125.7 969.017 -172 1003.74 -212.7C1067.09 -287 1159.06 -341.7 1262.29 -371.1C1321.44 -388 1384.19 -396.2 1447.18 -394.4" stroke="#04002C" stroke-miterlimit="10"/>
<path d="M-998.476 844.2C-921.836 770.2 -781.249 729.2 -649.524 745.5C-583.302 753.6 -520.434 774 -459.122 792.8C-396.253 812 -335.659 829.8 -272.192 832.3C-251.715 833.1 -231.237 832.3 -210.281 829.4C-131.725 818.2 -53.0492 811.8 27.9018 794.5C117.954 775.3 173.518 728 220.579 669.8C231.477 656.4 242.134 642.9 252.792 629.6C284.167 590.7 316.379 554.4 365.956 534.5C393.977 523.2 427.028 516.6 467.145 517C567.136 517.8 633.597 576.9 717.782 593.9C728.918 596.2 740.414 597.5 751.79 598.1C808.672 601 867.828 583.2 910.938 547.4C962.79 504.4 989.494 436.6 980.633 371.6C973.208 316 943.39 265 924.23 211.6C891.06 119.7 891.179 18.4001 923.392 -72.3999C940.756 -121.4 967.58 -167 1002.79 -207C1067.09 -280.1 1159.18 -333.5 1262.64 -362.9C1321.68 -379.7 1384.31 -388 1447.06 -386.7" stroke="#04002C" stroke-miterlimit="10"/>
<path d="M-989.973 858.1C-912.256 791.7 -772.507 754.3 -641.74 768.8C-575.758 776 -513.249 794.3 -452.535 810.3C-390.385 826.8 -330.869 841.3 -268.599 841.5C-248.601 841.6 -228.483 840.2 -208.006 836.7C-131.246 823.6 -54.4863 814.7 25.9857 796.9C114.601 777.3 171.242 732.1 219.741 677.8C230.998 665.3 242.015 652.8 253.032 640.6C285.364 604.7 318.056 571.6 367.513 553.5C395.654 543.2 428.585 537.2 467.983 537C566.657 536.6 632.879 589.1 714.069 601.7C724.847 603.4 735.864 604.2 746.881 604.3C801.487 604.7 857.769 585.4 898.724 549.2C947.941 505.6 973.089 438.5 965.305 374.2C958.599 318.9 931.296 267.6 914.172 214.1C884.474 122.2 886.988 21.2999 920.758 -68.3C939.08 -117 966.622 -161.9 1002.43 -201.3C1067.69 -273.1 1160.02 -325.3 1263.48 -354.6C1322.4 -371.3 1384.79 -379.8 1447.42 -379" stroke="#04002C" stroke-miterlimit="10"/>
<path d="M-981.471 872C-902.556 813.1 -763.885 779.4 -633.956 792.1C-568.333 798.4 -505.944 814.5 -445.829 827.8C-384.278 841.5 -326.079 852.9 -264.887 850.8C-245.248 850.2 -225.609 848.1 -205.731 844.1C-130.647 829 -56.043 817.7 23.95 799.3C111.128 779.2 168.847 736.1 218.783 685.8C230.399 674.1 241.895 662.7 253.151 651.5C286.322 618.6 319.493 588.8 369.069 572.5C397.33 563.2 430.022 557.4 468.821 557C566.178 556 632.04 601.4 710.357 609.6C720.775 610.7 731.313 610.9 741.851 610.5C794.182 608.4 847.59 587.7 886.389 551C933.092 506.7 956.802 440.4 949.977 376.7C944.109 321.7 919.081 270.2 904.112 216.6C878.007 124.7 882.797 24.2999 918.123 -64.3001C937.403 -112.7 965.784 -156.9 1002.07 -195.6C1068.17 -266.1 1160.74 -317 1264.44 -346.3C1323.36 -362.9 1385.39 -371.6 1447.78 -371.3" stroke="#04002C" stroke-miterlimit="10"/>
<path d="M-973.089 885.8C-893.095 834.5 -755.263 804.3 -626.173 815.4C-560.789 820.8 -498.759 834.7 -439.243 845.4C-378.29 856.4 -321.289 864.5 -261.414 860.2C-242.135 858.8 -222.974 856.2 -203.575 851.6C-130.288 834.4 -57.5997 820.8 21.9143 801.8C107.655 781.3 166.453 740.3 217.825 693.9C229.8 683.1 241.655 672.7 253.271 662.5C287.4 632.7 321.05 606 370.506 591.6C399.007 583.3 431.459 577.9 469.54 577.1C565.579 575.1 631.202 613.8 706.525 617.5C716.584 618 726.643 617.7 736.702 616.8C786.757 612.2 837.292 590.1 873.935 552.9C918.003 508 940.277 442.5 934.409 379.3C929.26 324.6 906.627 272.8 893.694 219.2C871.061 127.3 878.246 27.3999 915.129 -60.1001C935.367 -108.1 964.586 -151.7 1001.47 -189.7C1068.53 -259 1161.22 -308.6 1265.04 -337.8C1323.84 -354.4 1385.75 -363.2 1447.9 -363.3" stroke="#04002C" stroke-miterlimit="10"/>
<path d="M-964.586 899.7C-883.515 855.9 -746.521 829.4 -618.389 838.7C-553.365 843.2 -491.454 854.9 -432.657 862.9C-372.303 871.1 -316.619 876 -257.822 869.5C-239.021 867.4 -220.22 864.1 -201.3 859.1C-129.689 839.9 -59.1565 823.9 19.8785 804.3C104.302 783.4 164.057 744.5 216.867 702.1C229.201 692.2 241.416 682.7 253.391 673.6C288.358 646.8 322.606 623.4 371.943 610.8C400.564 603.5 432.896 598.5 470.138 597.3C564.861 594.3 630.244 626.3 702.573 625.5C712.273 625.4 721.973 624.5 731.553 623.1C779.213 616 826.994 592.4 861.482 554.8C903.035 509.3 923.871 444.5 918.962 382C914.651 327.6 894.532 275.6 883.515 221.9C864.595 129.9 874.055 30.5 912.375 -55.8C933.571 -103.5 963.509 -146.4 1000.99 -183.8C1069.01 -251.8 1161.93 -300.2 1265.88 -329.4C1324.55 -345.9 1386.23 -354.8 1448.26 -355.5" stroke="#04002C" stroke-miterlimit="10"/>
<path d="M-956.084 913.6C-873.935 877.4 -737.78 854.7 -610.605 862C-545.82 865.7 -484.269 875.2 -425.951 880.4C-366.315 885.8 -311.709 887.5 -254.109 878.8C-235.668 876 -217.346 872.1 -198.905 866.5C-128.971 845.3 -60.4737 827 18.0823 806.8C101.069 785.5 162.022 748.7 216.029 710.2C228.723 701.2 241.296 692.7 253.63 684.6C289.436 660.9 324.283 640.6 373.5 629.8C402.24 623.5 434.333 618.8 470.977 617.3C564.382 613.3 629.526 638.6 698.861 633.4C708.082 632.7 717.422 631.3 726.523 629.4C771.908 619.8 816.695 594.8 849.147 556.6C888.066 510.5 907.585 446.4 903.514 384.5C899.921 330.3 882.198 278.2 873.217 224.4C857.769 132.4 869.624 33.5 909.621 -51.8C931.775 -99.2001 962.551 -141.4 1000.51 -178.1C1069.49 -244.9 1162.53 -292 1266.6 -321.1C1325.15 -337.5 1386.59 -346.6 1448.5 -347.8" stroke="#04002C" stroke-miterlimit="10"/>
<path d="M-947.701 927.5C-864.475 898.8 -729.277 879.8 -602.821 885.3C-538.396 888.1 -476.964 895.4 -419.364 897.9C-360.328 900.6 -307.039 899.1 -250.637 888.1C-232.555 884.6 -214.712 880 -196.749 873.9C-128.612 850.6 -62.1503 830 16.0465 809.2C97.5962 787.5 159.627 752.7 215.071 718.2C228.124 710.1 241.177 702.6 253.75 695.5C290.394 674.8 325.84 657.8 375.057 648.8C403.917 643.5 435.89 639.2 471.815 637.3C563.903 632.3 628.807 650.8 695.269 641.2C704.13 639.9 712.991 637.9 721.733 635.5C764.843 623.4 806.756 596.9 837.053 558.3C873.457 511.6 891.419 448.2 888.425 387C885.671 333.1 870.343 280.7 863.398 226.8C851.423 134.8 865.793 36.4 907.226 -47.8C930.338 -94.8 961.952 -136.4 1000.39 -172.4C1070.21 -237.9 1163.49 -283.8 1267.79 -312.8C1326.23 -329.1 1387.54 -338.4 1449.21 -340" stroke="#04002C" stroke-miterlimit="10"/>
<path d="M-939.199 941.4C-854.895 920.3 -720.536 904.8 -595.038 908.6C-530.852 910.5 -469.779 915.6 -412.778 915.5C-354.34 915.4 -302.249 910.8 -247.044 897.4C-229.441 893.1 -211.958 887.9 -194.474 881.3C-128.013 856 -63.5873 833.1 14.0107 811.6C94.2432 789.5 157.351 756.8 214.113 726.2C227.525 719 240.937 712.5 253.87 706.4C291.352 688.7 327.397 675 376.494 667.8C405.593 663.5 437.207 659.6 472.533 657.3C563.304 651.3 627.969 663.1 691.437 649C699.939 647.1 708.321 644.6 716.584 641.7C757.419 627.1 796.457 599.2 824.598 560.1C858.368 512.8 875.013 450.1 872.858 389.5C870.942 335.9 857.889 283.3 852.979 229.3C844.597 137.3 861.242 39.3001 904.232 -43.6999C928.422 -90.3999 960.634 -131.3 999.673 -166.7C1070.45 -230.9 1163.85 -275.6 1268.27 -304.6C1326.59 -320.8 1387.66 -330.2 1449.09 -332.4" stroke="#04002C" stroke-miterlimit="10"/>
<path d="M-930.697 955.2C-845.315 941.7 -711.794 929.8 -587.254 931.9C-523.427 933 -462.594 935.8 -406.072 933C-348.353 930.2 -297.459 922.3 -243.332 906.7C-226.088 901.7 -209.084 895.9 -192.199 888.7C-127.534 861.3 -65.0243 836.1 12.0947 814.1C90.8902 791.6 155.196 761 213.275 734.3C227.046 728 240.817 722.5 254.109 717.4C292.429 702.8 329.073 692.3 378.051 686.8C407.27 683.5 438.764 680 473.252 677.3C562.705 670.2 627.131 675.3 687.604 656.9C695.747 654.4 703.771 651.3 711.435 647.9C749.994 630.8 786.159 601.5 812.025 561.9C843.28 514 858.488 452 857.29 392C856.213 338.7 845.555 285.9 842.681 231.8C837.771 139.8 856.931 42.3 901.358 -39.7C926.506 -86 959.557 -126.3 999.074 -161C1070.8 -224 1164.45 -267.4 1268.99 -296.3C1327.19 -312.4 1388.14 -322 1449.33 -324.7" stroke="#04002C" stroke-miterlimit="10"/>
<path d="M-922.315 969.1C-835.735 963.1 -703.172 954.9 -579.47 955.2C-515.883 955.4 -455.29 956.1 -399.486 950.5C-342.365 944.9 -292.669 933.9 -239.859 916C-222.975 910.3 -206.449 903.8 -190.043 896.1C-127.055 866.7 -66.7008 839.2 9.93923 816.5C87.4175 793.6 152.801 765.2 212.197 742.3C226.327 736.9 240.458 732.4 254.109 728.3C293.268 716.7 330.51 709.5 379.368 705.8C408.707 703.6 440.081 700.3 473.851 697.2C561.987 689.1 626.173 687.4 683.653 664.6C691.437 661.5 698.981 657.9 706.285 654C742.57 634.4 775.741 603.6 799.571 563.5C828.191 515 842.082 453.7 841.723 394.4C841.483 341.3 833.101 288.3 832.263 234.2C830.826 142.2 852.5 45.2001 898.365 -35.6999C924.47 -81.6999 958.359 -121.3 998.475 -155.3C1071.16 -217 1164.93 -259.1 1269.59 -288C1327.67 -304.1 1388.38 -313.8 1449.45 -316.9" stroke="#04002C" stroke-miterlimit="10"/>
<path d="M-913.812 983C-826.155 984.6 -694.43 979.9 -571.686 978.5C-508.458 977.8 -448.105 976.3 -392.9 968.1C-336.378 959.7 -287.879 945.5 -236.267 925.4C-219.861 919 -203.695 911.8 -187.768 903.6C-126.576 872.1 -68.1378 842.4 8.02322 819C84.0645 795.7 150.765 769.4 211.239 750.5C225.849 746 240.218 742.5 254.229 739.5C294.226 730.9 332.186 727.1 380.925 725.1C410.503 723.9 441.518 721 474.689 717.5C561.627 708.4 625.454 699.9 679.94 672.7C687.365 669 694.43 664.8 701.256 660.4C735.265 638.3 765.562 606.1 787.236 565.5C813.342 516.4 825.796 455.8 826.395 397.1C826.874 344.3 821.006 291.1 822.203 236.9C824.239 144.8 848.309 48.4001 895.73 -31.3999C922.793 -77.0999 957.401 -116 998.116 -149.3C1071.64 -209.7 1165.65 -250.6 1270.55 -279.4C1328.63 -295.4 1388.98 -305.3 1449.93 -308.9" stroke="#04002C" stroke-miterlimit="10"/>
<path d="M-905.31 996.9C-816.575 1006 -685.688 1005 -563.903 1001.8C-500.914 1000.2 -440.8 996.5 -386.194 985.6C-330.27 974.5 -283.089 957.1 -232.555 934.7C-216.508 927.6 -200.821 919.7 -185.373 911C-125.857 877.4 -69.5748 845.4 6.10722 821.5C80.8312 797.8 148.61 773.7 210.401 758.6C225.369 755 240.099 752.5 254.469 750.5C295.303 744.8 333.863 743.3 382.482 744.1C412.18 744.6 443.075 741.4 475.527 737.5C561.148 727.3 624.736 712.1 676.228 680.5C683.293 676.2 689.88 671.5 696.346 666.6C728.08 642 755.503 608.3 775.022 567.3C798.493 517.6 809.63 457.7 811.067 399.6C812.384 347.1 808.791 293.7 812.025 239.3C817.533 147.2 844.118 51.3001 893.095 -27.4999C921.237 -72.7999 956.563 -111.1 997.757 -143.8C1072.24 -203 1166.48 -242.6 1271.39 -271.4C1329.34 -287.3 1389.58 -297.3 1450.29 -301.4" stroke="#04002C" stroke-miterlimit="10"/>
<path d="M-896.927 1010.7C-807.115 1027.4 -677.186 1029.7 -556.119 1025C-493.49 1022.4 -433.615 1016.7 -379.607 1003C-324.403 989.1 -278.299 968.6 -229.082 943.8C-213.395 935.9 -198.186 927.5 -183.217 918.2C-125.498 882.6 -71.1315 848.3 4.07146 823.7C77.3585 799.7 146.335 777.6 209.443 766.4C224.771 763.7 239.859 762.1 254.588 761.2C296.142 758.5 335.42 761.5 383.918 762.9C413.856 763.8 444.392 761.6 476.126 757.3C560.43 746.1 623.778 724.1 672.396 688.2C678.982 683.3 685.329 678 691.197 672.6C720.655 645.5 745.204 610.4 762.568 568.9C783.524 518.6 793.104 459.4 795.499 402C797.655 349.8 796.218 296.1 801.726 241.7C810.468 149.6 839.807 54.2001 890.222 -23.4999C919.321 -68.4999 955.485 -106.1 997.158 -138.1C1072.6 -196 1166.96 -234.4 1272.1 -263.1C1329.94 -278.9 1389.94 -289.1 1450.41 -293.7" stroke="#04002C" stroke-miterlimit="10"/>
<path d="M-888.425 1024.6C-797.535 1048.9 -668.444 1054.8 -548.335 1048.4C-485.945 1044.9 -426.43 1037 -373.021 1020.7C-318.415 1004.1 -273.629 980.3 -225.489 953.3C-210.281 944.7 -195.552 935.6 -180.942 925.8C-124.899 888.1 -72.5685 851.6 2.15553 826.3C74.1253 801.9 144.179 782.1 208.604 774.6C224.292 772.8 239.739 772.4 254.828 772.3C297.219 771.9 337.096 778.9 385.475 782.1C415.533 784 445.949 782.1 476.964 777.5C559.951 765.2 622.94 736.4 668.684 696.2C674.911 690.7 680.779 684.9 686.168 679C713.351 649.4 735.026 612.8 750.234 570.9C768.556 520 776.818 461.5 780.171 404.7C783.165 352.7 784.123 298.9 791.548 244.4C803.882 152.3 835.616 57.3999 887.467 -19.3C917.644 -63.9 954.407 -100.9 996.679 -132.2C1072.96 -188.8 1167.56 -226 1272.82 -254.6C1330.54 -270.3 1390.3 -280.7 1450.65 -285.8" stroke="#04002C" stroke-miterlimit="10"/>
<path d="M-879.923 1038.5C-787.955 1070.3 -659.703 1079.9 -540.551 1071.7C-478.521 1067.3 -419.125 1057.2 -366.315 1038.2C-312.308 1018.8 -268.599 992 -221.777 962.6C-206.928 953.3 -192.678 943.5 -178.667 933.2C-124.42 893.4 -74.0055 854.7 0.119799 828.7C70.6525 804 141.904 786.3 207.647 782.6C223.693 781.7 239.5 782.1 254.948 783.2C298.178 786.4 338.653 796.2 386.912 801C417.089 804 447.386 802.4 477.683 797.4C559.352 784 621.982 748.5 664.852 703.9C670.72 697.8 676.108 691.4 681.138 685C705.926 652.9 724.727 614.9 737.9 572.4C753.707 520.8 760.532 463.1 764.724 406.9C768.556 355.2 771.789 301.2 781.369 246.6C797.176 154.5 831.424 60.0999 884.713 -15.5001C915.848 -59.7001 953.45 -96.2 996.2 -126.8C1073.44 -182.2 1168.16 -218.1 1273.66 -246.6C1331.26 -262.2 1390.9 -272.7 1451.01 -278.3" stroke="#04002C" stroke-miterlimit="10"/>
<path d="M-871.541 1052.4C-778.495 1091.8 -651.081 1104.9 -532.768 1095C-470.977 1089.7 -411.94 1077.4 -359.729 1055.7C-306.44 1033.6 -263.929 1003.5 -218.184 971.9C-203.695 961.9 -189.924 951.4 -176.392 940.6C-124.061 898.6 -75.4425 857.9 -1.79623 831.2C67.4193 806.1 139.748 789.9 206.688 790.8C223.214 791 239.38 792.1 255.187 794.3C299.255 800.4 340.33 813.7 388.589 820.2C418.886 824.3 448.943 822.9 478.641 817.6C558.993 803.2 621.383 760.9 661.259 712C666.768 705.3 671.678 698.4 676.228 691.5C698.741 656.9 714.668 617.5 725.685 574.5C738.858 522.3 744.486 465.3 749.515 409.8C754.186 358.4 759.814 304.1 771.429 249.5C790.709 157.3 827.592 63.5001 882.198 -10.9999C914.411 -54.8999 952.731 -90.7 995.961 -120.6C1074.16 -174.7 1169.12 -209.4 1274.62 -237.9C1332.1 -253.4 1391.49 -264.1 1451.49 -270.2" stroke="#04002C" stroke-miterlimit="10"/>
<path d="M-863.038 1066.3C-768.795 1113.2 -642.339 1130 -524.984 1118.3C-463.552 1112.1 -404.635 1097.7 -353.023 1073.3C-300.333 1048.4 -259.019 1015.2 -214.592 981.3C-200.462 970.6 -187.169 959.5 -174.117 948.1C-123.462 904.1 -76.8795 861.1 -3.83203 833.7C64.0662 808.3 137.473 795 205.73 798.9C222.615 799.9 239.141 802.1 255.307 805.3C300.333 814.3 341.767 831.1 390.026 839.3C420.442 844.5 450.38 843.4 479.239 837.7C558.274 822.2 620.305 773.2 657.308 719.9C662.457 712.6 667.008 705.1 671.079 697.7C691.317 660.6 704.37 619.7 713.111 576.3C723.769 523.5 727.96 467.2 733.828 412.3C739.456 361.2 747.24 306.7 760.892 251.9C783.644 159.7 823.162 66.4999 879.085 -7.1001C912.375 -50.6001 951.294 -85.8001 995.242 -115C1074.4 -167.9 1169.48 -201.2 1275.22 -229.7C1332.58 -245.2 1391.85 -256 1451.49 -262.6" stroke="#04002C" stroke-miterlimit="10"/>
<path d="M-854.536 1080.1C-759.215 1134.6 -633.717 1155 -517.2 1141.6C-456.008 1134.5 -397.45 1117.9 -346.437 1090.8C-294.346 1063.1 -254.229 1026.8 -210.999 990.5C-197.348 979.1 -184.415 967.3 -171.841 955.5C-122.983 909.4 -78.3165 864.3 -5.74803 836.1C60.833 810.4 135.198 799.3 204.892 806.9C222.136 808.8 239.021 811.9 255.547 816.2C301.411 828.1 343.443 848.4 391.582 858.3C422.238 864.6 451.817 863.7 480.078 857.7C557.676 841 619.347 785.3 653.595 727.7C658.266 719.8 662.457 711.8 666.049 703.9C684.012 664.3 694.191 622 700.777 578.1C708.8 524.7 711.674 469.1 718.5 414.8C724.966 364 735.145 309.3 750.832 254.4C777.058 162.2 819.09 69.5 876.57 -3.00005C910.938 -46.1 950.575 -80.7 995.003 -109.3C1075 -160.9 1170.32 -193 1276.18 -221.4C1333.54 -236.8 1392.45 -247.8 1451.97 -254.8" stroke="#04002C" stroke-miterlimit="10"/>
<path d="M-846.034 1094C-698.861 1188.7 -485.826 1194.7 -339.731 1108.3C-288.358 1077.9 -249.439 1038.3 -207.287 999.8C-142.263 940.3 -98.195 874.7 -7.66395 838.5C73.6463 806 171.003 800.1 255.666 827.2C302.369 842.1 345 865.8 393.02 877.3C520.673 907.8 626.891 801.6 661.02 710.1C695.748 616.9 689.042 515.1 703.172 417.3C722.691 281.8 779.692 115 873.816 1.09991C972.729 -118.7 1112.24 -169 1276.89 -213.1C1334.13 -228.4 1392.81 -239.5 1452.21 -247.1" stroke="#04002C" stroke-miterlimit="10"/>
</g>
<mask id="mask1_7_2696" style="mask-type:luminance" maskUnits="userSpaceOnUse" x="0" y="0" width="1437" height="800">
<path d="M1437 0H0V800H1437V0Z" fill="white"/>
</mask>
<g mask="url(#mask1_7_2696)">
<path d="M1676.14 478.4C1643.21 428.9 1605.49 380.9 1555.55 342.6C1505.62 304.3 1442.39 276.1 1374.85 272C1307.31 267.9 1235.82 290.5 1196.3 336.5C1174.51 361.8 1163.49 392.2 1149.6 421.1C1135.71 450 1117.51 479.1 1086.61 496.5C1055.72 513.9 1009.25 515.4 984.225 492.3C956.922 467 965.065 425 939.678 398.3C911.178 368.3 856.452 371.8 811.187 378.1C765.921 384.4 711.315 388.2 682.455 358.5C659.344 334.7 665.451 297 690.479 274.6C715.506 252.2 754.784 243.9 791.308 246.8C827.832 249.7 862.2 262.3 894.652 276.5C936.086 294.6 984.465 316.1 1026.62 299.4C1049.97 290.2 1065.3 270.8 1074.64 250.7C1083.98 230.6 1088.53 209.2 1096.91 188.8C1123.73 123.7 1192.95 72.0999 1273.42 57.0999C1334.61 45.6999 1401.19 53.9999 1458.08 32.0999C1503.94 14.4999 1536.63 -20.2001 1567.41 -53.6001L1676.14 478.4Z" fill="#9592B7"/>
</g>
<mask id="mask2_7_2696" style="mask-type:luminance" maskUnits="userSpaceOnUse" x="0" y="0" width="1437" height="800">
<path d="M1437 0H0V800H1437V0Z" fill="white"/>
</mask>
<g mask="url(#mask2_7_2696)">
<path d="M-250.757 900.8C-137.234 915.8 -17.1243 892.2 76.4005 836.4C151.963 791.4 213.395 725.4 302.249 703C348.353 691.4 397.45 692.9 445.47 695.2C493.49 697.5 542.228 700.6 589.17 692C636.112 683.4 682.096 661 703.172 624.9C719.937 596.2 718.74 560.6 699.939 532.7C681.138 504.8 645.452 485.4 607.372 482.4C550.85 478 499.238 506.9 453.613 535C407.988 563.1 357.693 593 301.052 591C221.418 588.2 162.381 523.8 83.825 512.6C15.2083 502.8 -50.8938 535.3 -109.691 566.4L-250.757 900.8Z" fill="#51499A"/>
</g>
<mask id="mask3_7_2696" style="mask-type:luminance" maskUnits="userSpaceOnUse" x="0" y="0" width="1437" height="800">
<path d="M1437 0H0V800H1437V0Z" fill="white"/>
</mask>
<g mask="url(#mask3_7_2696)">
<path d="M-50.774 755.2C-40.4755 706.8 18.3217 677.9 74.8437 672.3C131.366 666.7 189.085 677.7 246.326 677.7C399.606 677.6 544.144 589.5 594.319 465.5C610.366 425.8 617.431 383.4 633.118 343.5C648.805 303.7 675.39 264.8 718.62 245.9C780.77 218.6 858.608 239.6 921.357 270.1C984.106 300.6 1042.78 341 1112.24 355C1203.49 373.4 1298.45 341.7 1368.26 290.8C1438.08 239.9 1487.41 171.4 1535.55 104" stroke="#1E1A43" stroke-miterlimit="10"/>
<path d="M-54.2468 750.5C-42.8706 702.3 15.6872 673.5 72.329 667.7C96.8777 665.2 121.546 665.8 146.334 667.5C178.906 669.7 211.478 673.6 243.811 674.2C309.793 675.4 374.219 661.3 430.741 633.9C474.449 612.7 513.248 584.8 544.264 551.3C566.417 527.5 584.14 500.7 596.475 471.6C601.983 458.6 606.534 445.2 610.725 431.7C619.227 404.3 626.173 376.5 637.19 350C649.644 319.9 668.564 290.8 696.586 271C705.327 264.8 714.788 259.5 725.206 255.3C768.795 237.8 819.21 243.8 867.469 258.7C888.306 265.1 908.783 273.2 927.823 281.8C949.138 291.5 969.975 301.9 990.692 311.9C1031.41 331.5 1071.76 349.6 1115.35 356.1C1143.73 360.4 1171.63 359.2 1199.42 354.1C1255.58 343.6 1310.9 315.6 1357.01 279.8C1369.58 270 1381.68 259.6 1393.41 248.9C1445.26 201.1 1488.61 145.9 1531.36 93.7002" stroke="#1E1A43" stroke-miterlimit="10"/>
<path d="M-57.5998 745.8C-45.1458 697.9 13.1725 669.1 69.934 663.1C94.4827 660.5 119.271 661.1 144.179 662.9C176.751 665.3 209.203 669.6 241.655 670.8C307.518 673.3 371.704 661.4 428.825 635.2C473.012 614.9 512.41 588.3 544.623 556.1C567.615 533 585.937 506.6 598.87 477.7C604.618 464.8 609.408 451.4 613.719 437.9C622.58 410.6 629.885 382.7 641.381 356.4C654.434 326.5 673.953 298.1 702.932 279.3C711.914 273.5 721.494 268.5 731.912 264.7C775.74 248.8 825.437 256.3 873.576 271.2C894.532 277.7 915.129 285.4 934.289 293.5C955.844 302.5 976.92 312.1 997.517 320.8C1038.11 338.1 1077.27 353.4 1118.35 357.2C1144.93 359.7 1170.44 356.8 1195.94 350.2C1247.68 336.7 1300.25 306.1 1345.51 268.8C1357.96 258.5 1369.94 247.8 1381.68 236.8C1434.01 187.6 1480.59 132.8 1526.69 83.5" stroke="#1E1A43" stroke-miterlimit="10"/>
<path d="M-61.0725 741C-47.5407 693.4 10.4182 664.5 67.2994 658.4C91.8482 655.8 116.756 656.3 141.664 658.2C174.236 660.7 206.688 665.4 239.021 667.2C304.764 670.9 368.83 661.4 426.549 636.3C471.096 616.9 511.332 591.7 544.623 560.7C568.573 538.4 587.493 512.4 600.905 483.7C606.893 470.9 611.803 457.6 616.473 444.1C625.694 416.8 633.478 388.9 645.333 362.8C658.865 333.1 679.102 305.4 708.92 287.5C718.141 282 727.721 277.4 738.259 274C782.207 259.7 831.305 268.7 879.444 283.6C900.4 290.1 921.117 297.6 940.636 305.1C962.431 313.5 983.626 322 1004.22 329.7C1044.7 344.7 1082.9 357.2 1121.34 358.2C1146.25 358.9 1169.12 354.3 1192.35 346.3C1239.65 330 1289.47 296.7 1333.9 257.7C1346.11 247 1358.08 235.8 1369.94 224.5C1422.75 173.8 1472.69 119.5 1522.02 73.1001" stroke="#1E1A43" stroke-miterlimit="10"/>
<path d="M-64.5453 736.3C-49.9358 688.9 7.78372 660.1 64.7847 653.8C89.4532 651.1 114.361 651.6 139.269 653.7C171.841 656.4 204.293 661.4 236.506 663.9C302.129 668.8 366.076 661.6 424.274 637.7C469.3 619.2 510.255 595.4 544.623 565.6C569.531 544.1 589.05 518.5 602.941 490C609.168 477.2 614.317 464 619.107 450.5C628.687 423.3 636.83 395.3 649.284 369.4C663.415 340 684.132 312.8 715.027 296C724.368 290.9 734.187 286.6 744.605 283.6C788.793 270.9 837.172 281.4 885.192 296.4C906.148 303 927.104 310.1 946.743 317.1C968.658 324.9 990.213 332.5 1010.69 338.9C1051.05 351.5 1088.29 361.3 1124.09 359.6C1147.32 358.5 1167.56 352.2 1188.64 342.7C1231.51 323.4 1278.45 287.6 1322.28 247C1334.25 235.8 1346.23 224.3 1358.2 212.7C1411.49 160.6 1464.66 106.8 1517.35 63.2002" stroke="#1E1A43" stroke-miterlimit="10"/>
<path d="M-67.8983 731.6C-52.3308 684.5 5.26897 655.7 62.3897 649.2C87.0582 646.4 112.086 646.9 136.994 649.1C169.566 651.9 202.018 657.4 234.111 660.4C299.614 666.6 363.441 661.6 422.238 638.9C467.743 621.3 509.297 598.8 544.862 570.3C570.728 549.5 590.727 524.4 605.217 496C611.683 483.3 617.072 470.1 621.982 456.6C632.041 429.4 640.543 401.4 653.356 375.7C667.965 346.5 689.401 320 721.254 304.1C730.834 299.3 740.654 295.4 751.192 292.8C795.499 281.7 843.279 293.6 891.299 308.7C912.375 315.3 933.451 322.2 953.33 328.6C975.483 335.8 997.158 342.4 1017.64 347.7C1057.87 358 1094.16 365 1127.33 360.5C1149 357.6 1166.48 349.6 1185.41 338.6C1223.85 316.4 1268.03 277.9 1311.02 235.7C1322.88 224 1334.73 212.1 1346.71 200.2C1400.48 146.6 1456.88 93.3001 1513.04 52.6001" stroke="#1E1A43" stroke-miterlimit="10"/>
<path d="M-71.371 726.8C-54.7258 680 2.6345 651.1 59.875 644.6C84.5435 641.8 109.691 642.2 134.599 644.5C167.291 647.5 199.623 653.3 231.716 656.9C297.1 664.3 360.807 661.7 420.083 640.1C466.067 623.4 508.339 602.3 544.982 575C571.806 555 592.403 530.3 607.372 502.1C613.958 489.5 619.586 476.4 624.855 462.9C635.274 435.7 644.135 407.7 657.427 382.2C672.516 353.2 694.55 327.3 727.481 312.5C737.301 308.1 747.24 304.5 757.778 302.3C802.325 292.8 849.387 306.2 897.407 321.3C918.483 327.9 939.798 334.5 959.796 340.4C982.189 347 1003.98 352.6 1024.58 356.7C1064.58 364.7 1100.26 368.9 1130.56 361.7C1150.68 356.9 1165.53 347.2 1182.17 334.9C1216.18 309.8 1257.61 268.7 1299.89 224.9C1311.5 212.8 1323.36 200.5 1335.45 188.3C1389.7 133.3 1449.45 80.4 1508.85 42.5" stroke="#1E1A43" stroke-miterlimit="10"/>
<path d="M-74.724 722.1C-57.001 675.6 0.119706 646.7 57.3602 640C82.1485 637.1 107.296 637.5 132.324 639.9C165.015 643 197.228 649.2 229.321 653.5C294.585 662.2 358.172 661.8 417.927 641.4C464.39 625.6 507.381 605.9 544.982 579.8C572.764 560.6 593.96 536.3 609.408 508.3C616.234 495.8 622.101 482.7 627.49 469.2C638.267 442.1 647.488 414 661.259 388.7C676.947 359.9 699.46 334.7 733.469 320.8C743.408 316.7 753.467 313.5 764.125 311.6C808.791 303.7 855.254 318.6 903.154 333.7C924.35 340.4 945.785 346.7 965.903 352C988.536 358 1010.57 362.6 1031.05 365.6C1070.92 371.3 1105.77 372.5 1133.19 362.8C1151.88 356.2 1163.85 344.8 1178.34 331C1207.92 302.9 1246.48 259.3 1288.03 213.8C1299.53 201.2 1311.26 188.5 1323.48 176C1378.2 119.5 1441.19 67.2001 1503.94 32.1001" stroke="#1E1A43" stroke-miterlimit="10"/>
<path d="M-78.1968 717.4C-59.3961 671.1 -2.51477 642.3 54.8455 635.4C79.6337 632.4 104.901 632.8 129.929 635.3C162.62 638.6 194.833 645.1 226.807 650C291.951 659.9 355.418 661.8 415.772 642.6C462.714 627.7 506.423 609.4 545.102 584.5C573.842 566 595.517 542.2 611.563 514.3C618.628 501.9 624.616 488.8 630.244 475.3C641.381 448.2 651.081 420.1 665.211 395C681.377 366.4 704.609 341.8 739.456 329C749.635 325.3 759.814 322.4 770.472 320.9C815.378 314.6 861.002 331 909.022 346.1C930.218 352.8 951.773 358.8 972.25 363.6C995.123 369 1017.28 372.7 1037.75 374.4C1077.51 377.8 1111.64 376 1136.19 363.7C1153.43 355.1 1162.53 342.1 1174.87 327C1200.01 295.9 1235.82 249.8 1276.65 202.7C1287.91 189.7 1299.65 176.6 1311.86 163.7C1367.07 105.8 1433.29 53.9002 1499.39 21.7002" stroke="#1E1A43" stroke-miterlimit="10"/>
<path d="M-81.5498 712.6C-61.6713 666.6 -5.02951 637.7 52.4505 630.7C77.2387 627.7 102.506 628 127.653 630.6C160.345 634 192.558 641 224.412 646.5C289.436 657.7 352.664 661.9 413.617 643.8C461.038 629.8 505.465 612.9 545.222 589.2C574.92 571.5 597.193 548.1 613.719 520.4C621.023 508.1 627.25 495.1 633.118 481.6C644.734 454.6 654.673 426.4 669.402 401.5C686.167 373.1 709.878 349.1 745.803 337.4C756.101 334 766.4 331.6 777.177 330.4C822.203 325.7 867.229 343.6 915.249 358.7C936.565 365.4 958.24 371.2 978.837 375.4C1001.95 380.1 1024.22 382.9 1044.7 383.5C1084.22 384.6 1117.75 379.6 1139.42 365C1155.23 354.4 1161.46 339.9 1171.63 323.3C1192.35 289.3 1225.4 240.5 1265.4 191.9C1276.42 178.4 1288.15 164.9 1300.49 151.8C1356.17 92.5002 1425.62 41.0002 1495.08 11.7002" stroke="#1E1A43" stroke-miterlimit="10"/>
<path d="M-85.0225 707.9C-64.186 662.2 -7.66406 633.3 49.9357 626.1C74.7239 623 100.111 623.3 125.258 626.1C157.95 629.7 190.163 637 222.017 643.1C286.921 655.5 350.029 662 411.581 645.1C459.481 632 504.746 616.5 545.461 594C576.117 577.1 598.99 554.1 615.994 526.6C623.538 514.4 630.005 501.4 635.992 487.9C647.967 460.9 658.386 432.7 673.474 408C690.718 379.9 715.027 356.4 752.03 345.7C762.568 342.7 772.986 340.6 783.764 339.8C829.029 336.7 873.337 356 921.237 371.2C942.552 378 964.466 383.4 985.183 387.1C1008.41 391.2 1031.05 393 1051.4 392.4C1090.8 391.2 1123.61 382.9 1142.41 366C1156.67 353.2 1160.26 337.3 1168.16 319.3C1184.45 282.3 1214.74 231 1253.9 180.7C1264.8 166.7 1276.42 152.9 1288.87 139.4C1345.03 78.6002 1417.84 27.7002 1490.65 1.2002" stroke="#1E1A43" stroke-miterlimit="10"/>
<path d="M-88.4953 703.2C-66.581 657.7 -10.2985 628.9 47.3013 621.5C72.2092 618.3 97.5962 618.6 122.863 621.5C155.555 625.2 187.648 632.9 219.502 639.6C284.286 653.3 347.275 662 409.305 646.3C457.684 634.1 503.668 620 545.461 598.7C577.075 582.6 600.546 560 618.03 532.6C625.813 520.5 632.4 507.5 638.627 494C650.961 467 661.738 438.9 677.306 414.3C695.029 386.4 719.937 363.5 758.017 353.9C768.675 351.2 779.333 349.5 789.991 349.1C835.376 347.6 879.085 368.4 926.985 383.6C948.42 390.4 970.454 395.6 991.41 398.7C1014.88 402.2 1037.63 403.1 1057.99 401.3C1097.15 397.8 1129.12 386.1 1145.29 367.1C1157.98 352.2 1158.82 334.9 1164.57 315.5C1176.42 275.5 1203.85 221.7 1242.41 169.8C1253.06 155.4 1264.68 141.1 1277.13 127.4C1333.78 65.2001 1409.82 14.7001 1485.98 -8.8999" stroke="#1E1A43" stroke-miterlimit="10"/>
<path d="M-91.8483 698.4C-68.8563 653.2 -12.8133 624.3 44.9062 616.8C69.8142 613.6 95.3209 613.8 120.588 616.8C153.4 620.7 185.373 628.8 217.107 636.1C281.772 651 344.64 662 407.27 647.5C456.128 636.2 502.83 623.5 545.701 603.4C578.273 588.1 602.223 565.9 620.305 538.7C628.208 526.7 635.154 513.8 641.501 500.3C654.194 473.4 665.331 445.2 681.377 420.9C699.699 393.2 725.086 370.8 764.244 362.3C775.142 359.9 785.799 358.6 796.577 358.6C842.202 358.7 885.192 381 933.092 396.3C954.527 403.1 976.681 408 997.877 410.6C1021.59 413.5 1044.46 413.4 1064.82 410.4C1103.86 404.7 1134.75 389.5 1148.28 368.3C1159.3 351.2 1157.5 332.5 1160.98 311.7C1168.28 268.7 1193.07 212.3 1230.79 158.8C1241.21 143.9 1252.7 129.3 1265.4 115.2C1322.52 51.5002 1401.79 1.50019 1481.31 -19.2998" stroke="#1E1A43" stroke-miterlimit="10"/>
<path d="M-95.321 693.7C-71.2513 648.8 -15.4478 619.9 42.3915 612.3C67.2995 609 92.9259 609.2 118.193 612.3C151.005 616.3 182.978 624.8 214.592 632.7C279.137 648.8 341.886 662.2 404.994 648.8C454.212 638.4 501.752 627.1 545.701 608.2C579.35 593.7 603.779 571.9 622.341 544.9C630.484 533 637.669 520.1 644.255 506.6C657.427 479.7 668.924 451.5 685.449 427.4C704.25 399.9 730.235 378.1 770.352 370.7C781.369 368.7 792.266 367.7 803.043 368.1C848.788 369.8 891.179 393.6 938.96 408.9C960.395 415.8 982.788 420.3 1004.1 422.4C1028.05 424.7 1051.05 423.7 1071.4 419.5C1110.2 411.5 1140.02 392.9 1151.16 369.6C1160.38 350.3 1156.07 330.3 1157.38 308C1160.26 262.1 1182.29 203.1 1219.29 148C1229.59 132.6 1240.97 117.6 1253.66 103.3C1311.26 38.2002 1393.77 -11.2998 1476.64 -29.2998" stroke="#1E1A43" stroke-miterlimit="10"/>
<path d="M-98.674 689C-73.5265 644.3 -17.9625 615.5 39.9965 607.7C65.0242 604.3 90.6507 604.5 115.918 607.7C148.729 611.9 180.703 620.7 212.317 629.3C276.742 646.7 339.371 662.3 403.078 650.1C452.775 640.6 501.154 630.8 546.06 613C580.668 599.3 605.695 577.9 624.736 551C633.118 539.1 640.423 526.3 647.249 512.8C660.78 486 672.636 457.7 689.64 433.8C709.04 406.5 735.504 385.2 776.698 378.9C787.955 377.2 798.852 376.6 809.749 377.4C855.733 380.6 897.406 406 945.187 421.3C966.742 428.2 989.255 432.5 1010.81 434C1035 435.7 1058.23 433.7 1078.47 428.3C1117.15 418 1145.77 396.1 1154.51 370.6C1161.81 349.1 1155.11 327.7 1154.27 304.1C1152.59 255.2 1171.99 193.7 1208.16 136.9C1218.22 121.1 1229.59 105.7 1242.41 91.0001C1300.48 24.4001 1386.35 -24.6 1472.57 -39.7" stroke="#1E1A43" stroke-miterlimit="10"/>
<path d="M-102.147 684.2C-76.0413 639.8 -20.5971 610.9 37.3619 603C62.3897 599.6 88.136 599.7 113.523 603.1C146.334 607.4 178.308 616.7 209.802 625.8C274.108 644.4 336.497 662.3 400.803 651.3C450.978 642.7 500.076 634.3 546.06 617.7C581.626 604.8 607.133 583.8 626.772 557.1C635.394 545.3 642.938 532.6 649.883 519.1C663.774 492.3 676.108 464 693.472 440.3C713.351 413.2 740.294 392.5 782.686 387.3C794.182 385.9 805.199 385.7 816.096 386.9C862.2 391.7 903.274 418.5 950.935 433.9C972.49 440.9 995.242 444.8 1016.92 445.8C1041.23 446.8 1064.7 444 1084.93 437.4C1123.49 424.9 1150.8 399.7 1157.26 371.8C1162.65 348.2 1153.55 325.4 1150.56 300.3C1144.45 248.4 1160.98 184.4 1196.54 126C1206.36 109.7 1217.74 93.9002 1230.67 79.0002C1289.23 11.0002 1378.32 -37.5998 1467.9 -49.7998" stroke="#1E1A43" stroke-miterlimit="10"/>
<path d="M-105.5 679.5C-78.3165 635.4 -23.1118 606.5 34.9669 598.4C59.9947 594.9 85.8607 595 111.248 598.5C144.059 603 175.913 612.6 207.407 622.3C271.593 642.2 333.863 662.4 398.648 652.5C449.302 644.8 499.238 637.8 546.18 622.4C582.703 610.4 608.809 589.7 628.927 563.2C637.788 551.5 645.452 538.8 652.757 525.3C667.007 498.6 679.701 470.2 697.544 446.7C717.901 419.9 745.444 399.6 788.913 395.6C800.529 394.5 811.665 394.7 822.682 396.3C869.026 402.7 909.381 431 957.042 446.4C978.717 453.4 1001.59 457.1 1023.5 457.5C1048.05 457.9 1071.64 454.1 1091.88 446.3C1130.2 431.5 1156.31 403 1160.5 372.9C1163.97 347.2 1152.35 323 1147.32 296.5C1136.55 241.7 1150.56 175 1185.29 115.1C1194.99 98.4 1206.24 82.2 1219.17 66.9C1278.21 -2.60001 1370.54 -50.7 1463.46 -60" stroke="#1E1A43" stroke-miterlimit="10"/>
<path d="M-108.973 674.8C-80.7115 631 -25.7463 602.1 32.4522 593.8C57.5997 590.2 83.4657 590.3 108.853 593.9C141.784 598.6 173.518 608.5 205.012 618.9C269.078 640 331.228 662.5 396.612 653.8C447.745 647 498.399 641.5 546.419 627.2C584.021 616 610.605 595.7 631.202 569.4C640.303 557.8 648.207 545.1 655.631 531.6C670.241 504.9 683.294 476.5 701.615 453.2C722.572 426.6 750.713 406.8 795.02 403.9C806.876 403.1 818.132 403.7 829.149 405.6C875.612 413.6 915.369 443.4 963.029 458.8C984.704 465.8 1007.7 469.2 1029.85 469.1C1054.64 468.9 1078.47 464.2 1098.59 455.2C1136.79 438.1 1161.57 406.5 1163.37 373.9C1164.93 346.2 1150.92 320.4 1143.73 292.5C1128.52 234.8 1139.78 165.5 1173.67 103.9C1183.13 86.7 1194.39 70.1 1207.44 54.6C1266.95 -16.3 1362.52 -63.9 1458.79 -70.5" stroke="#1E1A43" stroke-miterlimit="10"/>
<path d="M-112.445 670C-83.1065 626.4 -28.5005 597.5 29.9375 589.1C55.085 585.5 80.951 585.5 106.458 589.2C139.389 594 171.123 604.4 202.497 615.3C266.444 637.7 328.474 662.4 394.337 654.9C445.949 649 497.322 645 546.419 631.8C584.979 621.4 612.042 601.5 633.238 575.3C642.578 563.8 650.721 551.2 658.266 537.7C673.354 511 686.766 482.6 705.567 459.5C727.002 433.1 755.742 413.8 801.127 412.1C813.102 411.7 824.479 412.7 835.615 414.9C882.318 424.5 921.237 455.8 968.897 471.2C990.692 478.3 1013.8 481.4 1036.08 480.7C1061.1 479.9 1085.05 474.2 1105.17 464C1143.25 444.7 1166.72 409.8 1166.25 374.9C1165.89 345.2 1149.6 317.9 1140.14 288.5C1120.5 227.8 1128.88 156 1162.17 92.8001C1171.39 75.1001 1182.65 58.2001 1195.82 42.3001C1255.82 -30.0999 1354.73 -77.1999 1454.24 -80.8999" stroke="#1E1A43" stroke-miterlimit="10"/>
<path d="M-115.798 665.3C-85.5015 622 -31.0153 593.1 27.4227 584.5C52.5702 580.8 78.556 580.8 104.182 584.6C137.114 589.6 168.847 600.3 200.102 611.9C263.929 635.5 325.84 662.6 392.301 656.2C444.392 651.2 496.603 648.6 546.539 636.6C586.057 627.1 613.719 607.5 635.513 581.5C644.973 570.1 653.356 557.5 661.259 544C676.707 517.4 690.478 488.9 709.758 466C731.792 439.8 761.011 421 807.474 420.4C819.689 420.3 831.185 421.7 842.202 424.3C889.024 435.5 927.344 468.3 975.004 483.8C996.799 490.9 1020.15 493.7 1042.66 492.5C1067.93 491.1 1092.12 484.5 1112.12 473.1C1150.08 451.6 1172.23 413.5 1169.48 376.1C1167.08 344.4 1148.52 315.6 1136.91 284.8C1112.84 221.1 1118.47 146.8 1150.92 81.9C1160.02 63.8 1171.15 46.4 1184.33 30.3C1244.8 -43.5 1346.95 -90.2 1449.93 -91" stroke="#1E1A43" stroke-miterlimit="10"/>
<path d="M-119.271 660.6C-87.8965 617.6 -33.6498 588.7 24.908 580C50.1752 576.2 76.161 576.2 101.788 580.1C134.719 585.2 166.452 596.3 197.587 608.5C261.294 633.4 323.085 662.7 390.026 657.5C442.596 653.4 495.526 652.4 546.539 641.4C587.015 632.8 615.276 613.5 637.549 587.7C647.249 576.4 655.871 563.8 663.894 550.3C679.701 523.7 693.951 495.2 713.59 472.5C736.103 446.5 765.921 428.1 813.462 428.8C825.796 429 837.412 430.8 848.548 433.8C895.61 446.6 933.212 480.8 980.872 496.4C1002.79 503.5 1026.26 506.1 1048.89 504.3C1074.28 502.3 1098.71 494.7 1118.7 482.1C1156.55 458.3 1177.38 417.1 1172.35 377.3C1168.04 343.6 1147.09 313.2 1133.31 281C1104.69 214.4 1107.69 137.4 1139.42 71.0001C1148.28 52.4001 1159.42 34.7001 1172.71 18.2001C1233.66 -57.0999 1339.04 -103.2 1445.38 -101.2" stroke="#1E1A43" stroke-miterlimit="10"/>
<path d="M-122.624 655.8C-76.161 594.6 14.4897 561.8 99.5122 575.4C199.743 591.4 287.28 664.7 387.99 658.6C441.039 655.4 494.687 655.8 546.778 646C606.414 634.8 639.704 600.7 666.768 556.4C701.495 499.5 728.679 433.5 819.689 437C885.431 439.5 928.062 489.5 986.86 508.8C1033.32 524 1087.81 517 1125.53 490.9C1163.25 464.8 1182.77 420.6 1175.47 378.3C1169.24 342.6 1145.89 310.7 1129.96 277C1087.69 188 1099.78 82.6001 1161.22 5.90013C1222.65 -70.7999 1331.38 -116.5 1440.95 -111.6" stroke="#1E1A43" stroke-miterlimit="10"/>
<path d="M-117.355 664.6C-70.1735 608.2 19.8785 577.7 104.302 590.2C146.574 596.4 186.69 612.2 226.327 627.4C266.923 643.1 306.799 658.3 348.472 662.8C361.884 664.2 375.536 664.6 389.307 663.4C441.159 658.9 493.609 657.8 545.461 647.6C604.258 636.1 638.148 603.4 666.169 561.6C672.636 552 678.863 542.2 685.209 532.5C703.89 504 723.769 477 755.143 462.1C772.747 453.7 793.823 449 820.168 449.8C885.072 451.6 927.583 497.4 984.465 513.9C992.009 516.1 999.793 517.7 1007.58 518.7C1046.5 523.7 1087.57 514.3 1117.63 492.2C1153.67 465.7 1172.35 421.9 1165.53 380C1159.78 344.5 1137.98 312.4 1123.25 278.7C1097.87 220.6 1094.99 155.8 1113.32 97.0002C1123.14 65.6002 1139.06 35.9002 1160.62 9.70016C1200.13 -38.0998 1258.21 -73.4999 1323.48 -92.1999C1360.96 -102.9 1400.84 -108 1440.83 -106.6" stroke="#1E1A43" stroke-miterlimit="10"/>
<path d="M-111.966 673.4C-64.186 621.8 25.387 593.6 109.332 605C151.484 610.7 191.36 625 230.519 638.6C270.635 652.5 309.793 665.8 350.748 668.8C363.92 669.8 377.212 669.7 390.744 668.2C441.518 662.4 492.652 659.9 544.144 649.3C601.983 637.6 636.591 606.1 665.451 566.8C672.157 557.7 678.623 548.6 685.209 539.5C704.489 512.9 724.607 488 755.982 474.2C773.705 466.5 794.661 462 820.527 462.5C884.593 463.7 926.985 505.2 981.95 518.9C989.255 520.7 996.679 521.9 1004.22 522.6C1041.71 526 1080.98 515.7 1109.6 493.3C1143.97 466.4 1161.81 423.1 1155.59 381.6C1150.44 346.3 1129.96 314.1 1116.67 280.3C1093.44 222.2 1092.12 157.7 1111.4 99.6001C1121.82 68.4001 1138.22 39.1001 1160.26 13.3001C1200.37 -33.6999 1258.57 -68.2999 1323.96 -86.9999C1361.44 -97.6999 1401.07 -102.9 1440.95 -101.7" stroke="#1E1A43" stroke-miterlimit="10"/>
<path d="M-106.577 682.2C-58.0787 635.4 30.8955 609.4 114.241 619.7C156.154 624.8 195.911 637.8 234.71 649.6C274.467 661.8 312.907 673 353.023 674.6C365.956 675.1 379.009 674.6 392.181 672.8C441.877 665.7 491.694 661.6 542.947 650.7C599.948 638.6 635.154 608.6 664.972 571.8C671.797 563.3 678.623 554.8 685.329 546.4C705.208 521.8 725.565 498.8 756.94 486.2C774.663 479.1 795.619 474.8 821.006 475.1C884.234 475.6 926.386 513 979.675 523.8C986.74 525.2 993.925 526.1 1001.23 526.5C1037.27 528.3 1074.76 517.1 1102.06 494.4C1134.87 467.2 1151.76 424.3 1146.13 383.2C1141.46 348 1122.54 315.7 1110.44 281.9C1089.49 223.8 1089.49 159.6 1109.84 102.2C1120.86 71.2 1137.74 42.3 1160.14 17C1200.85 -29.2 1259.17 -63 1324.55 -81.7C1361.92 -92.3 1401.55 -97.6 1441.31 -96.8" stroke="#1E1A43" stroke-miterlimit="10"/>
<path d="M-101.189 691C-51.9715 648.9 36.404 625.3 119.271 634.5C161.064 639 200.581 650.6 239.021 660.8C278.419 671.2 316.02 680.4 355.418 680.6C368.111 680.7 380.805 679.8 393.738 677.6C442.356 669.3 490.855 663.7 541.869 652.4C597.912 640 633.837 611.4 664.493 577C671.558 569.1 678.623 561.2 685.569 553.4C706.046 530.7 726.643 509.7 758.017 498.3C775.86 491.8 796.697 488 821.605 487.9C883.994 487.7 925.907 520.9 977.399 528.9C984.225 530 991.171 530.5 998.116 530.5C1032.72 530.7 1068.29 518.6 1094.28 495.6C1125.41 468 1141.34 425.6 1136.43 384.8C1132.24 349.8 1114.87 317.3 1104.09 283.5C1085.29 225.3 1086.85 161.5 1108.29 104.7C1119.9 73.9 1137.39 45.5 1160.02 20.5C1201.33 -24.9 1259.77 -58 1325.27 -76.5C1362.64 -87.1 1402.03 -92.5 1441.67 -91.9" stroke="#1E1A43" stroke-miterlimit="10"/>
<path d="M-95.9198 699.7C-45.984 662.4 41.7927 641.1 124.061 649.1C165.614 653.1 205.132 663.3 243.092 671.7C282.011 680.4 318.894 687.6 357.573 686.3C370.027 685.9 382.482 684.6 395.055 682.1C442.596 672.5 489.777 665.4 540.432 653.7C595.636 641 632.16 613.7 663.774 581.9C671.079 574.5 678.384 567.3 685.569 560.2C706.525 539.4 727.601 520.5 758.975 510.2C776.938 504.3 797.535 500.6 822.084 500.4C883.635 499.8 925.428 528.5 975.004 533.7C981.591 534.4 988.297 534.5 994.883 534.3C1027.93 533 1061.82 519.9 1086.37 496.6C1115.95 468.6 1130.92 426.6 1126.61 386.3C1122.9 351.5 1107.09 318.9 1097.51 285C1080.98 226.8 1083.98 163.3 1106.37 107.2C1118.58 76.6001 1136.55 48.6001 1159.54 24.1001C1201.45 -20.4999 1260.01 -52.7999 1325.63 -71.2999C1362.87 -81.7999 1402.15 -87.3 1441.67 -87.1" stroke="#1E1A43" stroke-miterlimit="10"/>
<path d="M-90.531 708.5C-39.8768 676 47.3012 656.9 128.971 663.9C170.284 667.3 209.682 676.1 247.284 682.9C285.843 689.8 321.888 695 359.849 692.3C372.063 691.4 384.158 689.8 396.492 686.9C442.955 676 488.819 667.4 539.234 655.4C593.481 642.4 630.723 616.5 663.175 587.1C670.72 580.3 678.264 573.7 685.569 567.2C707.124 548.3 728.439 531.4 759.814 522.3C777.776 517 798.373 513.6 822.443 513.1C883.276 511.8 924.829 536.3 972.49 538.7C978.836 539 985.183 538.8 991.65 538.2C1023.26 535.3 1055.36 521.3 1078.59 497.7C1106.49 469.3 1120.62 427.8 1116.91 387.9C1113.67 353.3 1099.3 320.5 1091.16 286.6C1076.79 228.4 1081.46 165.2 1104.69 109.8C1117.51 79.4002 1135.95 51.8002 1159.3 27.7002C1201.69 -16.0998 1260.37 -47.5998 1326.11 -66.0998C1363.35 -76.5998 1402.51 -82.1998 1441.91 -82.2998" stroke="#1E1A43" stroke-miterlimit="10"/>
<path d="M-85.1423 717.3C-33.8893 689.6 52.9295 672.8 134 678.7C175.194 681.5 214.352 689 251.595 694C289.795 699.2 325.121 702.3 362.244 698.2C374.219 696.9 386.074 694.8 398.049 691.6C443.434 679.5 488.101 669.3 538.037 656.9C591.445 643.7 629.286 619 662.697 592.2C670.48 585.9 678.264 580 685.808 574.2C707.962 557.3 729.637 542.4 760.892 534.4C778.974 529.8 799.451 526.6 823.042 525.8C883.036 523.9 924.35 544.2 970.214 543.7C976.322 543.6 982.429 543.1 988.536 542.2C1018.71 537.7 1048.89 522.8 1070.8 498.9C1097.03 470.1 1110.32 429.1 1107.21 389.5C1104.45 355 1091.76 322.1 1084.7 288.1C1072.72 229.9 1078.71 167 1103.02 112.3C1116.43 82.1002 1135.35 55.0002 1159.06 31.3002C1202.05 -11.6998 1260.85 -42.3998 1326.71 -60.7998C1363.83 -71.1998 1402.87 -76.8998 1442.15 -77.2998" stroke="#1E1A43" stroke-miterlimit="10"/>
<path d="M-79.7535 726.1C-27.782 703.2 58.438 688.8 138.91 693.4C179.865 695.8 218.903 701.7 255.786 705.1C293.507 708.5 328.115 709.6 364.519 704.1C376.255 702.3 387.75 699.8 399.486 696.3C443.674 682.9 487.143 671.3 536.839 658.5C589.409 645 627.969 621.7 662.217 597.3C670.241 591.6 678.264 586.3 686.048 581.1C708.681 566.1 730.714 553.3 761.969 546.4C780.171 542.4 800.529 539.5 823.64 538.5C882.797 536 923.991 552 967.939 548.7C973.807 548.3 979.675 547.4 985.423 546.2C1014.16 540.1 1042.54 524.3 1063.02 500.1C1087.69 470.9 1100.02 430.3 1097.39 391.2C1095.11 356.9 1083.98 323.9 1078.23 289.8C1068.41 231.6 1075.95 169 1101.22 115C1115.23 85.0002 1134.75 58.3002 1158.7 35.1002C1202.29 -7.09981 1261.21 -36.9998 1327.07 -55.3998C1364.07 -65.7998 1403.11 -71.4998 1442.15 -72.2998" stroke="#1E1A43" stroke-miterlimit="10"/>
<path d="M-74.4845 734.9C-21.7945 716.8 63.8267 704.7 143.82 708.2C184.654 710 223.453 714.6 259.977 716.2C297.339 717.9 331.109 717 366.794 710C378.17 707.8 389.547 704.9 400.923 701C444.033 686.3 486.185 673.2 535.522 660.1C587.134 646.3 626.412 624.4 661.499 602.5C669.762 597.4 678.025 592.7 686.048 588.1C709.279 575 731.672 564.2 762.807 558.5C781.129 555.1 801.247 552.4 824 551.2C882.318 548 923.392 559.8 965.424 553.7C971.053 552.9 976.681 551.6 982.07 550.1C1009.37 542.4 1035.96 525.7 1055 501.2C1077.99 471.7 1089.49 431.5 1087.45 392.7C1085.77 358.6 1075.95 325.4 1071.64 291.3C1064.1 233.1 1073.08 170.8 1099.42 117.5C1114.03 87.7 1134.03 61.4 1158.34 38.6C1202.53 -2.8 1261.57 -31.9 1327.55 -50.3C1364.55 -60.6 1403.35 -66.5 1442.39 -67.5" stroke="#1E1A43" stroke-miterlimit="10"/>
<path d="M-69.0958 743.7C-15.6873 730.3 69.3352 720.6 148.729 723C189.325 724.2 228.004 727.4 264.168 727.4C301.171 727.4 334.102 724.4 369.069 716C380.206 713.3 391.223 710 402.36 705.8C444.392 689.8 485.227 675.3 534.324 661.7C585.098 647.7 625.095 627 661.02 607.7C669.522 603.1 678.024 599.1 686.167 595.2C709.878 584 732.75 575.3 763.765 570.7C782.207 568 802.205 565.5 824.479 564C881.959 560.2 922.913 567.6 963.029 558.8C968.418 557.6 973.687 556 978.956 554.2C1004.82 545 1029.49 527.3 1047.33 502.5C1068.77 472.6 1079.31 432.9 1077.87 394.5C1076.67 360.6 1068.41 327.3 1065.3 293.1C1059.91 234.9 1070.56 172.9 1097.75 120.3C1113.08 90.8001 1133.43 64.8001 1158.22 42.5001C1203.01 1.90009 1262.16 -26.3999 1328.27 -44.7999C1365.15 -55.0999 1403.83 -60.9999 1442.75 -62.3999" stroke="#1E1A43" stroke-miterlimit="10"/>
<path d="M-63.707 752.4C-9.58002 743.8 74.8437 736.3 153.759 737.6C194.234 738.3 232.674 740.1 268.36 738.3C304.883 736.5 337.096 731.5 371.345 721.7C382.242 718.5 393.019 714.8 403.797 710.3C444.751 693 484.269 677 533.127 663.1C583.063 648.8 623.778 629.5 660.421 612.6C669.163 608.6 677.785 605.1 686.287 601.9C710.596 592.6 733.708 586 764.723 582.5C783.285 580.4 803.163 578.2 825.077 576.5C881.719 572 922.434 575.2 960.754 563.6C965.903 562 970.933 560.1 975.843 557.9C1000.27 547.1 1023.14 528.5 1039.55 503.4C1059.31 473.1 1069.01 433.8 1068.17 395.9C1067.45 362.1 1060.75 328.7 1058.95 294.5C1055.84 236.2 1067.93 174.6 1096.07 122.7C1112 93.4002 1132.95 67.9001 1157.98 45.9001C1203.37 6.10015 1262.64 -21.3999 1328.75 -39.6999C1365.63 -49.8999 1404.19 -55.9999 1442.87 -57.5999" stroke="#1E1A43" stroke-miterlimit="10"/>
<path d="M-58.3183 761.2C-3.59252 757.4 80.3522 752.2 158.669 752.4C198.905 752.5 237.225 753 272.551 749.4C308.715 745.9 340.21 738.9 373.62 727.6C384.278 724 394.816 719.9 405.234 715C445.111 696.4 483.311 679 531.81 664.6C580.787 650.1 622.221 632.1 659.822 617.7C668.804 614.3 677.665 611.4 686.407 608.9C711.195 601.5 734.786 597 765.682 594.7C784.243 593.3 804.121 591.3 825.557 589.3C881.36 584.2 921.955 583.1 958.359 568.7C963.269 566.7 968.059 564.5 972.609 562C995.601 549.6 1016.56 530.1 1031.65 504.7C1049.73 474 1058.59 435.2 1058.35 397.6C1058.11 364 1052.96 330.5 1052.36 296.2C1051.4 237.9 1065.18 176.6 1094.28 125.4C1110.8 96.3002 1132.24 71.2002 1157.62 49.7002C1203.61 10.6002 1263 -15.9998 1329.22 -34.2998C1365.99 -44.4998 1404.43 -50.5999 1443.11 -52.5999" stroke="#1E1A43" stroke-miterlimit="10"/>
<path d="M-53.0493 770C2.39494 771 85.741 768 163.459 767.2C203.455 766.7 241.655 765.8 276.622 760.6C312.428 755.3 343.084 746.3 375.775 733.6C386.194 729.5 396.373 725 406.432 719.8C445.231 699.9 482.114 681 530.373 666.3C578.512 651.6 620.664 634.9 658.984 622.9C668.205 620 677.306 617.8 686.167 615.9C711.435 610.4 735.505 608 766.28 606.8C784.961 606 804.72 604.2 825.676 602C880.641 596.2 921.117 590.9 955.605 573.6C960.275 571.3 964.826 568.6 969.137 565.8C990.692 551.8 1009.85 531.4 1023.62 505.7C1040.15 474.6 1048.05 436.3 1048.41 399.1C1048.77 365.7 1044.94 332 1045.78 297.7C1047.09 239.4 1062.3 178.4 1092.36 127.9C1109.48 99.0001 1131.4 74.3001 1157.14 53.2001C1203.73 14.9001 1263.24 -10.8999 1329.58 -29.1999C1366.35 -39.2999 1404.55 -45.5999 1443.11 -47.8999" stroke="#1E1A43" stroke-miterlimit="10"/>
<path d="M-47.6606 778.8C8.50219 784.6 91.3692 783.9 168.488 781.9C208.365 780.9 246.326 778.6 280.933 771.6C316.26 764.6 346.197 753.6 378.17 739.4C388.349 734.9 398.288 729.9 407.988 724.4C445.59 703.2 481.275 682.9 529.175 667.7C576.477 652.7 619.347 637.4 658.505 627.9C667.966 625.6 677.306 624 686.407 622.7C712.273 619.1 736.582 618.1 767.358 618.7C786.159 619 805.678 617 826.275 614.5C880.402 608.1 920.638 598.4 953.33 578.4C957.76 575.7 961.952 572.7 966.023 569.6C986.141 554 1003.5 532.7 1015.84 506.7C1030.69 475.2 1037.75 437.3 1038.71 400.6C1039.55 367.4 1037.27 333.5 1039.31 299.2C1042.78 240.9 1059.67 180.2 1090.56 130.3C1108.41 101.6 1130.68 77.4 1156.78 56.7C1203.97 19.2 1263.6 -5.8 1329.94 -24C1366.59 -34.1 1404.79 -40.4 1443.11 -43" stroke="#1E1A43" stroke-miterlimit="10"/>
<path d="M-42.2718 787.6C14.6094 798.2 96.8777 799.6 173.398 796.7C213.035 795 250.996 791.4 285.125 782.8C320.092 774 349.191 761 380.446 745.4C390.385 740.4 399.965 735.1 409.425 729.2C445.949 706.6 480.437 685 527.978 669.4C574.321 654.2 618.03 640.3 658.026 633.1C667.726 631.4 677.306 630.4 686.647 629.8C712.992 628.1 737.78 630 768.555 630.9C787.476 631.5 806.875 630 826.993 627.4C880.282 620.3 920.398 606.4 951.174 583.6C955.365 580.5 959.317 577.2 963.029 573.8C981.71 556.7 997.158 534.4 1008.18 508.1C1021.47 476.2 1027.57 438.8 1029.01 402.4C1030.45 369.3 1029.49 335.4 1032.96 300.9C1038.47 242.6 1057.03 182.2 1089.01 133C1107.45 104.5 1130.32 80.7 1156.67 60.5C1204.45 23.8 1264.08 -0.500006 1330.66 -18.6C1367.31 -28.6 1405.27 -35.1 1443.59 -38" stroke="#1E1A43" stroke-miterlimit="10"/>
<path d="M-37.0028 796.4C20.597 811.8 102.266 815.5 178.308 811.4C217.825 809.2 255.546 804.2 289.316 793.8C323.924 783.3 352.304 768.3 382.721 751.1C392.421 745.7 401.761 739.9 410.862 733.7C446.308 709.8 479.479 686.8 526.78 670.7C572.285 655.3 616.712 642.7 657.427 638C667.367 636.9 677.186 636.6 686.766 636.5C713.59 636.2 738.857 640.7 769.513 642.7C788.554 643.9 807.833 642.7 827.472 639.8C879.923 632 919.8 613.8 948.779 588.3C952.731 584.8 956.443 581.1 959.916 577.4C977.04 558.7 990.811 535.5 1000.51 508.9C1012.13 476.7 1017.4 439.7 1019.43 403.7C1021.35 370.8 1021.95 336.7 1026.62 302.2C1034.4 243.9 1054.52 183.8 1087.33 135.3C1106.37 107.1 1129.72 83.6001 1156.43 63.8001C1204.68 27.9001 1264.56 4.40008 1331.26 -13.6999C1367.78 -23.5999 1405.63 -30.1999 1443.83 -33.3999" stroke="#1E1A43" stroke-miterlimit="10"/>
<path d="M-31.614 805.2C26.5845 825.3 107.775 831.4 183.217 826.2C222.495 823.4 260.097 817 293.507 805C327.636 792.7 355.298 775.7 384.996 757.1C394.456 751.2 403.438 745 412.299 738.5C446.667 713.3 478.521 688.8 525.463 672.4C570.13 656.7 615.275 645.6 656.829 643.2C667.007 642.6 677.066 642.9 686.766 643.6C714.189 645.6 739.696 651.8 770.352 654.9C789.512 656.8 808.672 655.8 827.832 652.6C879.444 644.1 919.201 621.7 946.264 593.4C949.977 589.5 953.449 585.5 956.563 581.5C972.25 561.2 984.225 537.1 992.488 510.2C1002.43 477.6 1006.86 441 1009.49 405.5C1011.89 372.8 1014.04 338.6 1020.03 304C1029.97 245.7 1051.76 186 1085.41 138.1C1105.17 110.1 1128.88 87.0002 1156.07 67.7002C1204.92 32.6002 1264.92 9.90017 1331.62 -8.19983C1368.14 -18.0998 1405.87 -24.7998 1443.83 -28.2998" stroke="#1E1A43" stroke-miterlimit="10"/>
<path d="M-26.2253 813.9C32.6917 838.8 113.283 847.1 188.127 840.9C227.166 837.5 264.647 829.8 297.698 816C331.468 802 358.412 783 387.272 762.9C396.492 756.6 405.114 749.9 413.736 743.1C446.907 716.5 477.563 690.7 524.265 673.8C568.094 657.9 613.838 647.7 656.23 648.2C666.648 648.3 676.947 649 686.886 650.4C714.788 654.3 740.773 662.7 771.31 666.8C790.47 669.4 809.51 668.5 828.311 665.1C879.085 656 918.602 629.2 943.869 598.2C947.342 594 950.456 589.6 953.33 585.2C967.58 563.3 977.639 538.3 984.584 511.1C992.967 478.1 996.44 442 999.673 406.8C1002.67 374.3 1006.14 339.9 1013.56 305.3C1025.78 247 1049.13 187.6 1083.74 140.4C1104.09 112.6 1128.4 90.0001 1155.83 71.0001C1205.28 36.7001 1265.4 14.8 1332.22 -3.19995C1368.62 -13 1406.22 -19.8 1444.18 -23.7" stroke="#1E1A43" stroke-miterlimit="10"/>
<path d="M-20.8365 822.7C38.799 852.4 118.792 863 193.157 855.6C232.075 851.7 269.318 842.5 302.009 827.1C335.42 811.3 361.525 790.3 389.667 768.8C398.528 762 407.03 755 415.293 747.8C447.386 719.9 476.844 692.7 523.068 675.4C566.058 659.3 612.521 650.9 655.751 653.4C666.409 654 676.827 655.4 687.125 657.5C715.626 663.2 741.851 673.8 772.387 679C791.667 682.3 810.588 681.6 828.909 678C878.845 668.2 918.123 637.2 941.594 603.4C944.827 598.8 947.701 594.1 950.216 589.4C963.029 565.9 971.292 540 976.801 512.5C983.507 479.1 986.261 443.5 989.973 408.7C993.566 376.3 998.475 341.8 1007.1 307.2C1021.47 248.9 1046.5 189.9 1081.94 143.3C1103.02 115.8 1127.69 93.5001 1155.47 75.0001C1205.52 41.5001 1265.76 20.4001 1332.7 2.40009C1368.98 -7.39991 1406.46 -14.1999 1444.3 -18.3999" stroke="#1E1A43" stroke-miterlimit="10"/>
<path d="M-15.5675 831.5C44.7865 866 124.181 878.9 197.947 870.4C236.626 865.9 273.748 855.4 306.081 838.2C339.012 820.7 364.399 797.7 391.822 774.7C400.444 767.5 408.587 760 416.61 752.5C447.506 723.3 475.767 694.8 521.751 677C563.903 660.8 610.964 653.7 655.032 658.5C665.93 659.7 676.587 661.7 687.006 664.4C715.985 671.9 742.689 684.8 773.106 691C792.505 695 811.306 694.4 829.149 690.6C878.247 680 917.285 644.8 938.96 608.3C941.953 603.3 944.588 598.2 946.863 593.2C958.239 568.2 964.706 541.3 968.897 513.5C974.046 479.7 975.843 444.5 980.154 410.2C984.225 378 990.692 343.4 1000.63 308.7C1017.28 250.3 1043.86 191.7 1080.14 145.8C1101.82 118.5 1126.97 96.6001 1155.11 78.5001C1205.76 45.8001 1266.12 25.5001 1333.06 7.50006C1369.34 -2.19994 1406.7 -9.19995 1444.3 -13.7" stroke="#1E1A43" stroke-miterlimit="10"/>
<path d="M-10.1787 840.3C82.9868 900.2 217.825 904.1 310.272 849.3C342.844 830 367.393 805 394.097 780.6C435.171 743 463.073 701.4 520.433 678.5C571.926 657.9 633.597 654.2 687.125 671.3C716.704 680.7 743.648 695.7 774.064 703C854.895 722.3 922.075 655.1 943.63 597.2C965.664 538.2 961.353 473.8 970.334 411.9C982.668 326.2 1018.83 220.6 1078.35 148.4C1140.98 72.5002 1229.23 40.7001 1333.54 12.9001C1369.7 3.20015 1406.94 -3.79985 1444.54 -8.59985" stroke="#1E1A43" stroke-miterlimit="10"/>
</g>
</svg>
