<?xml version="1.0" encoding="UTF-8"?>
<svg width="102" height="106" viewBox="0 0 102 106" fill="none" xmlns="http://www.w3.org/2000/svg">
    <path d="M28.1684 6.04984C14.6616 13.4072 5.60998 25.2082 1.86203 40.4329C0.659856 45.3864 0.447708 47.8631 0.730572 54.8563C1.36702 69.4254 6.24643 80.3522 16.6417 90.6234C21.804 95.7226 29.3706 100.603 33.8257 101.769C34.8157 102.06 33.5428 101.259 31.0678 100.02C25.9762 97.5437 18.9046 92.5174 15.8638 89.1665L13.8131 86.9811L16.2174 84.213C17.561 82.6832 24.6326 74.4517 31.9871 65.9288C39.2708 57.4787 45.4939 50.4856 45.7767 50.4856C45.9889 50.5584 51.2926 57.0416 57.4449 65.0546C69.4666 80.425 78.8719 95.2855 77.599 96.8152C77.2454 97.3252 74.841 98.6364 72.366 99.7291C69.8202 100.895 67.7694 102.06 67.7694 102.351C67.7694 102.643 70.6688 101.405 74.2046 99.5105C84.0341 94.4113 92.5908 85.597 97.3995 75.5444C101.218 67.3857 102.067 63.452 101.996 52.3067C101.996 43.0553 101.855 41.5256 100.016 36.2807C96.5509 25.9366 89.055 15.5197 81.0641 9.8378C77.6697 7.4339 70.5981 3.64594 70.2445 4.01016C70.1031 4.15585 72.2953 5.46707 75.1946 6.99683C86.8628 13.2615 97.6823 27.4664 100.087 39.8501L100.511 42.0355L96.8338 39.2674C94.8537 37.7376 93.0151 36.6449 92.8736 36.7906C92.6615 36.9363 94.3587 38.3932 96.5509 39.9958C99.5917 42.1812 100.723 43.4195 101.218 45.3864C101.996 48.4459 101.43 61.4124 100.299 65.2732C99.5917 67.8228 99.3088 68.0413 97.6116 67.6771C95.773 67.3128 95.773 67.3128 97.3288 68.1141C98.6017 68.7698 98.8845 69.3525 98.5309 70.8094C98.2481 71.8293 97.8945 72.9219 97.6116 73.2133C97.3288 73.4319 94.6416 71.5379 91.6008 68.9154C88.56 66.293 86.2263 63.962 86.4385 63.8163C86.6506 63.5977 88.56 64.3262 90.8229 65.346C93.0151 66.4387 94.9951 67.1672 95.1366 67.0215C95.4194 66.6572 82.5491 60.6839 81.5591 60.6839C81.2055 60.6839 78.7304 62.8693 76.1139 65.5646C72.5781 69.2068 71.1638 70.2267 70.4566 69.6439C69.9616 69.2797 64.4458 64.6904 58.2228 59.4455C51.9997 54.2735 46.5546 49.8299 46.1303 49.5386C45.4939 49.1743 38.1394 57.1145 31.3506 65.6374L29.8656 67.3857L25.4812 65.1275C23.0769 63.8891 21.0968 63.015 21.0968 63.2335C21.0968 63.3792 22.6526 64.399 24.5619 65.4189C26.4712 66.3659 28.2391 67.4585 28.4513 67.8228C28.7341 68.3327 14.5202 85.597 13.318 86.0341C12.823 86.2527 8.36791 79.6237 8.36791 78.6767C8.36791 78.3854 10.1358 74.306 12.328 69.4982L16.3588 60.7568L18.3389 61.8494C19.4703 62.4322 20.3896 62.7236 20.3896 62.5779C20.3896 62.3594 19.3996 61.6309 18.1974 61.0481L16.076 59.8826L10.2065 65.346L4.33709 70.8823L3.0642 66.293C1.7206 61.4852 0.801289 49.6114 1.50845 46.6976C1.86203 45.3864 3.77136 43.9295 8.72149 41.0885C12.3987 38.976 15.4395 37.082 15.4395 36.9363C15.4395 36.4992 5.11497 42.1812 3.55922 43.4195C1.79131 44.8036 1.86203 43.201 3.62993 37.2277C7.8729 23.3142 17.3489 12.1689 30.6435 5.61276C33.3307 4.2287 35.0986 3.13602 34.5329 3.13602C33.9671 3.13602 31.0678 4.44724 28.1684 6.04984ZM60.6978 62.5051C65.5772 66.5844 69.9616 70.1538 70.5274 70.4452C72.1538 71.5379 76.2554 72.1935 76.6797 71.5379C76.8918 71.1737 76.0432 70.8823 74.9118 70.8823C73.7096 70.8823 72.7196 70.5909 72.7196 70.2995C72.7196 70.0081 74.6289 67.8228 76.8918 65.4917C79.8619 62.4322 81.3469 61.4124 82.0541 61.8494C84.7413 63.5249 96.763 74.1603 96.763 74.8888C96.763 75.3258 95.7023 77.3655 94.4294 79.478L92.1665 83.1931L88.8428 79.041C83.3977 72.1206 82.7613 71.6107 80.2862 71.6836L78.0233 71.8293L80.4276 72.2663C82.2662 72.6306 83.7513 73.8689 86.9335 77.8026C89.1964 80.5707 91.1058 83.4117 91.1058 83.9944C91.1058 85.3785 80.6398 95.7954 79.579 95.4312C79.084 95.2855 76.6797 91.5704 74.1339 87.1996C71.5881 82.7561 65.5772 74.1603 60.6978 67.9685C50.0197 54.4192 49.454 53.6908 50.8683 54.4921C51.434 54.8563 55.8184 58.4257 60.6978 62.5051ZM10.843 70.5909L7.51932 77.8026L6.105 74.8159L4.61996 71.7564L9.14579 67.3857C11.6209 64.9818 13.7423 63.0878 13.8838 63.2335C14.0252 63.3064 12.6109 66.6572 10.843 70.5909Z" fill="white"/>
    <path d="M30.4187 13.68C32.6307 15.7606 32.6999 15.7606 34.3589 14.3974C35.2575 13.68 36.5017 13.0343 37.0547 13.0343C37.6077 13.0343 37.9534 12.8191 37.6769 12.6038C37.4695 12.3886 36.1561 12.5321 34.8427 13.0343C32.769 13.68 32.1468 13.68 30.8335 12.7473C28.2758 10.882 27.9993 11.4559 30.4187 13.68Z" fill="white"/>
    <path d="M23.0195 21.9773C22.8183 22.3745 22.1477 22.5334 21.4772 22.2951C20.5383 21.8979 20.5383 21.9773 21.6113 22.7717C22.5501 23.5661 23.0195 23.4866 23.8913 22.4539C24.5619 21.739 24.696 21.1829 24.2266 21.1829C23.7572 21.1829 23.2878 21.5007 23.0195 21.9773Z" fill="white"/>
    <path d="M41.352 29.5735C35.1767 34.1701 29.9241 37.9641 29.6402 37.9641C29.3562 37.9641 27.4397 36.7967 25.3813 35.4104L21.6903 32.8568L18.851 34.316C17.2895 35.1186 16.0118 35.9941 16.0118 36.14C16.0118 36.3589 17.2895 35.8482 18.851 35.0456L21.6903 33.5864L25.3813 36.14C27.4397 37.5263 29.3562 38.6937 29.6402 38.6937C29.9241 38.6937 35.2476 34.8997 41.494 30.3031C47.6693 25.7065 52.9219 21.9125 53.1348 21.9125C53.4188 21.9125 58.9553 25.9254 65.4855 30.8868C77.1974 39.7151 80.3205 41.904 78.83 40.3718C77.4103 38.8396 53.7027 21.1829 53.1348 21.1829C52.8509 21.2559 47.5274 24.9769 41.352 29.5735Z" fill="white"/>
    <path d="M87.1249 37.7276C84.4084 38.8793 84.3388 38.8793 86.7766 38.3857C89.6324 37.8098 92.4881 36.5758 90.9558 36.5758C90.3985 36.5758 88.6572 37.1517 87.1249 37.7276Z" fill="white"/>
    <path d="M81.0196 39.4952C80.0872 39.9375 80.0155 40.2914 80.661 40.2914C81.2347 40.2914 82.3822 39.9375 83.1711 39.4952C84.1034 39.0529 84.1751 38.699 83.5297 38.699C82.9559 38.699 81.8084 39.0529 81.0196 39.4952Z" fill="white"/>
    <path d="M49.6888 80.367C48.2816 82.2761 47.3669 84.2586 47.578 84.7726C47.7187 85.36 46.8041 87.4894 45.4672 89.6188C42.8639 93.5838 42.5825 94.5383 43.7082 94.5383C44.1304 94.5383 44.4118 94.0244 44.4118 93.3635C44.4118 92.7027 45.5376 90.5733 46.9448 88.5908C48.2816 86.6083 49.1963 84.6992 48.9852 84.2586C48.4927 83.4509 51.87 77.6502 52.7846 77.6502C53.6993 77.7236 57.0766 83.4509 56.7248 84.4055C56.5137 84.9929 57.4284 87.0488 58.8356 89.0313C61.5796 93.0698 61.7907 93.8041 60.2428 93.8041C58.8356 93.8041 58.906 94.0978 61.0168 97.5488C62.0018 99.2376 62.635 101 62.424 101.587C62.2129 102.175 62.3536 102.615 62.7054 102.615C63.0572 102.615 63.1979 103.129 62.9868 103.717C62.635 104.524 62.8461 104.671 63.6201 104.378C64.9569 103.864 64.394 102.028 61.65 97.4754C59.9614 94.6852 59.9614 94.5383 61.2982 94.5383C63.1979 94.5383 63.0572 94.0244 59.891 89.3985C58.132 86.902 57.358 85.2132 57.8506 84.9195C58.6245 84.4055 53.84 76.9159 52.7143 76.9159C52.4328 76.9159 51.096 78.4579 49.6888 80.367Z" fill="white"/>
    <path d="M52.4465 86.7899C52.3012 88.4925 52.0107 89.0847 51.4296 88.7146C50.7033 88.2704 50.7033 88.4185 51.4296 89.2328C51.8654 89.751 52.3012 91.0094 52.3012 91.9718C52.3012 93.6003 52.1559 93.6744 51.0664 92.786C49.8316 91.8237 49.8316 91.8237 51.0664 93.3042C51.7201 94.1185 52.3012 95.599 52.3012 96.5614C52.3012 98.0419 52.1559 98.1159 51.0664 97.2276C49.8316 96.2653 49.8316 96.3393 50.9212 97.6718C51.5749 98.4861 52.1559 100.411 52.2286 101.891L52.3739 104.704L48.5242 104.852L44.6746 104.926L48.6695 105.371C50.8485 105.593 53.9718 105.667 55.5698 105.445L58.4752 105.074L55.7877 104.852L53.1728 104.63L53.2455 99.8926C53.3907 96.4874 53.7539 94.7848 54.8434 93.5263C55.6424 92.564 55.7877 92.1938 55.2066 92.638C52.6644 95.0068 52.1559 92.1198 54.6255 89.2328C55.5698 88.1964 55.7877 87.7522 55.2066 88.1964C53.6086 89.6769 53.1728 89.3808 52.8097 86.7159L52.5191 84.347L52.4465 86.7899Z" fill="white"/>
    <path d="M45.1593 95.1044C44.9421 95.8121 43.9282 97.723 42.8419 99.3507L40.959 102.394L42.6247 102.323C43.5661 102.323 43.8558 102.111 43.3488 101.899C42.6971 101.615 42.9868 100.554 44.6524 97.723C45.8111 95.5998 46.5353 93.9013 46.1732 93.9013C45.8111 93.9013 45.3766 94.4674 45.1593 95.1044Z" fill="white"/>
    <path d="M37.8183 103.562C39.0464 104.23 40.13 104.647 40.2745 104.48C40.7802 103.896 40.0578 103.479 37.8183 102.895L35.6511 102.394L37.8183 103.562Z" fill="white"/>
    <path d="M40.959 104.302C40.959 104.46 41.7765 104.776 42.8168 104.934C43.8572 105.171 44.6746 105.013 44.6746 104.697C44.6746 104.302 43.8572 103.986 42.8168 103.986C41.7765 103.986 40.959 104.144 40.959 104.302Z" fill="white"/>
    <path d="M59.0459 104.649C59.2544 105.018 60.0883 105.165 60.8527 104.944C62.7984 104.428 62.5899 103.986 60.4357 103.986C59.4629 103.986 58.8375 104.281 59.0459 104.649Z" fill="white"/>
    <path d="M50.9004 0.5C78.7263 0.5 101.302 23.5254 101.302 51.9502C101.302 80.375 78.7263 103.4 50.9004 103.4C23.0746 103.4 0.500006 80.3749 0.5 51.9502C0.5 23.5255 23.0746 0.500164 50.9004 0.5Z" stroke="white"/>
    </svg>